<svg xmlns="http://www.w3.org/2000/svg" viewBox="0 0 900 900"><defs><style>.cls-1{fill:#2f373a;}.cls-2{fill:#fdcc54;}.cls-3{fill:#e7a745;}.cls-4{fill:#fff;}.cls-5{fill:#632703;}.cls-6{fill:#f8f8f8;}.cls-7{opacity:0.69;}.cls-10,.cls-11,.cls-12,.cls-8,.cls-9{opacity:0.8;}.cls-9{fill:#ebb766;}.cls-10{fill:#f4d6a7;}.cls-11{fill:#f8e4c7;}.cls-12{fill:#fcf2e4;}.cls-13{fill:#95c11f;}.cls-14{fill:#d11818;}</style></defs><title>1</title><g id="Layer_2" data-name="Layer 2"><g id="Hot_Chocolate" data-name="Hot Chocolate"><circle class="cls-1" cx="450" cy="450" r="450"/><polygon class="cls-2" points="162.35 197.78 176.84 219.03 202.56 219.13 186.83 239.48 194.68 263.96 170.47 255.3 149.61 270.33 150.37 244.62 129.63 229.43 154.31 222.21 162.35 197.78"/><polyline class="cls-3" points="162.35 197.78 176.84 219.03 202.56 219.13 186.83 239.48 194.68 263.96 170.47 255.3"/><polygon class="cls-2" points="307.53 82.69 320.9 120.77 359.84 131.34 327.76 155.81 329.74 196.12 296.55 173.17 258.83 187.51 270.4 148.85 245.11 117.41 285.45 116.46 307.53 82.69"/><polyline class="cls-3" points="307.53 82.69 320.9 120.77 359.84 131.34 327.76 155.81 329.74 196.12 296.55 173.17"/><polygon class="cls-2" points="368.72 219.51 376.44 230.82 390.13 230.87 381.76 241.71 385.94 254.75 373.05 250.13 361.94 258.14 362.34 244.45 351.3 236.36 364.44 232.51 368.72 219.51"/><polyline class="cls-3" points="368.72 219.51 376.44 230.82 390.13 230.87 381.76 241.71 385.94 254.75 373.05 250.13"/><path class="cls-4" d="M701.69,449.32c1.09-15.39,1.64-29.84,1.49-42.8,0,0-352.9-47.91-429.24,46.73,0,0,30.57,250.95,66.44,301.13,0,0,297.69-4,307.72-17.89,2.61-3.62,7.68-20.46,13.73-45.25a123.71,123.71,0,0,0,39.86-241.92Zm45.86,142.33a85.79,85.79,0,0,1-77,61.4c10.26-47.91,21.26-109.24,27.52-164.65A85.77,85.77,0,0,1,747.55,591.65Z"/><path class="cls-5" d="M298.9,453.69s98-70.44,363.51-32.28C662.41,421.41,535,561.59,298.9,453.69Z"/><path class="cls-6" d="M700.38,448c1.09-15.39,1.64-29.84,1.49-42.8,0,0-87-11.81-183.93-12.12v17c41.34.15,89.27,3.38,144.47,11.32,0,0-10.55,11.6-31.18,25.55a269.05,269.05,0,0,1-48.12,25.73,286.39,286.39,0,0,1-65.17,18.16V748.22c65.3-2.78,124.48-7,128.85-13,2.61-3.62,7.68-20.46,13.73-45.25A123.71,123.71,0,0,0,700.38,448Zm45.85,142.33a85.79,85.79,0,0,1-77,61.4c10.26-47.91,21.26-109.24,27.52-164.65A85.77,85.77,0,0,1,746.23,590.34Z"/><g class="cls-7"><g class="cls-8"><g class="cls-8"><path class="cls-9" d="M487.57,442.79c-9.51-6.28-18.35-12-26.79-17.79a82.38,82.38,0,0,1-14.62-13.73c-1.21-1.52-2.38-3-3.56-4.71-1.44-2.11-2.6-4.16-3.8-6.33a73.47,73.47,0,0,1-5.72-13.81c-1.66-5.57-1.59-11.77-.74-17.59a30.81,30.81,0,0,1,4.51-10.65A88.21,88.21,0,0,0,442,349.9a72,72,0,0,1,11.49-18.8A52.87,52.87,0,0,1,470,318a46.45,46.45,0,0,1,13.6-4.17,62.24,62.24,0,0,1,14.21-.29c4.77.41,9.54,1.22,14.22,1.88l4.89.79,4.75.7q9.51,1.34,19.11,2.1c6.48.52,12.35.81,17.2.22a38.29,38.29,0,0,0,9.51-1.92,25.65,25.65,0,0,0,7-3.92l-4.19,22.72a59.71,59.71,0,0,0-20-21.64c-4.6-3.16-10-6.26-15.78-9.78L530,301.9l-5.66-3.72-5.46-4c-1.75-1.4-3.43-2.88-5.15-4.31-1.15-1-2.08-2.21-3.13-3.31l-1.53-1.67-.77-.84-.63-.95a24.47,24.47,0,0,1-3.09-8.6c-1.2-6-1-12.35-.66-18.68.17-3.08.58-6.69.8-8.82l.85-7.27,1.85-14.37c1.07-8.06,2.09-16,3-23.77l.33-2.92a6,6,0,0,0,.06-1v-.75q0-1.49-.05-2.88t-.15-2.67l-.12-1.25a2.76,2.76,0,0,0-.3-1.21,5.76,5.76,0,0,0-2.18-1.83c-.85-.48-1.72-.87-2.55-1.26l-1.19-.58-.55-.31c-.06-.05,0,0-.17-.14l-.68-.85a24.37,24.37,0,0,1-1.54-2.21l-.4-.65-.45-.81q-.44-.81-.83-1.65c-.29-.64-.58-1.37-.84-2.07a21.73,21.73,0,0,1-.72-2.33c-.22-.88-.41-1.77-.55-2.66a28.21,28.21,0,0,1-.27-3.05,26.6,26.6,0,0,1,.57-6.4,29.93,29.93,0,0,1,.85-3l.26-.74.14-.37c.2-.45-.34.75.46-1.05v0l.05-.17.22-.69.43-1.39a83.64,83.64,0,0,1,3.48-7.89c1.11-2.32,2.13-4.26,3.2-6.31l5.65-10.56c2.36-3.79,4.29-7,6-9.48s3.08-4.25,4.59-5l.93-.17a9.54,9.54,0,0,1,1.24-.17c.85-.08,1.95-.25,3.11-.47a6.57,6.57,0,0,1,3.4-1.35,3.76,3.76,0,0,1,1.68.3,4.09,4.09,0,0,1,.8.46,5.74,5.74,0,0,0,.74.56,13,13,0,0,1,2.72,2.17,15.14,15.14,0,0,1,2.07,3.27,19.75,19.75,0,0,1,1.55,8.42c-.53,13.3-5.17,27.37-5.67,39-.09,1.5.34,2.17.38,3.52l0,2.47V174l-12.3-5.88-.07,0-.16,0h.05a1.83,1.83,0,0,0,.41,0,6.89,6.89,0,0,0,1.8-.6c.48-.2.75-.39,1.33-.7q.41-.22.79-.47l9-6.1.16-.58c.24.1.54.29.81.43l1.67.92c2.24,1.24,4.49,2.54,6.61,4,4.21,2.87,8.08,6.1,10.79,10.65a29.3,29.3,0,0,1,2.8,7,27.65,27.65,0,0,1,.86,3.82l.33,2c.09.68.09,1.38.14,2.08a107.81,107.81,0,0,1-.95,18l-.07.57,0,.28v.16l0,.62-.07,1.23-.22,2.43c-.17,1.61-.4,3.18-.68,4.74A103.23,103.23,0,0,1,554,236.19c-2.08,5.66-4.41,11.21-6.28,16.56l-.34,1a2.61,2.61,0,0,1-.31.72q-.25.29-.48.62a10.37,10.37,0,0,0-.85,1.39,8.12,8.12,0,0,0-.93,3.21,3.63,3.63,0,0,0,.66,2.18,8.8,8.8,0,0,0,1.9,1.27,16.14,16.14,0,0,0,4.67,1.43c3.86,1.53,8.15,3.05,13,4.85a139.92,139.92,0,0,1,16,7.13,89.88,89.88,0,0,1,17.35,12.11,31,31,0,0,1,4.38,5.94,28,28,0,0,1,2.87,6.47,23,23,0,0,1,1,11.61,18.7,18.7,0,0,1-.61,3.36l-5.3,28.74a26.63,26.63,0,0,1-6.15-.71,39.3,39.3,0,0,0-4.63-1c-3-.36-6.19.45-12.65,2.72a124.83,124.83,0,0,1-26.34,6.8c-8.33,1.2-15.38,2-23.53,1.53-4.05-.4-8-.88-11.95-1.39l-5.85-.78-3-.57a35,35,0,0,0-6.24-.79,11.66,11.66,0,0,0-6.06,1.48c-4.92,3-6.77,9.84-4.93,15.46a22.16,22.16,0,0,0,4.13,6.84,23.92,23.92,0,0,0,2.33,2.33c.2.16.35.36.54.5l.25.19.37.44,1.6,1.84,3.49,4.15c1.26,1.55,2.48,3.11,4.07,5.28a64.06,64.06,0,0,1,7.35,13c3.18,7.41,4.41,14.71,5.67,22.15s2.52,15,6.13,22.29c2.62,5,7.13,9.1,12.86,12.21a45.38,45.38,0,0,0,9.51,3.69,53.24,53.24,0,0,0,10.72,1.64,14.36,14.36,0,0,1,4.32,1.2,24.72,24.72,0,0,0,5,1.66,32.22,32.22,0,0,1-14.75,7.75,46.08,46.08,0,0,1-19,.22,56.75,56.75,0,0,1-17-6.26,60.7,60.7,0,0,1-12.87-9.65c-1.88-2-1.63-4.16-2.32-6.23C497.81,447.82,492.31,445.9,487.57,442.79Z"/><path class="cls-10" d="M493.83,442.37c-9.55-6.05-18.48-11.7-26.93-17.47l-3.14-2.17c-1.15-.88-2.3-1.74-3.49-2.73a75,75,0,0,1-7.13-6.65,67.38,67.38,0,0,1-6.9-8.56,71.45,71.45,0,0,1-6.57-12.5c-2.09-5.07-2.42-10.92-2.11-16.48a23.72,23.72,0,0,1,1.4-5.73,31.28,31.28,0,0,1,2.15-4.65,90.18,90.18,0,0,0,4.3-8.17,68.26,68.26,0,0,1,10.78-20.68,48.36,48.36,0,0,1,16.85-14.26c7.62-3.69,16.08-4.53,24.33-3.8,4.14.33,8.28,1,12.35,1.57l9.62,1.4q9,1.22,18.16,1.91a131.67,131.67,0,0,0,17.37.5,60.09,60.09,0,0,0,6.89-.58,34.64,34.64,0,0,0,5.94-1.3,28.85,28.85,0,0,0,9.68-5.13l-3.12,16.91a65.2,65.2,0,0,0-9.18-12.73,70.06,70.06,0,0,0-12.56-10.4c-4.82-3.23-10.27-6.28-16-9.69l-4.37-2.64-5.27-3.4-5.11-3.66c-1.65-1.28-3.23-2.63-4.86-3.93-1.87-1.75-3.6-3.61-5.36-5.46a18.89,18.89,0,0,1-3-7.05,62.6,62.6,0,0,1-1.14-15.65c.11-2.67.26-5.36.5-8.06l.65-6.83L510,231.24c1-8.06,1.94-16,2.81-23.79l.64-5.85.3-2.86,0-1.73c0-2.27,0-4.4-.09-6.37l-.09-1.45a2.47,2.47,0,0,0-.44-1.4,8,8,0,0,0-2.56-2.09c-1-.56-1.95-1-2.87-1.52-.46-.24-.91-.48-1.33-.74l-.31-.2-.15-.1,0,0-.16-.19-.32-.39-.62-.79-.76-1.11a23.94,23.94,0,0,1-1.53-2.69c-.23-.45-.52-1.11-.76-1.74s-.46-1.23-.68-2a23.61,23.61,0,0,1-.58-10.67,22,22,0,0,1,.67-2.75q.2-.68.44-1.34l.12-.33.06-.16.37-.85,0-.09.87-2.78c0-.17.25-.63.39-1l.46-1.07,1-2.15.89-1.89.79-1.64c2.11-4.3,4.2-8.09,6.07-11.52,2.64-4.14,5-7.63,7.16-10.62a47.92,47.92,0,0,1,6.35-7.28c.64-.34,1.23-.75,2.08-1.32l1.06-.7,1.13-.69c1.51-.47,3.21-2.78,5.12-.81a12.68,12.68,0,0,1,2.7,2.24,14.92,14.92,0,0,1,2.05,3.34,20.2,20.2,0,0,1,1.51,8.51c-.28,6.68-1.62,13.58-2.9,20.18s-2.6,13.13-2.79,18.82c-.06,1.48.38,2.08.41,3.49l0,2.47v.54l-12.66-6.07a1.05,1.05,0,0,0-.24-.08,2.3,2.3,0,0,0,.57,0c.23,0,.4-.11.8-.22s.61-.25,1.1-.46.78-.43,1.38-.75q.4-.23.77-.49l.19-.13.09-.07,0,0c17.62-11.76,4.89-3.27,8.82-5.9l0-.15.07-.3,0-.15s0-.06,0-.07l.1.06.83.46,1.68.93c2.26,1.25,4.51,2.57,6.63,4,4.22,2.91,8.08,6.18,10.77,10.79a21.43,21.43,0,0,1,1.62,3.47,33.17,33.17,0,0,1,1.17,3.57l.5,1.88c.14.65.23,1.31.35,2l.34,2,.12,2.1a110.54,110.54,0,0,1-1,18.13l-.07.58a3.59,3.59,0,0,0,0,.36l0,.62-.07,1.23-.21,2.43c-.17,1.61-.4,3.18-.68,4.73a103.11,103.11,0,0,1-5.07,17.71c-2.07,5.65-4.41,11.2-6.27,16.52a9.31,9.31,0,0,1-.64,1.66q-.24.28-.48.59a9.74,9.74,0,0,0-.85,1.34,7.65,7.65,0,0,0-.92,3.09,3.38,3.38,0,0,0,.64,2.07,8.41,8.41,0,0,0,1.83,1.21,15.55,15.55,0,0,0,4.54,1.34c3.85,1.53,8.16,3.05,13,4.86a140.52,140.52,0,0,1,16,7.17,90.71,90.71,0,0,1,17.45,12.2,31.6,31.6,0,0,1,4.39,6,28.51,28.51,0,0,1,2.88,6.5,23.2,23.2,0,0,1,1,11.66,17.18,17.18,0,0,1-.58,3.21L601,345.2a25.54,25.54,0,0,1-6.21-.71,40.78,40.78,0,0,0-4.62-1,14.65,14.65,0,0,0-5,.35c-2,.45-4.4,1.28-7.69,2.4a125,125,0,0,1-26.52,6.85c-8.36,1.2-15.41,2-23.55,1.52-4.06-.4-8-.88-12-1.39l-5.86-.78-3-.57a34.11,34.11,0,0,0-6.1-.78,11.36,11.36,0,0,0-5.93,1.45c-4.79,2.9-6.59,9.62-4.74,15.09a21.45,21.45,0,0,0,4.09,6.65,23.21,23.21,0,0,0,2.29,2.24c.19.16.34.34.53.48l.25.18.36.42,1.58,1.81,3.45,4.11c1.26,1.55,2.45,3.08,4,5.25a64,64,0,0,1,7.35,13c3.17,7.4,4.4,14.7,5.64,22.12s2.49,14.94,6.06,22.25c2.6,5,7.07,9.08,12.75,12.17a45.31,45.31,0,0,0,9.41,3.68,53.21,53.21,0,0,0,10.62,1.65,14.21,14.21,0,0,1,4.27,1.21,24.72,24.72,0,0,0,4.9,1.67,28.35,28.35,0,0,1-13.68,7.08,38.55,38.55,0,0,1-16.46-.29,50.65,50.65,0,0,1-14.75-6.06,74.74,74.74,0,0,1-12.08-9.19c-1.92-1.94-1.73-4.08-2.47-6.1C504.08,447.13,498.58,445.38,493.83,442.37Z"/><path class="cls-11" d="M504.92,440.44c-9.51-5.54-18.46-11-27-16.64q-3.18-2.13-6.27-4.33a78,78,0,0,1-6.45-5.06,73.28,73.28,0,0,1-6.63-6.63c-1.07-1.28-2.15-2.55-3.17-4a52.68,52.68,0,0,1-3.13-4.73c-2.42-4.14-3.4-9.23-3.76-14.12a20.19,20.19,0,0,1,.68-5.21,27,27,0,0,1,1.52-4.34,59,59,0,0,0,3.08-7.6,55.39,55.39,0,0,1,9.34-22.28,45.22,45.22,0,0,1,7.46-8.2,31.06,31.06,0,0,1,9.11-5.57c5.51-2.16,11.55-2.26,17.14-1.4s10.94,2.22,16.05,3.08a199,199,0,0,0,31.7,3.19c7.53.28,15,.4,22-1a41.72,41.72,0,0,0,19-8.85l-.14.74A74.73,74.73,0,0,0,574,312.23a80.42,80.42,0,0,0-15-11.74c-10.83-6.76-22.77-11.75-33.52-20-1.18-.87-2.28-1.86-3.43-2.8a8.68,8.68,0,0,1-2.85-3.37,28.43,28.43,0,0,1-1.73-8.79,89.79,89.79,0,0,1-.1-9.24c.08-3.15.29-6.35.51-9.42.6-7.94,1.35-15.77,2.07-23.56l2.12-23.15c.19-3.17.34-6.19.43-9,0-1.43.07-2.82.07-4.18s-1.05-2.71-2.21-3.66c-2.39-2-5.22-3.23-7.42-4.94a4,4,0,0,1-.44-.4c-.33-.41-.6-.69-1-1.22a15.8,15.8,0,0,1-1.08-1.71c-.18-.34-.35-.65-.53-1s-.35-.83-.51-1.25a11.28,11.28,0,0,1-.43-1.42c-.13-.52-.24-1-.32-1.58a15.31,15.31,0,0,1,.74-7.24l.08-.22,0-.11c.1-.23-.17.36.23-.54l0-.09.06-.17.11-.35.45-1.4.23-.7.11-.35.19-.46,1.62-3.69c2.74-5.14,5.7-10.69,8.66-15.73s5.8-9.42,8.88-12.26c1.72-1,3.81-4.45,5.14-6.85a11.37,11.37,0,0,1,1.91-2.75,1.52,1.52,0,0,1,1-.41,1.67,1.67,0,0,1,1.18.67,15.45,15.45,0,0,1,2.26,3.25,19.79,19.79,0,0,1,1.5,4.13,27.51,27.51,0,0,1,.52,9.35c-.87,7-2.45,13.93-3.73,20.47-.62,3.26-1.23,6.49-1.56,9.51s-.53,6.11.14,7.65c.06.62,0,1.59,0,2.37v1.23l-14.79-7-.16,0h0a7.44,7.44,0,0,0,3.48-1.28q.4-.22.79-.46l11.36-7.63.1-.7c0-.1.08,0,.15,0l.21.12.43.24.86.48a64.63,64.63,0,0,1,13,8.87,31.85,31.85,0,0,1,5.1,5.92,25.24,25.24,0,0,1,1.93,3.51c.54,1.17.91,2.34,1.39,3.54s.74,2.51,1.07,3.82.51,2.7.69,4.1l.25,4.34,0,4.52c-.89,15.63-.48,18.86-1.69,25.68a101.72,101.72,0,0,1-4.91,17.47c-1,2.76-2.08,5.52-3.08,8.17l-1.5,4-.7,1.92c-.12.33-.21.41-.28.42l-.24.14a4.93,4.93,0,0,0-2.47,3.73c.09.76.83,1.12,1.41,1.45a6,6,0,0,0,1.61.53c.26,0,.56.09.86.12s.22-.16,1.6.44c3.93,1.61,8.78,3.3,14.11,5.42,1.38.57,2.66,1,4.12,1.68l4.36,1.93c3,1.5,6.07,2.93,9.28,4.89a103,103,0,0,1,9.59,6.39,94,94,0,0,1,9.25,8.21A35.79,35.79,0,0,1,612,301.13a30.66,30.66,0,0,1,1.54,10.66l-1.7,38.14-5.62,1.51a16.81,16.81,0,0,1-3.86.59c-7.38.75-10-1.44-12.87-2.23a10.81,10.81,0,0,0-4.94-.26c-1,.16-2.23.48-3.67.82-.72.19-1.5.41-2.35.67l-2.77.75a163.1,163.1,0,0,1-27.77,6c-4.16.56-7.95,1-11.7,1.31a83.89,83.89,0,0,1-11.7.15c-3.85-.38-7.62-.83-11.35-1.31l-2.79-.36-1.39-.19-.53-.12-2.09-.48c-2.78-.67-6.07-1.21-8.72.29-4,2.26-5.35,8.12-3,12.43a14.52,14.52,0,0,0,4.09,4.4,14,14,0,0,0,2,1.16c.09,0,.37.31.59.53l.74.75,1.56,1.64a104.69,104.69,0,0,1,7.85,9.43,62.29,62.29,0,0,1,7.24,12.79c3.11,7.27,4.27,14.42,5.46,21.67.59,3.62,1.19,7.27,2.07,10.88A49.68,49.68,0,0,0,530,443.43c2.51,4.77,6.81,8.55,12.17,11.21a40,40,0,0,0,8.75,3,49.73,49.73,0,0,0,9.61,1,11.6,11.6,0,0,1,3.94,1,21.7,21.7,0,0,0,4.59,1.44c-6.14,7.3-15.56,9.13-24.2,7.07a41.56,41.56,0,0,1-12.21-5.17,101.38,101.38,0,0,1-11.12-8.09c-1.94-1.75-1.84-3.86-2.61-5.79C515.06,444.56,509.66,443.18,504.92,440.44Z"/><path class="cls-12" d="M515.87,428.87c-6.89-3.85-13-5.16-19.87-7.58a60.14,60.14,0,0,1-10.92-5,61.76,61.76,0,0,1-6.07-4.12,53.62,53.62,0,0,1-6.83-6.19c-2.22-2.39-3.5-5.87-4.49-9.4a20.94,20.94,0,0,1,.38-8,40.6,40.6,0,0,0,1.3-6.66,40.67,40.67,0,0,1,5.32-23.39,34,34,0,0,1,6.55-8,21.9,21.9,0,0,1,8.34-4.84,22.32,22.32,0,0,1,9.06-.59c3,.36,5.72,1,8.4,1.53l2,.34,1.1.16,1.55.19q3.1.36,6.25.63,6.29.54,12.76.67c5.4.21,10.38.51,15.63.81a128.91,128.91,0,0,0,16.3,0,63.18,63.18,0,0,0,16.88-3.5,53.9,53.9,0,0,0,15.05-8.39l8.53-6.76-5.43-10.08a89.29,89.29,0,0,0-12.53-18,87.29,87.29,0,0,0-16.67-14c-5.91-3.91-11.93-7.11-17.64-10.18l-7.46-4.07c-1.92-1.07-3.82-2.23-5.79-3.54-.74-.47-1.49-1.06-2.31-1.63a5.33,5.33,0,0,1-2.06-2.21,21.34,21.34,0,0,1-1.52-7.16c-.19-2.44-.24-4.85-.22-7.37.25-6.72.84-13.62,1.48-20.47s1.4-13.8,2.19-21c.41-3.66.72-6.91,1.34-11.61.53-4.36,1.12-8.72,1.23-13a19.09,19.09,0,0,0,.1-2.15,7.34,7.34,0,0,0-.26-2.42,10.85,10.85,0,0,0-3.78-4.71,48.41,48.41,0,0,0-5.9-3.82c-1-.6-2.1-1.2-3.1-1.82a19.37,19.37,0,0,1-2.67-1.93,3.12,3.12,0,0,1-1.17-2.51c.15-1,.44-2.09.67-3.11a38.55,38.55,0,0,1,2.14-5.78,22.82,22.82,0,0,1,5.53-8c1.9-1.12,5.78-9.49,8.18-16.79s2.51-13.11,3.81-10.73a27.87,27.87,0,0,1,2.39,6.77,21.86,21.86,0,0,1,.08,7.71c-1.18,7-2.81,13.68-4,19.85s-2.1,12.12-1,15.92v2.17l-14.91-7.13c-.49-.17-.13.1,1-.28a11.29,11.29,0,0,0,2.19-1,11.82,11.82,0,0,0,1.45-.9l10.92-7.3v-.12l0-.17,0-.34,0-.17s.12.06.18.08l.4.22.81.45,1.63.92a58.89,58.89,0,0,1,12.11,8.66,30.55,30.55,0,0,1,4.77,5.8,25.38,25.38,0,0,1,1.8,3.41c.49,1.13.87,2.28,1.32,3.46s.72,2.46,1,3.75.5,2.65.67,4l.24,4.3,0,4.51c0,3.17-.21,6.41-.47,9.68l-.21,2.46,0,.31,0,.18v1c0,.85,0,1.69,0,2.53a67.49,67.49,0,0,1-1,9.69,108.59,108.59,0,0,1-5,17.89l-3.09,8.37-1.48,4c-.23.6-.5,1.54-.65,1.47q-.24.13-.48.28c-1.24.8-2.46,2.38-2.35,3.81.17.61.79.9,1.26,1.21a5.82,5.82,0,0,0,1.61.58c.26.06.58.11.87.14l.44,0a2.92,2.92,0,0,1,.6.22l.79.32c4.08,1.69,9,3.4,14.55,5.65a119.75,119.75,0,0,1,18.28,9,90.2,90.2,0,0,1,19.1,15.32,27.12,27.12,0,0,1,3.18,4.77,45.21,45.21,0,0,1,2.37,5.05,36.7,36.7,0,0,1,1.92,9.75l1.9,38.57-9.52,2.7a25.2,25.2,0,0,1-6.6,1.06c-3.77.27-6.05.44-7.85.72a11.72,11.72,0,0,0-4.2,1.58c-1.3.75-2.71,1.87-5,3a28.8,28.8,0,0,1-4.16,1.84,37.86,37.86,0,0,1-5.88,1.64,59.86,59.86,0,0,1-15.76,1.6,90,90,0,0,1-12.46-1.3c-3.79-.63-7-1.3-10.59-1.86s-7.25-1-11.28-1.27c-3.73-.37-7.39-.8-11-1.27l-2.7-.35c-.18,0-.55-.07-.57-.08l-.24-.05-.49-.11-2-.45c-2.63-.63-5.74-1.11-8.26.26-4.1,2.23-5.45,8.26-2.88,12.55a13.87,13.87,0,0,0,4.17,4.11,9.52,9.52,0,0,0,1,.59c.17.08.32.17.47.25a.75.75,0,0,1,.52.32c1,1,2,2,3.13,3.16s2.37,2.51,3.7,4.06l1,1.22,1.2,1.46c.79,1,1.55,2,2.28,3a62.22,62.22,0,0,1,7.23,12.72c3.1,7.21,4.27,14.31,5.49,21.54s2.45,14.51,6,21.44a26.09,26.09,0,0,0,12.34,10.86A40.47,40.47,0,0,0,562,457.95c2.54-.07,5.11,1.63,8.55,2.17a18.62,18.62,0,0,1-10.08,6.66,20.72,20.72,0,0,1-10.85-.52,41.85,41.85,0,0,1-10.29-5.08c-3.36-2.17-6.7-4.67-10.43-7.33-2-1.59-1.17-7-1.9-8.81,2.33,2.44,2.7,2.72,1.88,1.74s-2.76-3.16-4.75-5.79A136.39,136.39,0,0,1,515.87,428.87Z"/></g></g></g><g class="cls-7"><g class="cls-8"><g class="cls-8"><path class="cls-9" d="M470.26,454.73c-14.73-4.64-28.49-9.09-41.62-14.2-6.56-2.56-12.88-5.29-19-8.33L407.34,431l-.57-.29c-.15-.06-.54-.34-.8-.5l-1.75-1.12-3.52-2.29c-1.19-.79-2.3-1.51-3.64-2.46q-3.87-2.71-7.78-5.56t-7.57-6C376,408,372.14,401.61,369,395.36a31.51,31.51,0,0,1-1.7-7.12,45.79,45.79,0,0,1-.11-6.31c.13-2,.29-3.9.33-5.75a24.27,24.27,0,0,0-.31-5.54,105,105,0,0,1-3-41.42A87.29,87.29,0,0,1,376,295.85,82.36,82.36,0,0,1,400,270.52c9.59-6.48,20.41-10.32,31.7-12.39s23.44-2.46,36.1-2.33l9.58.3,8.56.32q6.5.23,13,.61c8.61.5,17.15,1.17,25.65,2l6.37.6,1.59.16.79.08.39,0,.2,0H534l-1.16,0,2.87.16a1.46,1.46,0,0,0-.48,0c-.16,0-.37.12-.25.09s.2.11.22.1l.08.08,0,0,.08.15c.09.19.31.32.78.11a3.65,3.65,0,0,0,1.33-1.54,7,7,0,0,0,.46-1.11,8.2,8.2,0,0,0,.18-1,3.4,3.4,0,0,0,0-1.44c-.13-.45-.58-1-1.69-1.68l-.2-.13a1.2,1.2,0,0,0-.36-.19l-1.47-.64-2.94-1.27-6-2.55c-8.11-3.44-16.68-7-25.51-11.31-4.41-2.13-8.88-4.44-13.37-7-1.12-.64-2.25-1.26-3.37-1.94l-1.68-1-.84-.5-.94-.62-3.77-2.5-3.59-2.65c-1.51-1.13-2.84-2.29-4.37-3.55s-2.92-2.64-4.36-4a108.55,108.55,0,0,1-8.11-8.67,99,99,0,0,1-13.08-20,82.65,82.65,0,0,1-7.44-23c-.29-2-.5-4-.72-6.08s-.15-4.09-.2-6.15a54.61,54.61,0,0,1,.34-6.17c.07-1,.22-2.06.25-3.11s.27-2.06.43-3.09a90.32,90.32,0,0,1,5.9-19.56c.67-1.61,1.38-3.21,2.11-4.81l1.11-2.41.54-1.17.26-.71a39.65,39.65,0,0,0,1.36-4.69A105.56,105.56,0,0,0,449.08,86c1.55-8.61,2.73-16.28,7.14-25.33a24.74,24.74,0,0,1,7.91-6c3.37-2.06,7.17-2.69,10.22-.05a46.12,46.12,0,0,1,14.46,19.18A161.21,161.21,0,0,1,499,117.4a119.48,119.48,0,0,1,.37,12c0,4-.49,8.42-.72,12.17a2.16,2.16,0,0,0,.14,1l.24.85c.17.57.34,1.11.53,1.65a30.19,30.19,0,0,0,1.23,3A23.54,23.54,0,0,0,504,153.3a20.56,20.56,0,0,0,1.86,1.9,19.3,19.3,0,0,0,2,1.63,16.8,16.8,0,0,0,2.17,1.34,18.07,18.07,0,0,0,2.19,1c4.31,1.61,6.49,1.71,7.32,2.41a1.75,1.75,0,0,1,.63,1.43,3.33,3.33,0,0,1,0,.49,1.74,1.74,0,0,0,0,.64,9,9,0,0,0,.32,1c.13.31.25.64.36,1l.3,1,.13.51,0,.13.15.19.3.4c.78,1.07,1.66,2.16,2.55,3.27a72.88,72.88,0,0,0,6.3,6.72,70.38,70.38,0,0,0,18,12.21c1.78.78,3.62,1.53,5.5,2.26l2.84,1.07,3,1.1a73.61,73.61,0,0,1,23.4,14.35,71.4,71.4,0,0,1,17,23.65,74.44,74.44,0,0,1,6.28,27.44,75.51,75.51,0,0,1-19,53,74.36,74.36,0,0,1-26.27,18.72,76.14,76.14,0,0,1-15.55,4.72c-.7.13-1.23.26-2.07.38l-2.51.32c-1.68.19-3.38.34-5.07.45l-1.27.07-.53,0-.19,0-.74.07-1.49.14-.39,0h-.1l-2.34-.09h0l-.2,0-.79-.14q-.78-.15-1.56-.35a25.85,25.85,0,0,1-3.06-1,29.86,29.86,0,0,1-5.77-3.11,30.26,30.26,0,0,1-8.81-9.25c-8.78-12.14-4.93-20.21-19.91-21.28-2.45,0-4.86.17-7.25.4l-.89.09c-.28,0-.42.08-.63.11l-1.17.26q-1.16.27-2.26.6a54.53,54.53,0,0,0-7.89,3.06c-4.73,2.21-8.1,4.39-12.8,5.78a29.81,29.81,0,0,0-8.29,2.71,25.93,25.93,0,0,0-7,5.26,21.33,21.33,0,0,0-4.52,7.37,17.24,17.24,0,0,0-.63,8.63,18.52,18.52,0,0,0,4.23,8.69,26,26,0,0,0,8.62,6.41A67.42,67.42,0,0,0,459.85,356c1.64.39,3.08.7,4.44,1.07.83.31,1.63.63,2.39,1a2.94,2.94,0,0,1,.43.24l.52.32,1,.64,2,1.3c10.72,7,19.54,14.84,25.86,25.57,5.21,8.49,8.08,17.9,11.31,27.64s6.8,19.72,13.39,28.57c4.72,5.92,11.54,9.86,19.29,12.35s16.43,3.43,25.18,3.92c3.5.22,6.83,3.3,11.32,5a47.68,47.68,0,0,1-16.46,11.68,63.28,63.28,0,0,1-21.62,5.1,75.86,75.86,0,0,1-42-10c-3.16-2-3.38-5.2-4.93-7.81C485.59,457.18,477.61,457,470.26,454.73Z"/><path class="cls-10" d="M478.72,451.28c-14.61-4.18-28.35-8.35-41.46-13.27-6.56-2.46-12.91-5.13-19-8.12q-2.32-1.12-4.56-2.31l-2.25-1.2-.56-.31-.29-.16-.42-.27-1.67-1.1-3.35-2.24c-1.14-.78-2.18-1.47-3.45-2.39q-3.66-2.63-7.35-5.4a48.41,48.41,0,0,1-7.35-7.45c-1-1.39-2-2.82-3-4.25s-1.77-2.93-2.63-4.38a29.65,29.65,0,0,1-2.45-12.78c0-3.84.22-7.29-.61-10.76a108.93,108.93,0,0,1-5.49-22.46,93.43,93.43,0,0,1-.15-22.26,78.07,78.07,0,0,1,9.89-29.75,75,75,0,0,1,20.65-23.06A72,72,0,0,1,431,265.6c9.89-2.1,20.27-2.65,31.17-2.84,5.79,0,11.64.27,17.48.49l13.84.61c8.56.45,17,1.05,25.47,1.75l12.61,1.11,1.57.15.39,0-.85,0H533l.79,0,1.58.08c.38,0,.23,0,.27,0h0s0,0,.08.06l.49,0a6.13,6.13,0,0,0,.93-.09,7.08,7.08,0,0,0,3.17-1.25,9.69,9.69,0,0,0,2.78-3.26c1.52-2.91,1.78-6.71.64-9.21a8,8,0,0,0-2.64-3.47q-.25-.19-.49-.4l-.59-.35a7.47,7.47,0,0,0-1.28-.7l-.34-.18-.18-.09-.37-.15-1.47-.61L533.5,246c-15.75-6.51-33.13-12.84-50.91-23.54a99,99,0,0,1-9.51-6.76l-2.33-1.88-2.27-2c-1.54-1.35-3-2.77-4.42-4.24A97.08,97.08,0,0,1,449,188a79.35,79.35,0,0,1-9-23.48,51.77,51.77,0,0,1-1-6.32c-.11-1.06-.29-2.13-.32-3.2l-.09-3.22c0-1.08-.08-2.16,0-3.24l.23-3.23c.07-1.08.21-2.16.24-3.26s.27-2.16.44-3.24a82.17,82.17,0,0,1,4.64-16.34c1-2.69,2.22-5.36,3.44-8l.93-2c.23-.55.35-.89.49-1.31.29-.8.52-1.53.73-2.22A109.13,109.13,0,0,0,453,92.13c1.05-4.41,2-8.68,3.23-13a75.46,75.46,0,0,1,5.32-13.28c.77-1,1.67-2.37,2.66-3.91s2-3.22,3.09-4.66c2.2-2.76,4.73-5.23,7.77-2.57A46.53,46.53,0,0,1,489.52,74a162,162,0,0,1,10,43.69q.46,5.88.34,12c-.05,4-.51,8.45-.74,12.19a2.08,2.08,0,0,0,.15,1l.25.84c.18.56.35,1.09.54,1.62a29.4,29.4,0,0,0,1.25,3,23.11,23.11,0,0,0,3.31,5.08,20.36,20.36,0,0,0,1.89,1.86,19.06,19.06,0,0,0,2,1.59,16.63,16.63,0,0,0,2.19,1.3,17.36,17.36,0,0,0,2.21,1c4.3,1.5,6.44,1.48,7.22,2.11a1.44,1.44,0,0,1,.54,1.3,2.41,2.41,0,0,1,0,.47,1.46,1.46,0,0,0,0,.62,9.79,9.79,0,0,0,.3,1,10.34,10.34,0,0,1,.34,1l.27,1,.12.5c0,.16.35.49.51.74.77,1.07,1.64,2.15,2.53,3.25a71.06,71.06,0,0,0,6.26,6.69A70.14,70.14,0,0,0,549.07,190c1.79.78,3.61,1.53,5.51,2.26l6,2.23a74.3,74.3,0,0,1,23.61,14.62,72.16,72.16,0,0,1,17.08,24,75.36,75.36,0,0,1-39.79,100,77.47,77.47,0,0,1-15.7,4.7c-1.18.27-3,.5-4.7.69s-3.41.33-5.13.43l-1.29.07-.46,0-.74.07-1.49.14-.39,0L529.2,339H529l-.2,0-.79-.14q-.78-.15-1.56-.36a26,26,0,0,1-3.06-1,30,30,0,0,1-5.77-3.12,30.32,30.32,0,0,1-8.82-9.26C500,313,504.1,304.9,489.11,303.84c-2.45,0-4.86.16-7.25.4a14.7,14.7,0,0,0-2.69.46q-1.13.27-2.22.6a52.12,52.12,0,0,0-7.72,3.06c-4.61,2.21-7.87,4.39-12.46,5.74a29.32,29.32,0,0,0-8.12,2.62,25.33,25.33,0,0,0-6.86,5.12,20.76,20.76,0,0,0-4.44,7.2,16.73,16.73,0,0,0-.62,8.45,18,18,0,0,0,4.16,8.46,25.26,25.26,0,0,0,8.47,6.22,64.6,64.6,0,0,0,11.08,3.37c1.6.36,3,.65,4.33,1,.82.3,1.6.6,2.35.92l.14.06.25.15.52.31,1,.64,2,1.3c10.71,7,19.5,14.82,25.81,25.54,5.19,8.49,8,17.88,11.24,27.6s6.73,19.7,13.27,28.53c4.68,5.91,11.46,9.85,19.15,12.33s16.3,3.44,25,3.94c3.46.24,6.77,3.3,11.23,5-8.4,9.5-21.18,14-34.1,13.83s-25.94-4.6-37.39-10.79c-3.13-1.84-3.43-5-5-7.57C493.83,453.23,486,453.37,478.72,451.28Z"/><path class="cls-11" d="M493.15,443.32A408,408,0,0,1,452.5,432a200.85,200.85,0,0,1-19-7.62q-4.6-2.15-9-4.59c-1.49-.82-2.94-1.66-4.4-2.53l-1.09-.66-.57-.36-.75-.52-3-2.1a27.75,27.75,0,0,1-3.29-2.76c-1.11-1.08-2.16-2.23-3.17-3.42a74.47,74.47,0,0,1-5.47-7.49,21.81,21.81,0,0,1-2.22-6,32.9,32.9,0,0,1-.7-5.56c-.13-1.75-.15-3.44-.28-5.06a21.22,21.22,0,0,0-.91-4.65,94.92,94.92,0,0,1-7.91-23.7,69.29,69.29,0,0,1-.47-22.75,58.66,58.66,0,0,1,22.15-37.76,44.79,44.79,0,0,1,9.41-5.72,60.91,60.91,0,0,1,10.43-3.43,120.18,120.18,0,0,1,21.36-2.57c8.5-.14,17.05.23,25.56.51s16.75.73,25,1.21L528.58,286c4.08.32,8,.58,11.88-.23A26.11,26.11,0,0,0,551.14,281a28.61,28.61,0,0,0,11-20.36,28,28,0,0,0-1.48-11.82,25.6,25.6,0,0,0-6.52-10,28.74,28.74,0,0,0-10.37-6.16l-11.94-4.3c-8-2.88-16.25-5.85-24.54-9.42q-5.35-2.31-10.58-4.94c-1.76-.86-3.47-1.79-5.21-2.71s-3.54-2-5.19-3.15a85.47,85.47,0,0,1-18.75-16.56,69.34,69.34,0,0,1-13.1-22.77,57.36,57.36,0,0,1-1.82-6.54,32.54,32.54,0,0,1-.59-3.36c-.15-1.13-.37-2.27-.45-3.41a64.18,64.18,0,0,1,.48-13.87,75.22,75.22,0,0,1,5.18-17.17c1.13-2.75,2.72-6.07,3.27-7.78.73-2,1.28-3.82,1.87-5.76,2-4.76,3-11.12,4.14-17.34s2.2-12.37,5-17.34c1.81-2,3.08-7.49,4.28-11.93s2.57-7.85,5.56-5.3a48.75,48.75,0,0,1,13.71,20.65,165.63,165.63,0,0,1,7.89,42.73c.15,3.79.14,7.65-.05,11.59-.12,1.94-.26,4-.43,5.92l-.22,2.83-.08,1.33a4.43,4.43,0,0,0,.25.78,23.67,23.67,0,0,0,6,9.49,18.5,18.5,0,0,0,11.08,4.92c4.25.24,5.92-.76,6.23-.91.08,0,.09-.06,0,0l-.27.29c-.11.08.19.84.26,1.22a6.17,6.17,0,0,1,.14,1.45,80.45,80.45,0,0,0,11.28,12.58A77.64,77.64,0,0,0,555.74,186c1.91.82,3.81,1.59,5.68,2.32l.71.27,1.56.65,3.31,1.46c2.17.94,4.44,2.23,6.6,3.44a77.6,77.6,0,0,1,23.63,21,79.57,79.57,0,0,1,13.38,28.72,83.05,83.05,0,0,1,1.51,30.08A81.26,81.26,0,0,1,580.89,328a82.33,82.33,0,0,1-31.63,14.58q-2.09.47-4.21.86-2.68.4-5.41.66l-2.73.22-2.55.15-1.47.17-.73.08-.37,0-.18,0h-.14l-2.6-.1h0l-1.5.09-3,.15c-8.38-1-16.6-7-20.78-14-8.77-12.13-3-18.9-18-20q-1.84,0-3.65.12c-.56,0-1.3.07-1.71.13l-1,.21a25.27,25.27,0,0,0-3.57,1.14,28.69,28.69,0,0,0-5.79,3.19c-3.32,2.32-5.28,4.69-8.52,6a21.39,21.39,0,0,0-10.76,5.68,13,13,0,0,0-4,11.17c.66,5,5.21,9.7,11.43,11.59a40.89,40.89,0,0,0,9.09,1.32,11.76,11.76,0,0,1,3.65.4l.5.14.25.07a.91.91,0,0,1,.33.14l2.07,1.22c1.37.82,2.72,1.66,4,2.5,10.57,6.8,19.17,14.38,25.23,24.76,5,8.3,7.67,17.41,10.7,26.92s6.37,19.3,12.64,27.76c4.47,5.7,10.91,9.34,18.15,11.5s15.23,2.86,23.31,3.15c3.2,0,6.44,3.19,10.66,4.68-7.4,9.62-17.8,12.69-28.07,11.74a62.6,62.6,0,0,1-15.67-3.69c-5.24-1.94-10.57-4.3-16.09-6.91-3-1.61-3.41-4.73-5-7.1C507.64,444.25,500.19,445,493.15,443.32Z"/><path class="cls-12" d="M504.75,421.67c-9.84-1.94-18.23-.85-28-1.08s-20.91-2-35-10.8c-3.27-2-5.45-5.72-7.57-9.41-.35-.81-.56-1.56-.86-2.45a25.14,25.14,0,0,1-.73-2.65,42.07,42.07,0,0,1-.75-5.1c-.34-3.33-.44-6.27-1.46-8.71-5.28-8.77-9-16.57-10.87-24.17a41.4,41.4,0,0,1,.09-21.77,45.28,45.28,0,0,1,12.64-20.26,49.81,49.81,0,0,1,9.1-7,49.08,49.08,0,0,1,10.25-4.39c5.31-1.37,10.77-1.31,16-1.1q3.94.17,7.75.45l8.46.68c14.77,1.23,28.64,2.78,42.53,4.27l2.61.28,1.3.14.66.07.16,0,1.13,0,.33,0,1.31.08.66,0,.33,0a4.12,4.12,0,0,0,.46,0c1.79,0,3.59-.09,5.39-.23A48.36,48.36,0,0,0,574,290.91a51.74,51.74,0,0,0,9.18-17,52.46,52.46,0,0,0,2.21-19.65,48.94,48.94,0,0,0-6.16-20.29,47.23,47.23,0,0,0-15.14-16.29l-2.33-1.5-2.4-1.29a43,43,0,0,0-4.89-2.22c-1.93-.8-2.6-.94-3.72-1.32l-3.16-1c-9.56-3-18.13-5.73-26-8.69-3.94-1.47-7.71-3-11.34-4.65-1.81-.82-3.6-1.67-5.34-2.56l-1.3-.66-1.11-.6c-.74-.41-1.51-.77-2.24-1.25s-1.5-.89-2.24-1.39L495.82,189c-1.33-1-2.73-2-4-3.12a54.54,54.54,0,0,1-7.46-7.56,47.12,47.12,0,0,1-6.2-9.57,40.44,40.44,0,0,1-3.76-11.7c-.07-1.31-.21-2.86-.48-4.66-.09-1.76-.43-3.81-.42-6a51.73,51.73,0,0,1,1-10.82c.72-3.81,1.91-8,2.95-11.89,2.07-7.83,3.69-14.65,6.71-18.49a6,6,0,0,0,1.41-3.09,32.25,32.25,0,0,0,.81-5.67,88.6,88.6,0,0,0-.35-14.67c-.94-9.84-3-17.85-.09-15.06a64.13,64.13,0,0,1,6.75,7.7,30.56,30.56,0,0,1,4.45,9.3A157.88,157.88,0,0,1,503.37,125c0,1.79,0,3.58-.07,5.39s-.15,3.64-.31,5.48l-.5,5.48-.21,2.55,0,.31.06.17.12.35.24.68a23.38,23.38,0,0,0,5.42,8.85,20.14,20.14,0,0,0,11.43,5c4.25.24,5.93-.76,6.23-.91.08,0,.09-.06,0,0l-.08.08s-.17.13-.16.22,0,.31.13.59a6.37,6.37,0,0,1,.21.7,4.81,4.81,0,0,1,.1.7v.36c0,.07,0,.1,0,.22l.29.36a81.94,81.94,0,0,0,11.93,12.78,83.47,83.47,0,0,0,19.15,12.28l6.88,2.87c2.24,1,4.39,1.93,6.64,3.2a71.74,71.74,0,0,1,6.56,3.92A78.38,78.38,0,0,1,600,219.27a80,80,0,0,1,11.39,29.3,82.82,82.82,0,0,1-11.56,58.53A80.55,80.55,0,0,1,576.28,331a82.37,82.37,0,0,1-7.59,4.43c-2.61,1.34-5.3,2.48-8,3.59s-5.48,1.91-8.26,2.67q-2.05.52-4.14,1l-2.09.43-1.05.2-1.31.19q-2.68.37-5.4.6l-2.72.19-1.29.07-.36,0-1.46.17-.73.08-.37,0h0l-2.6-.1h-.33l-5.94.33c-8.38-1-16.6-7-20.79-14-8.77-12.12-6.22-4.24-21.2-5.3H479.4l-.13,0-.51,0a7.52,7.52,0,0,1-1,0,9.82,9.82,0,0,1-1.95-.38c-1.31-.38-2.7-1-4.26-1.64-3-1.24-7-2.55-10.27-1.17a21.25,21.25,0,0,0-10,5.63,12.71,12.71,0,0,0-3.89,10.57c.54,5.08,5.24,9.89,11.64,11.67a39.71,39.71,0,0,0,8.87,1h1.68c.69.13,1.41.32,2.07.48l.25.06.52.29,1,.6,2.07,1.21c1.37.83,2.71,1.62,4,2.47,10.54,6.71,19.11,14.23,25.17,24.54,5,8.19,7.66,17.28,10.73,26.74s6.49,19.13,12.82,27.54c4.51,5.62,11,9.15,18.23,11.18s15.21,2.53,23.23,2.64c3.18.09,6.44,3,10.7,4.54a27.82,27.82,0,0,1-5.69,5.79,20.71,20.71,0,0,1-6.17,3.11,24,24,0,0,1-12.78.07,44.08,44.08,0,0,1-6.49-2.07c-1.09-.43-2.2-.86-3.31-1.34l-3.36-1.53c-2.29-1-4.58-2.22-7-3.26s-5-2.24-7.67-3.39c-3-1.35-3.37-9.7-4.79-11.88,3.62,2.42,4.17,2.65,2.86,1.63s-4.35-3.29-7.6-6-6.72-6-9.29-8.6c-1.3-1.27-2.37-2.42-3.12-3.23Z"/></g></g></g><path class="cls-13" d="M232.68,757.57q39.1-21.15,77.42-43.71c1.77,8.74,13.44,10.5,22.31,9.63a183.93,183.93,0,0,0,63.52-18.2c-4.34,7.62-2.18,17.19.7,25.48A180,180,0,0,0,450,808.62c-15.9-11.26-38.9-8.28-54.61,3.23s-25.11,29.86-30.64,48.54a44.9,44.9,0,0,0-68.81-31.81c-3-33.75-29.22-64.15-62.14-72.19"/><path class="cls-13" d="M276.47,760.68q-6-38.46-13.48-76.68c7.73,1.09,12.6-8,14.47-15.61A161.07,161.07,0,0,0,281,610.63c5,5.81,13.56,6.82,21.24,6.86a157.66,157.66,0,0,0,79.86-21.33c-13.94,9.84-18.19,29.7-13.28,46s17.32,29.45,31.13,39.47a39.32,39.32,0,0,0-46.36,47.52c-28.75-7.34-61.5,5.39-77.75,30.23"/><path class="cls-13" d="M262.34,739.15Q216.83,716.25,170.51,695c7.06-7.39,1.07-19.52-5.56-27.29a210.8,210.8,0,0,0-58.74-47.79c10-.92,17.59-9.22,23.5-17.35a206.33,206.33,0,0,0,38.23-101.2c-.16,22.33,17.71,42,38.83,49.23s44.53,4,65.72-3a51.46,51.46,0,0,0,15.18,85.55c-29.73,25-41.17,69.52-27.15,105.74"/><circle class="cls-14" cx="237.48" cy="683.96" r="30.52" transform="translate(-158.44 77.79) rotate(-14)"/><circle class="cls-14" cx="283.48" cy="703.94" r="22.56" transform="translate(-161.91 89.51) rotate(-14)"/><circle class="cls-14" cx="250.32" cy="735.46" r="29.19" transform="translate(-170.52 82.43) rotate(-14)"/><polygon class="cls-2" points="715.93 426.58 730.42 447.82 756.13 447.93 740.41 468.27 748.25 492.76 724.04 484.09 703.18 499.12 703.94 473.42 683.2 458.22 707.88 451 715.93 426.58"/><polyline class="cls-3" points="715.93 426.58 730.42 447.82 756.13 447.93 740.41 468.27 748.25 492.76 724.04 484.09"/></g></g></svg>