<svg xmlns="http://www.w3.org/2000/svg" viewBox="0 0 900 900"><defs><style>.cls-1{fill:#2f373a;}.cls-2{fill:#f9ee9c;}.cls-3{fill:#df4949;}.cls-4{fill:#343434;fill-opacity:0.3;}.cls-5{fill:#e1ac69;}.cls-6,.cls-8{fill:#40211a;}.cls-6{opacity:0.11;}.cls-7{fill:#ae7f42;}.cls-9{fill:#2c1f1f;opacity:0.4;}.cls-10{opacity:0.2;}.cls-11{fill:#fff;}.cls-12{fill:#a66326;}.cls-13{fill:#1d1d1b;}</style></defs><title>10</title><g id="Layer_2" data-name="Layer 2"><g id="Camino"><path class="cls-1" d="M900,450A449.48,449.48,0,0,1,484.19,898.72c-5.34.4-10.71.72-16.1.91q-9,.37-18.09.37a447.74,447.74,0,0,1-227.34-61.58q-7.12-4.17-14.06-8.61A449.26,449.26,0,0,1,0,450C0,201.48,201.48,0,450,0S900,201.48,900,450Z"/><path class="cls-2" d="M163.44,332.32c-45.75,1.25-46.76,2.26-48,48-1.25-45.75-2.26-46.76-48-48,45.75-1.25,46.76-2.26,48-48C116.68,330.06,117.69,331.07,163.44,332.32Z"/><path class="cls-2" d="M726.68,171.24c-45.75,1.25-46.76,2.26-48,48-1.25-45.75-2.26-46.76-48-48,45.75-1.25,46.76-2.26,48-48C679.92,169,680.93,170,726.68,171.24Z"/><path class="cls-2" d="M850.34,555.7c-45.75,1.25-46.76,2.26-48,48-1.25-45.75-2.26-46.76-48-48,45.75-1.25,46.76-2.26,48-48C803.58,553.44,804.59,554.45,850.34,555.7Z"/><path class="cls-2" d="M313.11,191.65c-45.75,1.25-46.76,2.26-48,48-1.25-45.75-2.26-46.76-48-48,45.75-1.25,46.76-2.26,48-48C266.35,189.39,267.36,190.4,313.11,191.65Z"/><path class="cls-2" d="M421.81,245.13c-27.3.75-27.9,1.35-28.65,28.65-.75-27.3-1.35-27.9-28.65-28.65,27.3-.75,27.9-1.35,28.65-28.65C393.91,243.78,394.51,244.39,421.81,245.13Z"/><path class="cls-2" d="M539.67,91.27c-24.14.66-24.67,1.19-25.33,25.33-.66-24.14-1.19-24.67-25.33-25.33,24.14-.66,24.67-1.19,25.33-25.33C515,90.08,515.53,90.61,539.67,91.27Z"/><path class="cls-2" d="M850.8,412.95c-24.14.66-24.67,1.19-25.33,25.33-.66-24.14-1.19-24.67-25.33-25.33,24.14-.66,24.67-1.19,25.33-25.33C826.13,411.76,826.66,412.29,850.8,412.95Z"/><path class="cls-2" d="M767.34,311.67c-18.27.5-18.68.9-19.18,19.18-.5-18.27-.9-18.68-19.18-19.18,18.27-.5,18.68-.9,19.18-19.18C748.66,310.77,749.06,311.17,767.34,311.67Z"/><path class="cls-2" d="M188.77,522.07c-24.14.66-24.67,1.19-25.33,25.33-.66-24.14-1.19-24.67-25.33-25.33,24.14-.66,24.67-1.19,25.33-25.33C164.1,520.88,164.63,521.41,188.77,522.07Z"/><path class="cls-3" d="M867.27,618.79A449.31,449.31,0,0,1,493.86,897.87q-4.83.47-9.67.84c-5.34.4-10.71.72-16.1.91q-9,.37-18.09.37a447.74,447.74,0,0,1-227.34-61.58q-7.12-4.17-14.06-8.61a451.37,451.37,0,0,1-175.87-211Z"/><path class="cls-4" d="M761.94,774.32A447.79,447.79,0,0,1,493.86,897.87c-73.78-40.34-159-112.29-159-112.29L581,620.58Z"/><path class="cls-5" d="M557.12,443c.84,7.26,46.32,310.19,42.1,311.87s-264.34,30.69-264.34,30.69l-1.33-328.38Z"/><polygon class="cls-6" points="349.72 484.36 356.5 742.69 575.63 726.12 545.12 475.2 349.72 484.36"/><polygon class="cls-7" points="337.91 456.69 267.11 432.92 256.38 695.05 334.88 785.58 337.91 456.69"/><polygon class="cls-8" points="557.74 441.98 517.32 417.17 267.11 432.92 337.91 456.69 557.74 441.98"/><path class="cls-9" d="M471.86,501.58c5.39-4.38,7.66-11.91,13.44-15.75a7.92,7.92,0,0,1,3.75-1.44c3.44-.24,6.19,2.66,8.48,5.24,5.89,6.66,12.57,13,20.86,16.19s18.52,2.68,25.11-3.29c1.64-1.49,3-3.29,4.93-4.46a12.81,12.81,0,0,1,5.66-1.7,20.62,20.62,0,0,1,14.15,4.11c1.3-10.23-6.24-19.88-15.41-24.6s-19.73-5.68-29.95-7.06c-25.76-3.48-51.08-10.19-77-12-32.83-2.27-65.86,3.44-97.24,13.37-4.06,1.29-8.24,2.72-11.38,5.6-3.54,3.25-5.35,7.94-6.71,12.55-2.22,7.51-3.43,16.12.68,22.79,1.78,2.89,4.52,5.34,5.2,8.67a14.28,14.28,0,0,0,.78,3.7c1.16,2.3,4.38,2.73,6.83,1.9,5.27-1.78,8.16-7.42,9.69-12.76s2.34-11.12,5.66-15.58,10.42-6.78,14.45-3c1.51,1.44,2.31,3.46,3.57,5.12a11.55,11.55,0,0,0,11.6,4.18c5.05-1.19,8.95-5.76,14.11-6.33,1.77-.2,3.71.07,5.23-.86a8.37,8.37,0,0,0,2.48-3.07,35.13,35.13,0,0,1,12.91-12.55,6.22,6.22,0,0,1,2.94-1c3.86,0,4.64,5.39,6.82,8.58,2.64,3.86,8,4.62,11.76,7.42,2.14,1.6,3.71,3.84,5.73,5.6A16.75,16.75,0,0,0,471.86,501.58Z"/><g class="cls-10"><rect class="cls-8" x="356.57" y="524.43" width="188.56" height="5.85" transform="translate(-34.52 31.58) rotate(-3.86)"/><rect class="cls-8" x="356.59" y="582.92" width="200.24" height="5.85" transform="translate(-36.26 30.17) rotate(-3.64)"/><rect class="cls-8" x="356.31" y="644.65" width="201.91" height="5.85" transform="translate(-60.77 47.5) rotate(-5.58)"/><rect class="cls-8" x="356.31" y="710.36" width="210.53" height="5.85" transform="translate(-65.52 46.95) rotate(-5.44)"/><rect class="cls-8" x="407.33" y="486.06" width="5.85" height="41.16" transform="translate(-51.08 46.03) rotate(-6.05)"/><rect class="cls-8" x="493.09" y="481.86" width="5.85" height="41.16" transform="translate(-50.16 55.04) rotate(-6.05)"/><polygon class="cls-8" points="361.56 588.77 357.22 531.26 363.04 530.39 367.37 587.9 361.56 588.77"/><polygon class="cls-8" points="447.32 583.67 442.98 527.94 448.8 527.1 453.14 582.83 447.32 583.67"/><polygon class="cls-8" points="539.3 582.67 534.97 524.1 540.78 523.21 545.12 581.79 539.3 582.67"/><polygon class="cls-8" points="399.36 652.68 395.03 589.41 400.84 588.46 405.18 651.73 399.36 652.68"/><polygon class="cls-8" points="485.13 642.63 480.79 584.27 486.61 583.39 490.94 641.75 485.13 642.63"/><polygon class="cls-8" points="549.46 635.37 545.12 577.01 550.94 576.13 555.27 634.49 549.46 635.37"/><polygon class="cls-8" points="375.07 719.11 370.73 655.84 376.55 654.89 380.88 718.16 375.07 719.11"/><polygon class="cls-8" points="460.83 711.99 456.5 648.53 462.31 647.58 466.65 711.03 460.83 711.99"/><polygon class="cls-8" points="525.16 708.33 520.83 643.54 526.64 642.56 530.98 707.35 525.16 708.33"/></g><path class="cls-9" d="M269.3,491.57a3.74,3.74,0,0,1,1.19,2.43c1,4,4.22,7.87,8.35,7.86,3.62,0,6.51-2.83,9.26-5.18,4.78-4.09,11.09-7.38,17.19-5.84a17.15,17.15,0,0,1,6.66,3.64A27.85,27.85,0,0,1,320.79,508a5.37,5.37,0,0,1,0,3.9c-.9,1.77-3.35,2.26-4.37,4-1.19,2,.27,4.73,2.37,5.72s4.56.72,6.87.42,4.75-.61,6.88.31c.58.25,1.25.58,1.8.26a1.71,1.71,0,0,0,.65-1.05c2.07-6.87.66-14.42-2.47-20.87s-7.87-12-12.72-17.26c-3.68-4-7.52-8-12.17-10.83a45.06,45.06,0,0,0-16.3-5.6c-5.43-.9-11.31-1.12-16.12,1.55a15.07,15.07,0,0,0-7.59,13.22,8,8,0,0,1-.16,2.63c-.39,1.2-1.45,2-2.17,3.09s-1,2.67,0,3.43S268.15,490.82,269.3,491.57Z"/><path class="cls-11" d="M472,494.21c5.29-6.39,8.34-16.7,16.62-17.23,7.11-.45,11.88,7.18,13.86,14s3.42,14.77,9.43,18.58a16.49,16.49,0,0,0,8.34,2.28,25.74,25.74,0,0,0,21.87-11.33c2.53-3.84,4.23-8.58,8.23-10.85,4.75-2.69,11.66,0,13.37,5.17,1.38,4.2,1.43,10.87,5.84,10.55,4.41-9.82-2.15-21-1.92-31.77s7.07-22.5,1.09-31.44c-1.9-2.85-4.87-4.84-6.83-7.64-2.16-3.09-3.08-7.12-6-9.5s-7.2-2.45-10.86-3.66c-4.6-1.52-8.29-4.91-12-8s-7.78-6.21-12.58-6.84-10.37,2.12-11.18,6.89c-1,6.13,5.61,10.61,11.46,12.69s12.88,4.47,14.45,10.49c-14.39-.52-28.87-1-43.11,1.1-6.87,1-13.63,2.67-20.46,3.92-17,3.1-34.31,3.75-51.56,4.4-27.65,1-55.33,2.07-83,.87-3.06-.13-6.22-.32-8.93-1.75-2.39-1.26-4.2-3.38-6.41-4.92-6.2-4.32-14.65-3.62-21.45-6.91-9.84-4.75-16.36-17.61-27.25-16.71-8.11.67-13.4,9.32-14.19,17.41s1.5,16.17,1.73,24.3c.18,6.33-.89,12.63-1.09,19-.09,2.87.08,6,1.91,8.19s5.9,2.64,7.32.15c3.36-.45,3.2,5,5,7.91,2.5,4,8.85,2.13,12.33-1.06s6.85-7.57,11.57-7.47c5.06.1,8.42,5.49,9.26,10.48s.2,10.27,1.95,15c2.94,8,13.16,12.32,20.94,8.91,1.46-.64,3.18-1.5,4.54-.66.93.58,1.27,1.74,1.85,2.67,2.73,4.39,10.14,2.21,12.6-2.33s1.89-10,2.43-15.18a34.24,34.24,0,0,1,5.75-15.68c1.47-2.15,3.3-4.21,5.77-5,5.24-1.75,10.68,3,12.43,8.21s1.13,10.94,1.92,16.41,3.78,11.38,9.18,12.55c6.44,1.39,12-4.59,15.18-10.37a68.58,68.58,0,0,0,6.69-17.73c1.33-5.9,2-12.19,5.35-17.2s10.82-8,15.58-4.27c4.31,3.38,4,9.82,5.39,15.12A21.62,21.62,0,0,0,472,494.21Z"/><path class="cls-11" d="M277.66,424.51c-27.13-18.1,261.75-23.72,245.81-10.23C498.44,435.47,308.35,445,277.66,424.51Z"/><polygon class="cls-12" points="513.37 436.2 501.1 236.11 515.58 236.11 523.87 435.73 513.37 436.2"/><path class="cls-11" d="M512.48,236.09l241.86-57.37v48.5s47.33,49.55,49.06,50.07S518.87,355,518.87,355Z"/><path class="cls-13" d="M552.42,260.52l.57-.11c.42-.08.77.24,1.05.95.14,23,.27,38.71.4,47.3q-.29,3.57-1.28,3.8l-.22,0q-1.1.25-3-7.75c-2.27-8.38-3.42-12.81-3.44-13.25l1.23-.26q-.11,17.53.12,22.93l-.73.91-.57.13q-1.06.24-1.81-5.62-3.1-15.56-6.55-40.38a28.29,28.29,0,0,1-.66-2.83,2.57,2.57,0,0,1,.85-1.69l.66-.13q1.13-.22,2.33,9.37c1.86,12.15,3.07,19.84,3.65,23.14l1.34,7.54-1.14.25c0-13.42.14-20.73.38-21.89l1-.48q1.26-.26,2,6.45c.45,2.4,1.58,7,3.39,13.8l.94,3.7-.89.86q-.49-27.61-.34-45.91Z"/><path class="cls-13" d="M564.9,255.58l.25.15c-.5.1-.75.07-.76-.09,3.19-.19,4.8.15,4.83,1V257c-.2,1-.59,1.57-1.2,1.69l-3.12.13q-.21,0-1.36.38l.1,1.09c.07,1.72.49,8.31,1.27,19.73l.11,0a5.56,5.56,0,0,0,1.33-.43,34.77,34.77,0,0,0,3.94-.5l.65,1.07,0,.66a1.26,1.26,0,0,1-1,1.46,24.57,24.57,0,0,1-3.09.33c-.93.3-1.53.48-1.78.53v-.15q.42,10.91,1.65,24.2c.09,0,.13,0,.14.09q3.29-1,4.21-1.22a1.73,1.73,0,0,1,1.21,1.11v.31a2.58,2.58,0,0,1-.79,1.56q-4.18,1.1-5,1.45-2,.45-2.09-2.27-1.32-14.53-1.7-24.41l-.19-5q-1.07-13.6-1.26-18.39-.41-2.29-.44-2.88l.8-1.06,1.45-.28A15.58,15.58,0,0,0,564.9,255.58Z"/><path class="cls-13" d="M576.68,251.13l.11,0c.39-.07.76.26,1.12,1a5.27,5.27,0,0,0,.17,1.73l-.23-.58q1.34,16.91,1.75,28.39.45,3.66.68,10.23l.44,12.5,4.95-1.11c.4-.09.73.19,1,.84l0,.61q0,1.36-2.35,1.91l-4.77,1.08c-.36.08-.73-.23-1.11-.94l0-1.1a12.41,12.41,0,0,1,0-1.84l-.09-1-.4-11.19q-1.14-20.1-2.05-33.56l-.51-5.19Q575.6,251.34,576.68,251.13Z"/><path class="cls-13" d="M596.27,250.49l.8-.15q2.43.19,2.5,2.3a2.51,2.51,0,0,1-.8,1.54l-.95.18c-.47-.73-.81-1.08-1-1q-2,1.48-2,2.24-1.87,6.23-1.55,16.18l.08,2.59a121.72,121.72,0,0,0,1.75,15.88q.93,6.61,2.2,8.6,1.4,1.43,2.32,1.3,1.11-.25,2.76-3.95L603,296c.39-.09.71.19,1,.84v.45q.05,1.73-2.38,4.65a5,5,0,0,1-2.05,1.18l-.15,0a4.89,4.89,0,0,1-3.64-1.83c-1.36-1.24-2.67-6.87-3.93-16.93a78.07,78.07,0,0,1-.87-10.83l0-.92q-.34-15.89,3-20.51A7,7,0,0,1,596.27,250.49Z"/><path class="cls-13" d="M611.58,246.94c2.28-.44,4.19,6.29,5.72,20.09q.16,2,.24,5l0,.6a10,10,0,0,1,0,1.22,4.58,4.58,0,0,1,.11,1.18v.15a5,5,0,0,1,0,1.21c.06.39.09.63.09.73.29,10.71-.57,17.59-2.58,20.69a5.73,5.73,0,0,1-1.74,1.14l-.8.18c-2.74-.36-4.56-4.85-5.46-13.51l-.48-6.11c-.42-14.32.5-24.61,2.78-30.8A4.06,4.06,0,0,1,611.58,246.94Zm-2.71,31.62a60.25,60.25,0,0,0,1.9,14.31q1.33,3.39,2,3.23l.1,0q1.49-.34,1.89-4.06,1-4,.61-16.66l-.08-3a108,108,0,0,0-2.64-19.78,8,8,0,0,0-1.08-2.42,1.75,1.75,0,0,0-.68,1.13Q608.35,260.76,608.87,278.56Z"/><path class="cls-13" d="M622.63,244.21c.79.23,3.29,7.86,7.47,22.77l-.81.17q0-1,4.44-24.12l1.17-.23.47,1.23.06,1.64q0,13.44.26,22.61c.05,2.35.55,10.89,1.47,25.56l-1,1c-.87.2-1.69-7.9-2.47-24.39L633.25,253l.81-.16Q631,270,630.24,271.07c-1,.12-3.25-6-6.62-18.4l.77-.15v-.3l2.56,43.05-1,1q-1.37.31-1.41-1.32c-1.24-25.79-2.27-42.41-3.05-49.65Z"/><path class="cls-13" d="M644.55,240.31l.22.14c-.45.09-.68.06-.68-.09,2.87-.15,4.31.19,4.32,1v.26c-.19,1-.55,1.49-1.1,1.59l-2.8.09q-.19,0-1.23.35l.07,1c0,1.64.32,7.92.86,18.79l.1,0a4.81,4.81,0,0,0,1.2-.4,29.6,29.6,0,0,0,3.55-.44l.57,1v.63a1.19,1.19,0,0,1-1,1.38,20.89,20.89,0,0,1-2.78.29c-.84.28-1.38.44-1.6.48v-.15q.22,10.39,1.14,23.06c.08,0,.12,0,.12.08q3-.93,3.8-1.11a1.59,1.59,0,0,1,1.07,1.08v.29a2.52,2.52,0,0,1-.73,1.48q-3.77,1-4.54,1.32-1.79.41-1.85-2.19-1-13.85-1.18-23.27l-.1-4.73q-.77-13-.87-17.52-.34-2.18-.35-2.74l.73-1,1.31-.25A13.44,13.44,0,0,0,644.55,240.31Z"/><path class="cls-13" d="M671.78,236.16l.55,1v.48a3.19,3.19,0,0,1-.81,1.59l-1.14.22a3.58,3.58,0,0,0-2.76,2.93,31.73,31.73,0,0,0-.61,7,33.86,33.86,0,0,0,1.41,7.33q.44,1.22,5,6.67A22.78,22.78,0,0,1,676,273.48a31.3,31.3,0,0,1-1,8.26,8,8,0,0,1-3,4.2,3.52,3.52,0,0,1-1.55,1.11q-.88.2-1.24-.87v-.5q0-1,1.41-1.58,2.6-2.14,2.57-3.79a23.72,23.72,0,0,0,.73-6.77,16.67,16.67,0,0,0-3.16-9.58,19.15,19.15,0,0,1-3.86-5q-.93-1.34-1.91-7.48c0-.51-.05-1.15-.13-1.92a31.73,31.73,0,0,1,1-8.92Q667.35,237,671.78,236.16Z"/><path class="cls-13" d="M682.8,233.53l.23,0q1.66.88,2.7,5.15a220.73,220.73,0,0,1,4.12,30.93,84.61,84.61,0,0,1,.91,10.85,1.83,1.83,0,0,1-1.54,1.41c-.37-1-.84-4.88-1.4-11.64-.14-.71-.47-3.64-1-8.8h-.2q-4.3,1.56-4.3,1.78l.07,5.6L682,282a2.34,2.34,0,0,1,.22,1,2.62,2.62,0,0,1-.78,1.53q-1.54.35-1.58-2,.5-15.26.46-18.3-.12-2-.15-4-.1-10.44.8-22.38Q681.42,233.79,682.8,233.53Zm.46,3.66a140.61,140.61,0,0,0-.89,20.82,16.21,16.21,0,0,0-.05,2.79v-.54a12.83,12.83,0,0,1,4.37-1.89v.54c0-2.87-1.12-9.55-3.27-20.07Q682.82,237,683.26,237.19Z"/><path class="cls-13" d="M696.91,230.24c.63-.12,2.23,6.32,4.79,19.23.37,3,1.82,10.15,4.35,21.46l-.73.16v-.49c-.43-11.37-.66-17.79-.67-19.21q0-.64.07-4.36,0-.39,0-1.7.15-2.85.14-4.49l-.09-10.19q.1-1.53,1.19-1.74l.94.61q-.2,8.53-.16,12.59l0,4q.1,12.35.74,32l-.87.9c-.73.17-3.13-9.9-7.25-30.42l-2.47-12.36.85,2,0-2.1q.19,2.95.2,4.71l0,1.21q-.1,8-.07,11.16.16,15.91,1.07,26.71l-1.11.25q-1,.24-1.06-1.25-.64-12.24-.74-22.08L695.85,232Q696,230.41,696.91,230.24Z"/><path class="cls-13" d="M720.21,228.5l.57,1V230q0,1.31-3,1.89l-2.44.48c.17,0,.27-.09.28-.16l.21,6.39c-.06.6-.08.93-.08,1,.61,14.13.93,24.17,1,30.19a2,2,0,0,1,.09.68c-.06.15-.09.2-.09.16l.11.92c-.2.79-.47,1.22-.82,1.3l-.35.08c-.24.05-.54-.2-.89-.78q0-.49.08-1.59c0-2-.34-12-1-30.22q0-4.47-.2-7.78l.2.14-.09,0-3.07,1a3.23,3.23,0,0,1-.59-1.74,2.29,2.29,0,0,1,.83-1.45l.75.18a20.86,20.86,0,0,1,2.39-.71l3.58-.69A13.2,13.2,0,0,0,720.21,228.5Z"/><path class="cls-13" d="M728,224.84l.21,0q1.55.87,2.48,5a221.4,221.4,0,0,1,3.59,30,85,85,0,0,1,.76,10.54,1.74,1.74,0,0,1-1.45,1.36c-.34-1-.75-4.75-1.21-11.32-.13-.69-.41-3.53-.83-8.55h-.19q-4,1.49-4,1.7l0,5.44-.53,12.84a2.34,2.34,0,0,1,.2,1,2.59,2.59,0,0,1-.74,1.48q-1.45.33-1.46-1.92.6-14.81.59-17.76-.09-1.91-.1-3.9,0-10.14.94-21.72Q726.73,225.09,728,224.84Zm.4,3.56a141.41,141.41,0,0,0-1,20.2,16.3,16.3,0,0,0-.08,2.71v-.52a11.83,11.83,0,0,1,4.11-1.81v.52c0-2.79-1-9.27-2.88-19.5Q728,228.19,728.42,228.4Z"/><path class="cls-13" d="M742.37,219.67q.44-.08.88,1l-.1.82q1.6,15.1,1.6,23.73,0,2.83.08,14.63l-.58.78-.52.11c-.32-.07-.58-.43-.77-1.1q-.09-10-.09-14.82l-.08-1.82a1.46,1.46,0,0,0,.08-.43c0-2.57-.54-9.58-1.61-21.1Q741.25,219.88,742.37,219.67ZM743.5,266q1.25-.28,1.25,1.4-.21,2.34-1.39,2.61a1.71,1.71,0,0,1-1-1.7A3.33,3.33,0,0,1,743.5,266Z"/></g></g></svg>