<svg xmlns="http://www.w3.org/2000/svg" viewBox="0 0 900 900"><defs><style>.cls-1{fill:#d8b45e;}.cls-2{fill:#f9ee9c;}.cls-3{fill:#fff;}.cls-4{fill:#ae7f42;}.cls-5{fill:#9f613c;}.cls-6{fill:#f2ce84;}.cls-7{fill:#642422;}</style></defs><title>11</title><g id="Layer_2" data-name="Layer 2"><g id="Panettone"><path class="cls-1" d="M900,450A449.48,449.48,0,0,1,484.19,898.72c-5.34.4-10.71.72-16.1.91q-9,.37-18.09.37a447.74,447.74,0,0,1-227.34-61.58q-7.12-4.17-14.06-8.61A449.26,449.26,0,0,1,0,450C0,201.48,201.48,0,450,0S900,201.48,900,450Z"/><path class="cls-2" d="M157.12,332.32c-45.75,1.25-46.76,2.26-48,48-1.25-45.75-2.26-46.76-48-48,45.75-1.25,46.76-2.26,48-48C110.36,330.06,111.37,331.07,157.12,332.32Z"/><path class="cls-2" d="M720.36,171.24c-45.75,1.25-46.76,2.26-48,48-1.25-45.75-2.26-46.76-48-48,45.75-1.25,46.76-2.26,48-48C673.6,169,674.61,170,720.36,171.24Z"/><path class="cls-2" d="M844,555.7c-45.75,1.25-46.76,2.26-48,48-1.25-45.75-2.26-46.76-48-48,45.75-1.25,46.76-2.26,48-48C797.26,553.44,798.27,554.45,844,555.7Z"/><path class="cls-2" d="M306.79,191.65c-45.75,1.25-46.76,2.26-48,48-1.25-45.75-2.26-46.76-48-48,45.75-1.25,46.76-2.26,48-48C260,189.39,261,190.4,306.79,191.65Z"/><path class="cls-2" d="M415.49,245.13c-27.3.75-27.9,1.35-28.65,28.65-.75-27.3-1.35-27.9-28.65-28.65,27.3-.75,27.9-1.35,28.65-28.65C387.59,243.78,388.19,244.39,415.49,245.13Z"/><path class="cls-2" d="M533.35,91.27c-24.14.66-24.67,1.19-25.33,25.33-.66-24.14-1.19-24.67-25.33-25.33,24.14-.66,24.67-1.19,25.33-25.33C508.67,90.08,509.21,90.61,533.35,91.27Z"/><path class="cls-2" d="M844.48,412.95c-24.14.66-24.67,1.19-25.33,25.33-.66-24.14-1.19-24.67-25.33-25.33,24.14-.66,24.67-1.19,25.33-25.33C819.81,411.76,820.34,412.29,844.48,412.95Z"/><path class="cls-2" d="M761,311.67c-18.27.5-18.68.9-19.18,19.18-.5-18.27-.9-18.68-19.18-19.18,18.27-.5,18.68-.9,19.18-19.18C742.34,310.77,742.74,311.17,761,311.67Z"/><path class="cls-2" d="M182.45,522.07c-24.14.66-24.67,1.19-25.33,25.33-.66-24.14-1.19-24.67-25.33-25.33,24.14-.66,24.67-1.19,25.33-25.33C157.78,520.88,158.32,521.41,182.45,522.07Z"/><circle class="cls-3" cx="413.29" cy="305.13" r="2.21"/><circle class="cls-3" cx="579.01" cy="273.78"/><circle class="cls-3" cx="707.48" cy="462.88"/><circle class="cls-3" cx="652.1" cy="407.38" r="1.03"/><path class="cls-4" d="M547.14,680.37,514.49,685l-15.62,2.23-96.29-42.37-100.8,44.38-11.08-1.84-34.44-5.66a83.39,83.39,0,0,1-69.69-87.53l23.12-366.39H595.6l23,364.72A83.41,83.41,0,0,1,547.14,680.37Z"/><path class="cls-5" d="M642.08,278.26c0,74.94-107.2,101.48-239.44,101.48S163.2,353.21,163.2,278.26,270.4,108.35,402.64,108.35,642.08,203.32,642.08,278.26Z"/><path class="cls-6" d="M402.58,210.55V644.87l-100.8,44.38-11.08-1.84V366.34s-39.85-73.06,76.84-138.51A382.08,382.08,0,0,1,402.58,210.55Z"/><path class="cls-6" d="M514.49,366.34V687.42l-11.08,1.84-4.54-2-96.29-42.37V210.55a379.86,379.86,0,0,1,35.07,17.29C554.33,293.31,514.49,366.34,514.49,366.34Z"/><polygon class="cls-4" points="696.17 458.15 702.11 764.98 664.84 820.77 655.84 482.64 696.17 458.15"/><path class="cls-5" d="M555,343.9s113.82-49.65,138.3-19.56S745.87,439,664.84,499.7Z"/><path class="cls-6" d="M664.84,499.7V820.77l-11.08,1.84-4.54-2-96.29-42.37V343.9A379.86,379.86,0,0,1,588,361.19C704.69,426.66,664.84,499.7,664.84,499.7Z"/><path class="cls-7" d="M400.75,507.33c1.34-17.88-4.63-32.69-13.15-48-5.35-9.63-10.61-19.14-11.9-30.29-1.24-10.71.73-21.5,3.39-31.84,4.78-18.62,12.13-36.45,15.15-55.52a176.45,176.45,0,0,0-17.67-108.32,6,6,0,0,0-2.42-2.57,6.59,6.59,0,0,0-7.59-1.29,164.81,164.81,0,0,0-50.13,36.39,6.18,6.18,0,0,0-.68,7.92,5.62,5.62,0,0,0,2.12,3.13c33,26.08,11,72.14,6.05,105.58-2.49,16.69-1.73,33,4.92,48.61,6.93,16.32,16.87,30.5,15.76,49.06-1.05,17.58-8.56,34.05-12,51.19-3,15.06-2.58,29.39,2.93,43.81,5.77,15.09,16.43,30.81,11.81,47.54-4.22,15.28-16.58,26.2-14.54,43.16a7.11,7.11,0,0,0,8.13,6.09,5.64,5.64,0,0,0,6.3-.11,162.66,162.66,0,0,1,37.37-17.42,6.24,6.24,0,0,0,4.48-6.45c9-10.42,7-25.21,2.8-37.84-3.22-9.63-6.34-18.38-6.17-28.7.16-9.26,2.22-18.33,4.54-27.26C394.3,538.67,399.54,523.39,400.75,507.33Z"/><path class="cls-7" d="M475.91,257.35a18.65,18.65,0,0,0-5.06-8.39c-3.44-3.23-13.59-5.27-14.67-9.88-1-4.35-5-5.36-8.25-4.1-2.82-2.3-7.29-2.54-9.49,1.59a266.25,266.25,0,0,0-29.91,95.34c-4.16,36.42,2.28,72.09,4.34,108.38,2,35.58-5.71,71.1,2.68,106.25,7.59,31.79,25.18,68.19,4.56,98.76-3,4.5.63,8.79,4.84,9.38a6.71,6.71,0,0,0,1.39.83l26,11.49c.35,6.18,10.55,8.16,12.8,1.07,10.25-32.33,10.17-65.88.84-98.4-3.28-11.44-7.23-22.79-9.54-34.41l0-1.7a6.15,6.15,0,0,0-1-3.61,85.32,85.32,0,0,1-1-15.88c.62-17.21,6.37-33.81,11.32-50.15,4.75-15.67,8.78-31.43,9.47-47.87.76-18.16-1.93-36.23-4.23-54.19-4.15-32.49-7.11-67.89,13.39-95.79C488.57,260.41,481.24,254.95,475.91,257.35Z"/><path class="cls-7" d="M588.86,687.39c-3.62-16.75-13-31.54-17.5-48-4.93-17.92-.08-34.58,5.61-51.61,5.28-15.81,10.2-31.48,9.48-48.37-.82-19.06-6.76-37.51-9.91-56.23-6.63-39.46-5.22-80,6.94-118.24,1.22-3.84-1.06-6.61-4-7.57-4-3.49-8.45-7.82-12.4-2.59-19.8,26.17-18.65,61.93-15,92.93.8,6.82,1.79,13.64,2.87,20.45A5.52,5.52,0,0,0,553,473l4.86,70.87c-.78,17.52-4,34.57-6.22,52a145.5,145.5,0,0,0,3.28,55.37c.78,3.13,1.61,6.24,2.45,9.35l-4,112a5.66,5.66,0,0,0,1.25,3.82c-.71,7.4,10.81,10.27,12.63,2.47C574.47,747.88,596.05,720.67,588.86,687.39Z"/><circle class="cls-3" cx="262.04" cy="222.05" r="5.04"/><circle class="cls-3" cx="361.17" cy="152.19" r="6.21"/><circle class="cls-3" cx="239.35" cy="305.97" r="2.52"/><circle class="cls-3" cx="476.63" cy="152.19" r="6.21"/><circle class="cls-3" cx="568.68" cy="247.75" r="2.27"/><circle class="cls-3" cx="549.9" cy="196.78" r="5.38"/><circle class="cls-3" cx="628.83" cy="306.93" r="3.34"/><circle class="cls-3" cx="683.78" cy="407.18" r="4.81"/><circle class="cls-3" cx="549.9" cy="299.66" r="3.78"/><circle class="cls-3" cx="612.17" cy="350.59" r="4.28"/><circle class="cls-3" cx="667.98" cy="356.53" r="5.95"/></g></g></svg>