<svg xmlns="http://www.w3.org/2000/svg" viewBox="0 0 900 900"><defs><style>.cls-1{fill:#df4949;}.cls-2,.cls-3,.cls-5{fill:#fff;}.cls-2{stroke:#fff;stroke-miterlimit:10;stroke-width:1.96px;opacity:0.46;}.cls-4{fill:#cf8351;}.cls-5{fill-opacity:0.09;}.cls-6{fill:#71461e;}.cls-7{fill:#d8b45e;}</style></defs><title>13</title><g id="Layer_2" data-name="Layer 2"><g id="Milk-cookies"><circle class="cls-1" cx="450" cy="450" r="450"/><path class="cls-2" d="M230.53,278.75l7.35,409.56s10.1,25.71,101,26.63c0,0,73.46,5.51,101.93-19.28L450,278.75S366.43,238.35,230.53,278.75Z"/><path class="cls-3" d="M340.09,298.75h0c-58.15,0-95.39-12.32-96.95-12.84l-10.54-3.55,10.59-3.43c37.19-12,73.39-18.13,107.59-18.13,58.51,0,90.53,17.68,91.87,18.43l8,4.5L441.72,286A413,413,0,0,1,340.09,298.75Zm-82.6-16.53c15.39,3.69,44.65,9.18,82.59,9.18h0a405.13,405.13,0,0,0,89.38-10c-13.31-5.18-40.22-13.23-78.71-13.23C321,268.14,289.71,272.87,257.49,282.22Z"/><path class="cls-3" d="M237,341.2s90.91-35.51,203.86-3.67C440.82,337.52,371,385.27,237,341.2Z"/><path class="cls-3" d="M237,341.2l13.77,323.24s58.77,49.59,172.64,0l17.45-326.92s-45,15.88-104.38,17.75C278.28,357.11,237,341.2,237,341.2Z"/><path class="cls-4" d="M730.12,365.58c0,3.76-1.6,7.75-2,11.39a105,105,0,0,1-1.49,11.36c-.83,3.64-7.59,5.55-8.82,9a91,91,0,0,1-4.55,9.76c-1.62,3.36-1.79,7.14-3.76,10.28s-3,6.8-5.33,9.69-3.6,6.77-6.24,9.4a102.47,102.47,0,0,1-8.67,7.12,100.75,100.75,0,0,1-9.26,6.28c-3.13,2-7.44,1.67-10.79,3.29s-5.15,6.93-8.67,8.16-7.68.54-11.34,1.37-7.73-2.6-11.46-2.18-6.94,5.82-10.71,5.82-7.1-4.89-10.76-5.31-7.44.81-11,0-7.77.16-11.25-1.05-5.82-5.17-9.16-6.79-7.14-2.14-10.27-4.11-8.31-1.35-11.21-3.66-3.88-7-6.5-9.65-4.59-5.82-6.91-8.72-2.87-6.84-4.85-10a95.91,95.91,0,0,1-5.36-9.44c-1.6-3.34-8-4.73-9.25-8.26a105.51,105.51,0,0,1-3.15-11c-.83-3.59,2.46-8,2.06-11.76s-3.81-7.24-3.81-11a105.44,105.44,0,0,1,.53-11.36c.4-3.73,3.85-7,4.66-10.6a100.84,100.84,0,0,1,3.41-10.53c1.23-3.52,3.46-6.45,5.08-9.77s-.62-8.89,1.35-12c1.32-2.09,5.06-2.43,8.1-3.25a29.64,29.64,0,0,0,3.06,8.46,26.74,26.74,0,0,0,23.64,14.26c.79,0,1.58,0,2.36-.11h0l9.54-3.1,4.52-2.55c.62-.46,1.2-.95,1.78-1.46A26.22,26.22,0,0,0,609.69,329c14.26,0,27.9-12.53,27.25-27.25a30.2,30.2,0,0,0-2.06-9.6,29.14,29.14,0,0,0,11.72-9.9,24.68,24.68,0,0,0,4.29-11.43c2.64,1.34,4.87,3.71,7.66,4.68,3.52,1.23,8-.46,11.3,1.14s8.51.28,11.64,2.25,3.78,7.72,6.66,10,6.22,4.06,8.84,6.7,4.38,5.92,6.7,8.82,6.86,4.25,8.84,7.42.83,8,2.44,11.37,5.8,5.59,7,9.11,3.9,6.84,4.73,10.49,2.13,7.51,2.55,11.23A108.51,108.51,0,0,1,730.12,365.58Z"/><path class="cls-5" d="M717.72,367.25c0,3.36-1.42,6.93-1.79,10.2a92,92,0,0,1-1.34,10.18c-.74,3.27-6.8,5-7.89,8.09a82.53,82.53,0,0,1-4.08,8.75c-1.46,3-1.62,6.4-3.39,9.21s-2.69,6.1-4.76,8.68-3.23,6.06-5.59,8.42a93.86,93.86,0,0,1-7.77,6.4,89.07,89.07,0,0,1-8.3,5.61c-2.81,1.78-6.66,1.51-9.67,3s-4.62,6.21-7.77,7.31-6.89.47-10.16,1.21-6.94-2.32-10.28-2-6.21,5.22-9.58,5.22-6.38-4.39-9.65-4.75-6.66.72-9.88,0-6.94.16-10.07-.95-5.22-4.62-8.21-6.06-6.38-1.93-9.19-3.69-7.45-1.21-10.05-3.29-3.48-6.29-5.84-8.65-4.1-5.2-6.17-7.8-2.58-6.13-4.36-8.95a88.76,88.76,0,0,1-4.8-8.46c-1.44-3-7.17-4.25-8.28-7.4a93.52,93.52,0,0,1-2.83-9.88c-.74-3.22,2.21-7.19,1.85-10.53s-3.43-6.5-3.43-9.86a93,93,0,0,1,.47-10.2c.37-3.34,3.45-6.28,4.18-9.49a86.93,86.93,0,0,1,3.06-9.44c1.11-3.15,3.09-5.77,4.54-8.75s-.54-8,1.23-10.78c.7-1.12,2.18-1.69,3.85-2.11a26.74,26.74,0,0,0,23.64,14.26c.79,0,1.58,0,2.36-.11l.46.34,9.08-3.44,4.52-2.55c.62-.46,1.2-.95,1.78-1.46A26.22,26.22,0,0,0,609.69,329c14.26,0,27.9-12.53,27.25-27.25a30.2,30.2,0,0,0-2.06-9.6,29.14,29.14,0,0,0,11.72-9.9c2.43,1.18,4.45,3.36,7,4.27,3.16,1.09,7.15-.42,10.14,1s7.61.25,10.42,2,3.37,6.91,6,9,5.55,3.66,7.91,6,3.92,5.31,6,7.91,6.15,3.81,7.93,6.63.74,7.19,2.18,10.2,5.2,5,6.31,8.17,3.48,6.12,4.24,9.39,1.9,6.73,2.27,10.07A95.64,95.64,0,0,1,717.72,367.25Z"/><polygon class="cls-6" points="596.21 329.33 586.38 336.96 577.78 330.64 577.77 330.64 578.23 330.98 588.08 327.42 591.83 324.99 596.21 329.33"/><polygon class="cls-6" points="652.73 419.58 641.39 430.68 634.08 419.58 641.39 409.28 652.73 419.58"/><polygon class="cls-6" points="642.85 371.66 633.47 369.92 631.64 360.45 642.9 360.49 642.85 371.66"/><polygon class="cls-6" points="596.19 436.28 586.82 434.54 584.98 425.07 596.25 425.11 596.19 436.28"/><polygon class="cls-6" points="696.86 353.29 685.48 361.43 677.98 353.29 685.48 345 696.86 353.29"/><polygon class="cls-6" points="657.89 315.36 646.74 325.7 639.49 315.36 646.74 305.5 657.89 315.36"/><polygon class="cls-6" points="589.08 385.98 575.19 386.91 575.23 372.14 590.62 371.48 589.08 385.98"/><path class="cls-4" d="M687.25,546.78c0,3.76-1.6,7.74-2,11.39a105.16,105.16,0,0,1-1.48,11.34c-.83,3.65-7.6,5.55-8.82,9a91.93,91.93,0,0,1-4.55,9.76c-1.62,3.36-1.8,7.15-3.77,10.28s-3,6.8-5.33,9.7-3.6,6.77-6.23,9.39a101.63,101.63,0,0,1-8.67,7.13,100.46,100.46,0,0,1-9.26,6.27c-3.13,2-7.43,1.67-10.79,3.29s-5.15,6.92-8.68,8.15-7.69.53-11.34,1.36-7.74-2.6-11.46-2.18-6.94,5.83-10.7,5.83-7.11-4.9-10.76-5.3-7.43.8-11,0-7.76.17-11.24-1.05S545.3,636,542,634.39s-7.13-2.15-10.27-4.12-8.31-1.34-11.21-3.65-3.89-7-6.52-9.65-4.58-5.81-6.89-8.72-2.87-6.84-4.85-10a94.12,94.12,0,0,1-5.36-9.44c-1.61-3.33-8-4.73-9.24-8.25a104.49,104.49,0,0,1-3.16-11c-.82-3.59,2.47-8,2.05-11.75s-3.82-7.24-3.82-11a105,105,0,0,1,.53-11.37c.42-3.73,3.85-7,4.67-10.6a96.74,96.74,0,0,1,3.41-10.52c1.23-3.52,3.47-6.45,5.08-9.78s-.62-8.9,1.36-12,9.47-2.31,11.79-5.21a92.38,92.38,0,0,1,7.09-8c2.63-2.63,2.84-7.62,5.75-9.94s5.47-5.16,8.62-7.14,7.21-2.22,10.57-3.84,7.35-1,10.87-2.21,6.51-3,10.16-3.8,6.87-2.47,10.59-2.89,7.21-1.39,11-1.39,7.51-.69,11.16-.28,7.06,2.67,10.65,3.48,6.24,4.22,9.72,5.44,8-.46,11.31,1.15,8.51.28,11.64,2.25,3.77,7.71,6.66,10,6.21,4.07,8.83,6.7,4.38,5.93,6.7,8.83,6.86,4.26,8.85,7.41.83,8,2.45,11.37,5.8,5.59,7,9.12,3.9,6.83,4.72,10.48,2.13,7.51,2.54,11.24A107.57,107.57,0,0,1,687.25,546.78Z"/><path class="cls-5" d="M674.87,548.44c0,3.37-1.43,6.93-1.8,10.21a94.23,94.23,0,0,1-1.33,10.17c-.74,3.27-6.81,5-7.9,8.1a82.38,82.38,0,0,1-4.08,8.74c-1.45,3-1.61,6.41-3.38,9.22s-2.7,6.09-4.78,8.69-3.23,6.06-5.58,8.42a91.07,91.07,0,0,1-7.77,6.39A90,90,0,0,1,630,624c-2.81,1.77-6.66,1.5-9.67,3s-4.62,6.2-7.77,7.31-6.89.48-10.16,1.22-6.93-2.33-10.27-2-6.22,5.22-9.59,5.22-6.37-4.39-9.64-4.75-6.66.72-9.88,0-7,.15-10.07-.94-5.22-4.64-8.21-6.08-6.39-1.92-9.2-3.69-7.45-1.2-10-3.27-3.49-6.3-5.84-8.65-4.1-5.21-6.18-7.81-2.57-6.13-4.35-9a84.34,84.34,0,0,1-4.8-8.46c-1.44-3-7.18-4.24-8.28-7.4a93.63,93.63,0,0,1-2.83-9.88c-.73-3.22,2.21-7.19,1.84-10.53s-3.42-6.49-3.42-9.86a94.11,94.11,0,0,1,.47-10.19c.37-3.34,3.45-6.28,4.19-9.5a86.69,86.69,0,0,1,3.05-9.42c1.11-3.16,3.11-5.78,4.55-8.76s-.55-8,1.22-10.78,8.49-2.07,10.56-4.67a82.79,82.79,0,0,1,6.35-7.19c2.35-2.35,2.55-6.83,5.15-8.91s4.9-4.62,7.72-6.4,6.47-2,9.47-3.44,6.58-.87,9.74-2,5.84-2.66,9.11-3.4,6.15-2.21,9.49-2.59,6.46-1.24,9.83-1.24,6.73-.62,10-.25,6.33,2.39,9.54,3.12,5.59,3.78,8.71,4.87,7.15-.41,10.13,1,7.63.25,10.43,2,3.37,6.91,6,9,5.56,3.65,7.92,6,3.92,5.31,6,7.92,6.15,3.81,7.93,6.64.74,7.18,2.19,10.19,5.19,5,6.3,8.17,3.49,6.12,4.23,9.39,1.91,6.73,2.28,10.07A96.4,96.4,0,0,1,674.87,548.44Z"/><polygon class="cls-6" points="553.34 510.53 543.51 518.16 533.15 510.53 543.51 500.79 553.34 510.53"/><polygon class="cls-6" points="609.87 600.77 598.53 611.87 591.22 600.77 598.53 590.47 609.87 600.77"/><polygon class="cls-6" points="599.99 552.85 590.61 551.11 588.78 541.64 600.04 541.68 599.99 552.85"/><polygon class="cls-6" points="553.33 617.47 543.96 615.73 542.12 606.26 553.39 606.3 553.33 617.47"/><polygon class="cls-6" points="653.99 534.48 642.62 542.62 635.12 534.48 642.62 526.19 653.99 534.48"/><polygon class="cls-6" points="615.03 496.55 603.88 506.9 596.63 496.55 603.88 486.69 615.03 496.55"/><polygon class="cls-6" points="546.22 567.18 532.33 568.1 532.37 553.34 547.75 552.67 546.22 567.18"/><path class="cls-4" d="M837.15,496c0,3.76-1.6,7.74-2,11.39a105.16,105.16,0,0,1-1.48,11.34c-.83,3.65-7.6,5.55-8.82,9a91.93,91.93,0,0,1-4.55,9.76c-1.62,3.36-1.8,7.15-3.77,10.28s-3,6.8-5.33,9.7-3.6,6.77-6.23,9.39a101.63,101.63,0,0,1-8.67,7.13,100.46,100.46,0,0,1-9.26,6.27c-3.13,2-7.43,1.67-10.79,3.29s-5.15,6.92-8.68,8.15-7.69.53-11.34,1.36-7.74-2.6-11.46-2.18-6.94,5.83-10.7,5.83-7.11-4.9-10.76-5.3-7.43.8-11,0-7.76.17-11.24-1.05-5.83-5.17-9.16-6.78-7.13-2.15-10.27-4.12-8.31-1.34-11.21-3.65-3.89-7-6.52-9.65-4.58-5.81-6.89-8.72-2.87-6.84-4.85-10a94.12,94.12,0,0,1-5.36-9.44c-1.61-3.33-8-4.73-9.24-8.25a104.49,104.49,0,0,1-3.16-11c-.82-3.59,2.47-8,2.05-11.75s-3.82-7.24-3.82-11a105,105,0,0,1,.53-11.37c.42-3.73,3.85-7,4.67-10.6a96.74,96.74,0,0,1,3.41-10.52c1.23-3.52,3.47-6.45,5.08-9.78s-.62-8.9,1.36-12,9.47-2.31,11.79-5.21a92.38,92.38,0,0,1,7.09-8c2.63-2.63,2.84-7.62,5.75-9.94s5.47-5.16,8.62-7.14,7.21-2.22,10.57-3.84,7.35-1,10.87-2.21,6.51-3,10.16-3.8,6.87-2.47,10.59-2.89,7.21-1.39,11-1.39,7.51-.69,11.16-.28,7.06,2.67,10.65,3.48,6.24,4.22,9.72,5.44,8-.46,11.31,1.15,8.51.28,11.64,2.25,3.77,7.71,6.66,10,6.21,4.07,8.83,6.7,4.38,5.93,6.7,8.83,6.86,4.26,8.85,7.41.83,8,2.45,11.37,5.8,5.59,7,9.12,3.9,6.83,4.72,10.48,2.13,7.51,2.54,11.24A107.57,107.57,0,0,1,837.15,496Z"/><path class="cls-5" d="M824.77,497.65c0,3.37-1.43,6.93-1.8,10.21A94.23,94.23,0,0,1,821.64,518c-.74,3.27-6.81,5-7.9,8.1a82.38,82.38,0,0,1-4.08,8.74c-1.45,3-1.61,6.41-3.38,9.22s-2.7,6.09-4.78,8.69-3.23,6.06-5.58,8.42a91.07,91.07,0,0,1-7.77,6.39,90,90,0,0,1-8.3,5.62c-2.81,1.77-6.66,1.5-9.67,3s-4.62,6.2-7.77,7.31-6.89.48-10.16,1.22-6.93-2.33-10.27-2-6.22,5.22-9.59,5.22-6.37-4.39-9.64-4.75-6.66.72-9.88,0-7,.15-10.07-.94-5.22-4.64-8.21-6.08-6.39-1.92-9.2-3.69-7.45-1.2-10-3.27-3.49-6.3-5.84-8.65-4.1-5.21-6.18-7.81-2.57-6.13-4.35-9a84.34,84.34,0,0,1-4.8-8.46c-1.44-3-7.18-4.24-8.28-7.4a93.63,93.63,0,0,1-2.83-9.88c-.73-3.22,2.21-7.19,1.84-10.53s-3.42-6.49-3.42-9.86a94.11,94.11,0,0,1,.47-10.19c.37-3.34,3.45-6.28,4.19-9.5a86.69,86.69,0,0,1,3.05-9.42c1.11-3.16,3.11-5.78,4.55-8.76s-.55-8,1.22-10.78,8.49-2.07,10.56-4.67a82.79,82.79,0,0,1,6.35-7.19c2.35-2.35,2.55-6.83,5.15-8.91s4.9-4.62,7.72-6.4,6.47-2,9.47-3.44,6.58-.87,9.74-2,5.84-2.66,9.11-3.4,6.15-2.21,9.49-2.59,6.46-1.24,9.83-1.24,6.73-.62,10-.25,6.33,2.39,9.54,3.12,5.59,3.78,8.71,4.87,7.15-.41,10.13,1,7.63.25,10.43,2,3.37,6.91,6,9,5.56,3.65,7.92,6,3.92,5.31,6,7.92,6.15,3.81,7.93,6.64.74,7.18,2.19,10.19,5.19,5,6.3,8.17,3.49,6.12,4.23,9.39,1.91,6.73,2.28,10.07A96.4,96.4,0,0,1,824.77,497.65Z"/><polygon class="cls-6" points="703.24 459.74 693.41 467.37 683.04 459.74 693.41 450 703.24 459.74"/><polygon class="cls-6" points="759.77 549.98 748.43 561.08 741.12 549.98 748.43 539.68 759.77 549.98"/><polygon class="cls-6" points="749.88 502.06 740.51 500.32 738.67 490.85 749.94 490.89 749.88 502.06"/><polygon class="cls-6" points="703.23 566.68 693.85 564.94 692.02 555.47 703.28 555.51 703.23 566.68"/><polygon class="cls-6" points="803.89 483.69 792.52 491.83 785.01 483.69 792.52 475.4 803.89 483.69"/><polygon class="cls-6" points="764.93 445.76 753.77 456.11 746.52 445.76 753.77 435.9 764.93 445.76"/><polygon class="cls-6" points="696.11 516.39 682.22 517.31 682.27 502.54 697.65 501.88 696.11 516.39"/><path class="cls-7" d="M591.83,325a27.82,27.82,0,0,1-14,5.64h0l.46.34,9.85-3.56Z"/></g></g></svg>