<svg xmlns="http://www.w3.org/2000/svg" viewBox="0 0 900 900"><defs><style>.cls-1{fill:#df4949;}.cls-2{fill:#fff;opacity:0.32;}.cls-3{fill:#efefef;}</style></defs><title>14</title><g id="Layer_2" data-name="Layer 2"><g id="Snowflacks"><circle class="cls-1" cx="450" cy="450" r="450"/><path class="cls-2" d="M533.34,159.86l-6.83,17.41a28,28,0,0,0-21.11.71c-10.18,4.29-16.46,14.64-16.46,25.57a28.45,28.45,0,0,0,2.12,10.74l11,25.23c-3.33,8.5-13.87,35.36-23.06,58.83l-12.21-11.18c-8.32-7.62-16.77-9.1-23-8.82-8.81,0-17.81,4.27-24.08,11.36l-6.3,7c-10.11-23.1-20.69-47.32-24.22-55.4l9.94-25.25a27.77,27.77,0,0,0,1.93-10.15,28.13,28.13,0,0,0-17.8-26.14,27.69,27.69,0,0,0-20.75.38l-7.52-17.34a28.34,28.34,0,0,0-36.76-14.56,28,28,0,0,0-14.6,37.06s4,9.17,7.5,17.1a27.75,27.75,0,0,0-16.4,25.32,28.09,28.09,0,0,0,17.76,26.11l25.46,10L363.43,322l-16.56.73c-11.27.42-18.23,5.38-22.42,10a32.39,32.39,0,0,0-9.07,22.87c0,.68,0,1.37.06,2.07,0,0,.31,5.9.51,9.4l-55.82-21.89-10.93-25a27.86,27.86,0,0,0-51.41.58l-17.39-6.83a27.73,27.73,0,0,0-21.34.43,28,28,0,0,0,.83,51.73l17.58,6.9a27.83,27.83,0,0,0-2,9.67,27.93,27.93,0,0,0,39.27,25.47l24.74-10.81,58.94,23.11L287.23,432.7c-5.95,6.63-8.9,13.82-8.9,21.5,0,.47.06.94.08,1.41,0,.08,0,.16,0,.24s0,.06,0,.1c0,.56,0,1.13.1,1.69-.06-.56-.08-1.13-.1-1.68,0,8.46,4.07,17.2,11,23.53l7.27,6.52-54.83,23.92-25.41-10a27.86,27.86,0,0,0-36,36.81l-17,7.44a27.86,27.86,0,0,0-14.36,37,28,28,0,0,0,36.84,14.2l16.94-7.4a27.89,27.89,0,0,0,51.36-1.42s6.51-16.59,9.9-25.26L322,536c.35,7.81.73,16.56.73,16.56.61,11.25,5.34,18.06,9.78,22.19,6,6.27,15.27,9.79,24.86,9.36l9.76-.53-22.06,56.26-24.8,10.77a28.53,28.53,0,0,0-16.82,26A27,27,0,0,0,320.77,702l-6.89,17.56a28.07,28.07,0,0,0,15.86,36.36A28,28,0,0,0,366,739.94l6.85-17.48a27.83,27.83,0,0,0,20.72-.24,28.58,28.58,0,0,0,17-26,27.59,27.59,0,0,0-2.21-10.84l-11-25.2c3.34-8.52,13.93-35.53,23.16-59.06l12.2,11.19c8.56,7.63,16.81,9.12,22.9,8.83.16,0,.31,0,.47,0,.6,0,1.26,0,1.81-.11-.6.07-1.2.1-1.81.11A32.71,32.71,0,0,0,479.59,610l6.45-7.19L510,657.67c-3.41,8.69-10,25.46-10,25.46a27.59,27.59,0,0,0-1.92,10.13,27.93,27.93,0,0,0,38.74,25.81l7.46,17.06A27.49,27.49,0,0,0,559.56,751a28,28,0,0,0,36-37.23l-7.55-17.29a27.09,27.09,0,0,0,16.31-25,28,28,0,0,0-17.76-26.09l-25.22-9.89c-3.64-8.36-15.21-34.9-25.31-58l16.46-.7c11.73-.73,18.59-5.68,22.63-10.18a33.5,33.5,0,0,0,9.06-23.2c0-.36,0-.72,0-1.07,0,0-.34-6.19-.55-10.06l56.24,22,10.84,24.85a27.88,27.88,0,0,0,36.91,14.42A27.13,27.13,0,0,0,702,578.67l17.62,6.91a28,28,0,0,0,20.5-52.16l-17.51-6.87a26.89,26.89,0,0,0-.48-20.87,27.91,27.91,0,0,0-36.9-14.47l-25,10.89-59-23.16,11.07-12.08c7.15-7.92,9-15.75,9-21.74,0-.46,0-.83-.07-1.26,0,0,0-.17,0-.19,0-.65,0-1.33-.11-1.92a17,17,0,0,1,.11,1.91c0-8.65-4.22-17.52-11.28-23.79l-7.09-6.4,55.4-24.14,25.19,9.88a27.78,27.78,0,0,0,36.12-36.64L736.67,355a28.26,28.26,0,0,0,16.76-25.82,27.94,27.94,0,0,0-2.25-11,28.34,28.34,0,0,0-36.71-14.72l-17.64,7.74a27.61,27.61,0,0,0-14.91-14.55,28.08,28.08,0,0,0-36.34,15.87l-9.94,25.35-58.17,25.43c-.34-7.79-.71-16.51-.71-16.51-.65-11.39-5.43-18.19-9.94-22.3-6.09-6.21-15.36-9.67-24.91-9.17l-9.61.5L554.21,260l25-10.79A28.69,28.69,0,0,0,596,223.35a27.11,27.11,0,0,0-2.4-11.19,27.42,27.42,0,0,0-14.95-14.46l6.83-17.41a27.89,27.89,0,0,0-15.9-36.17A28,28,0,0,0,533.34,159.86Zm-87,188.31,9.69,8.92c-2.08,5.29-3.92,9.95-7.67,19.53-4.43-10.15-6.71-15.38-9-20.64Zm-57.67,31.6c2.26,5.18,4.27,9.76,8.36,19.13l-20.94-8.22c-.24-4.27-.29-5.23-.58-10.38Zm130.47-4.34c.28,6.43.32,7.83.55,13.21L500.5,397c4-10.32,6.13-15.65,8.23-21Zm-162,68,19.51,7.65-20.67,9-7.8-7Zm186.42-4.11,7.82,7-8.88,9.61L523,448.27Zm77.61,4.54v0ZM399,502.39l-8.28,21.1-10.42.56c-.26-6.45-.32-7.87-.54-13.25Zm103.45-1.95,21,8.22c.25,4.3.3,5.28.6,10.48l-13.17.56Zm-51.33,22.45,9,20.7-7,7.79-9.71-9Zm4,98.2h0Z"/><path class="cls-3" d="M733.33,550.59l-47.6-18.66,14.49-6.28a9.56,9.56,0,0,0-7.58-17.54l-32.06,14-91.2-35.76,29.25-31.9c2.73-3,4.53-6.43,4-10.54,0-3.54-2.09-7.53-5.09-10.19L569.12,408l88.64-38.63L690.07,382a9.56,9.56,0,1,0,7-17.81l-14.52-5.68,46.76-20.39a9.59,9.59,0,0,0-7.69-17.58L674.72,341.1l5.82-14.8a9.55,9.55,0,1,0-17.77-7L650,351.78,560.2,391.06l-1.86-43.42c-.23-3.9-1.37-7.64-4.59-10.17-2.44-2.54-6.84-3.88-10.85-3.66l-38.22,2,35.16-89.69,32-13.84a9.55,9.55,0,0,0,4.91-12.53,9.33,9.33,0,0,0-12.58-4.93l-14.53,6.24,18.63-47.5a9.54,9.54,0,0,0-17.76-7L531.92,214l-6.26-14.31a9.37,9.37,0,0,0-12.61-4.94,9.55,9.55,0,0,0-4.91,12.53l13.94,31.83-35.68,91-32-29.33c-2.93-2.68-6.4-4.41-10.44-4-3.64,0-7.64,2.13-10.31,5.14l-25.53,28.44L369.29,241.7,382,209.32a9.57,9.57,0,0,0-17.82-7L358.47,217l-20.32-46.79a9.58,9.58,0,0,0-17.54,7.68l20.52,46.82-14.79-5.8a9.57,9.57,0,0,0-7,17.81l32.56,12.76,39.2,89.83-43.42,1.92c-3.93.14-7.63,1.32-10.2,4.53-2.56,2.49-3.87,6.8-3.63,10.89l2,38.13L246.27,359.6l-14-32a9.46,9.46,0,0,0-12.53-4.91,9.57,9.57,0,0,0-5,12.63l6.33,14.46-47.46-18.62a9.58,9.58,0,0,0-12.35,5.53,9.46,9.46,0,0,0,5.37,12.29L214,367.51l-14.32,6.22a9.57,9.57,0,0,0-5,12.63,9.43,9.43,0,0,0,12.55,4.91l31.83-13.93,91.08,35.72-29.37,32.08c-2.67,3-4.45,6.28-4,10.43-.12,3.57,2.05,7.58,5,10.29l28.47,25.57L242.22,529.9l-32.54-12.76a9.63,9.63,0,0,0-12.41,5.41,9.5,9.5,0,0,0,5.46,12.34l14.77,5.79-46.76,20.44a9.52,9.52,0,0,0,7.61,17.45l46.6-20.37-5.77,14.68a9.55,9.55,0,0,0,17.78,7l12.69-32.36,89.64-39.15,1.93,43.42c.22,4,1.37,7.67,4.54,10.2,2.48,2.62,6.89,3.9,10.83,3.73l38.25-2.07L359.5,653.75l-31.83,13.82a9.6,9.6,0,1,0,7.63,17.62l14.37-6.38-18.6,47.45a9.54,9.54,0,1,0,17.76,7l18.65-47.55,6.34,14.61a9.62,9.62,0,0,0,12.58,4.94,9.75,9.75,0,0,0,5-12.69l-14-32L413.1,569.3l32,29.37c2.93,2.62,6.33,4.48,10.42,4,3.59.08,7.62-2,10.3-5l25.64-28.55L530,657.3l-12.77,32.56a9.56,9.56,0,0,0,17.8,7l5.8-14.8,20.4,46.71a9.4,9.4,0,0,0,12.58,4.93,9.54,9.54,0,0,0,4.92-12.55l-20.33-46.59,14.58,5.72a9.49,9.49,0,1,0,6.93-17.68l-32.32-12.68-39.13-89.74,43.37-1.81c4-.25,7.65-1.37,10.19-4.54,2.63-2.62,3.92-7,3.8-10.92l-2.08-38.27,90.07,35.33,13.9,31.85a9.43,9.43,0,0,0,12.55,4.92,9.56,9.56,0,0,0,5-12.63L678.9,549.8l47.43,18.6a9.48,9.48,0,0,0,12.34-5.34A9.59,9.59,0,0,0,733.33,550.59ZM577.62,445.05l-30.15,32.66L474.7,449.17,547,417.67ZM536.8,355.93l1.86,44.57-71.6,31.23,28.8-73.47Zm-91.73-34,32.73,30.15-28.55,72.8-31.57-72.37Zm-89,40.71,44.48-1.81,31.28,71.54-73.47-28.8Zm-34.14,91.79,30.18-32.77,72.73,28.51-72.34,31.61Zm40.75,89.09-1.81-44.56,71.65-31.31L403.6,541.29Zm91.8,34.16L421.7,547.41l28.55-72.81,31.55,72.48Zm89.09-40.89L499,538.69,467.72,467l73.49,28.82Z"/></g></g></svg>