<svg xmlns="http://www.w3.org/2000/svg" viewBox="0 0 900 900"><defs><style>.cls-1{fill:#2f373a;}.cls-2{fill:#f9ee9c;}.cls-3{fill:#f5e283;}.cls-4{fill:#d8b45e;}</style></defs><title>15</title><g id="Layer_2" data-name="Layer 2"><g id="star"><circle class="cls-1" cx="450" cy="450" r="450"/><polygon class="cls-2" points="358.04 345.33 457.62 143.52 459.04 481.9 358.04 345.33"/><polygon class="cls-2" points="135.35 377.69 358.04 345.33 459.04 481.9 135.35 377.69"/><polygon class="cls-3" points="296.5 534.73 135.35 377.69 459.04 481.9 296.5 534.73"/><polygon class="cls-2" points="258.46 756.48 296.5 534.73 459.04 478.9 258.46 756.48"/><polygon class="cls-4" points="457.62 651.82 258.46 756.48 459.04 478.9 457.62 651.82"/><polygon class="cls-3" points="656.18 753.01 656.77 756.48 457.62 651.82 459.04 475.93 656.18 753.01"/><polygon class="cls-4" points="618.73 534.73 656.18 753.01 459.04 478.9 618.73 534.73"/><polygon class="cls-3" points="779.88 377.69 618.73 534.73 459.04 478.9 779.88 377.69"/><polygon class="cls-2" points="557.19 345.33 779.88 377.69 459.04 478.9 557.19 345.33"/><polygon class="cls-4" points="457.62 145.02 557.19 346.83 459.04 480.4 457.62 145.02"/></g></g></svg>