<svg xmlns="http://www.w3.org/2000/svg" viewBox="0 0 900 900"><defs><style>.cls-1{fill:#d8b45e;}.cls-2{fill:#f2f2f2;}.cls-3{fill:#e7e8e7;}.cls-4{fill:#c44;}.cls-5{fill:#8b4930;}.cls-6{fill:#df4949;}.cls-7{fill:#eef7fd;}</style></defs><title>16</title><g id="Layer_2" data-name="Layer 2"><g id="pattini"><circle class="cls-1" cx="450" cy="450" r="450"/><rect class="cls-2" x="473.9" y="523.96" width="32.21" height="108.7"/><rect class="cls-3" x="248.45" y="509.31" width="32.21" height="123.35"/><path class="cls-4" d="M354.76,343.16l-.63,1.49c-1.56,3.72-16,36.45-41.12,40.29l-16.3,1.7c-23.65,2-56.06,4.73-80.67,23.9-23.95,18.6-23.95,28.74-23.95,55.83,0,23,23,55.17,60.51,55.17h233c42.69,0,68.82-44.35,68.82-68.5V200.26l-199.66-.75Z"/><path class="cls-3" d="M377.28,125.41a56.36,56.36,0,1,0,0,112.72h161a56.36,56.36,0,1,0,0-112.72Z"/><path class="cls-3" d="M586.63,632.66H209.2c-1.18,0-29.14-.1-57.53-8.75-41.43-12.63-64.25-38.11-64.25-71.76a16.1,16.1,0,0,1,32.21,0c0,47,88.68,48.31,89.58,48.31H586.63a16.1,16.1,0,0,1,0,32.21Z"/><path class="cls-5" d="M404.14,290.46H345.08a12.08,12.08,0,0,1,0-24.15h59.07a12.08,12.08,0,0,1,0,24.15Z"/><path class="cls-5" d="M404.14,354.88H345.08a12.08,12.08,0,0,1,0-24.15h59.07a12.08,12.08,0,1,1,0,24.15Z"/><rect class="cls-2" x="655.46" y="612.53" width="32.21" height="108.7"/><rect class="cls-2" x="430.01" y="597.88" width="32.21" height="123.35"/><path class="cls-6" d="M536.32,431.73l-.63,1.49c-1.56,3.72-16,36.45-41.12,40.29l-16.3,1.7c-23.65,2-56.06,4.73-80.67,23.9-23.95,18.6-23.95,28.74-23.95,55.83,0,23,23,55.17,60.51,55.17h233c42.69,0,68.82-44.35,68.82-68.5V288.83l-199.66-.75Z"/><path class="cls-7" d="M558.84,214a56.36,56.36,0,0,0,0,112.72h161a56.36,56.36,0,1,0,0-112.72Z"/><path class="cls-2" d="M768.19,721.23H390.76c-1.18,0-29.14-.1-57.53-8.75C291.8,699.85,269,674.37,269,640.72a16.1,16.1,0,1,1,32.21,0c0,47,88.68,48.31,89.58,48.31H768.19a16.1,16.1,0,0,1,0,32.21Z"/><path class="cls-5" d="M585.7,379H526.64a12.08,12.08,0,0,1,0-24.15H585.7a12.08,12.08,0,1,1,0,24.15Z"/><path class="cls-5" d="M585.7,443.45H526.64a12.08,12.08,0,0,1,0-24.15H585.7a12.08,12.08,0,1,1,0,24.15Z"/></g></g></svg>