<svg xmlns="http://www.w3.org/2000/svg" viewBox="0 0 900 900"><defs><style>.cls-1{fill:#d8b45e;}.cls-2{fill:#fff;}.cls-3{fill:#df4949;}.cls-4{fill:#f9ee9c;}</style></defs><title>17</title><g id="Layer_2" data-name="Layer 2"><g id="zucchero"><circle class="cls-1" cx="450" cy="450" r="450"/><path class="cls-2" d="M617.41,343.91s-6.83,30.62-16,71.82c-5.85,26.21-12.65,56.72-19.27,86.41-8.2,36.8-16.13,72.34-21.6,96.86-4.46,20-7.3,32.71-7.3,32.71-3,13.4-22.62,157.35-38.5,175.18-9.14,10.28-32,23-45.49,20-27.79-6.29-44.86-37.47-38.69-65.18,0,0,14.05-71.85,30.79-157.52,6.14-31.35,12.63-64.54,18.93-96.75,6.06-31,11.92-61,17.12-87.57,9.69-49.51,17-87.1,18.86-96.48.3-1.49.45-2.27.45-2.27A93.74,93.74,0,0,0,515,272.91a81,81,0,0,0-8.84-19.25c-6.59-10.41-18.65-23.76-38.62-28.31-19.63-4.39-36,2.15-46.41,8.61l-.59.37c-1,.62-1.93,1.26-2.88,1.93-17.49,12.18-30.26,31.86-35.3,54.51a51.37,51.37,0,0,1-61.55,38.85A51.75,51.75,0,0,1,281.65,268a198.41,198.41,0,0,1,14.63-42.4,191.17,191.17,0,0,1,52.83-67,176,176,0,0,1,16-11.41c37-23.34,79.94-31.48,121.27-23.07l3.54.77a163.52,163.52,0,0,1,88.1,53.35,174.9,174.9,0,0,1,15.23,20.56c22.24,35.1,32,77.92,28,120.45A197,197,0,0,1,617.41,343.91Z"/><path class="cls-3" d="M582.13,502.14l-101.86,5.28c-6.29,32.2-12.79,65.4-18.93,96.75L560.53,599Z"/><path class="cls-3" d="M550.16,663.83,448.3,669.11c-6.29,32.2-12.79,65.4-18.93,96.75L530.9,761Z"/><path class="cls-3" d="M617.41,343.91s-6.83,30.62-16,71.82l-104,4.13c9.69-49.51,17-87.1,18.86-96.48l105.06-4.17A197,197,0,0,1,617.41,343.91Z"/><path class="cls-3" d="M578.06,178.2l-63,94.71a81,81,0,0,0-8.84-19.25c-6.59-10.41-18.65-23.76-38.62-28.31-19.63-4.39-36,2.15-46.41,8.61l65.26-109.88,3.54.77A163.52,163.52,0,0,1,578.06,178.2Z"/><path class="cls-3" d="M382.38,290.77a50.81,50.81,0,0,1-10,21l-76.05-86.15a191.17,191.17,0,0,1,52.83-67l68.57,77.69C400.19,248.43,387.43,268.11,382.38,290.77Z"/><path class="cls-4" d="M195.23,349.68c-51.8,2.52-53.84,4.57-56.37,56.37-2.52-51.8-4.57-53.84-56.37-56.37,51.8-2.52,53.84-4.57,56.37-56.37C141.39,345.11,143.44,347.15,195.23,349.68Z"/><path class="cls-4" d="M377.26,494.81c-51.8,2.52-53.84,4.57-56.37,56.37-2.52-51.8-4.57-53.84-56.37-56.37,51.8-2.52,53.84-4.57,56.37-56.37C323.42,490.24,325.46,492.29,377.26,494.81Z"/><path class="cls-4" d="M316.32,669.42c-51.8,2.52-53.84,4.57-56.37,56.37-2.52-51.8-4.57-53.84-56.37-56.37,51.8-2.52,53.84-4.57,56.37-56.37C262.48,664.85,264.53,666.9,316.32,669.42Z"/><path class="cls-4" d="M820.1,311.73c-51.8,2.52-53.84,4.57-56.37,56.37-2.52-51.8-4.57-53.84-56.37-56.37,51.8-2.52,53.84-4.57,56.37-56.37C766.25,307.16,768.3,309.2,820.1,311.73Z"/><path class="cls-4" d="M765.37,583.63c-51.8,2.52-53.84,4.57-56.37,56.37-2.52-51.8-4.57-53.84-56.37-56.37,51.8-2.52,53.84-4.57,56.37-56.37C711.53,579.06,713.57,581.1,765.37,583.63Z"/></g></g></svg>