<svg xmlns="http://www.w3.org/2000/svg" viewBox="0 0 900 900"><defs><style>.cls-1{fill:#2f373a;}.cls-2{fill:#9ca30c;}.cls-3{fill:#99990d;}.cls-4{fill:#df4949;}.cls-5{fill:#a5b50b;}.cls-6{fill:#fff;}.cls-7{fill:#f9ee9c;}.cls-8{fill:none;stroke:#2b7f27;}.cls-8,.cls-9{stroke-width:10.39px;}.cls-9{fill:#84ab1c;stroke:#308a2c;}</style></defs><title>18</title><g id="Layer_2" data-name="Layer 2"><g id="musk"><circle class="cls-1" cx="450" cy="450" r="450"/><path class="cls-2" d="M804.1,507c.17-.5.32-1,.49-1.51a114.41,114.41,0,0,1,6.9-16.9s-1.7.18-4.77.18c-19,0-90.43-6.55-141.2-100.49,0,0-49.1,30.23-101.76,30.23-22.33,0-45.28-5.43-65.42-20.9,0,0,10.38,7.9,17.37,30.57,3.54,11.5,6.23,26.81,6.23,46.83,0,21.08-2.94,47.39-10.94,80a158.41,158.41,0,0,1,17.85,3.9h0c31.83,8.65,95.59,34.26,101.41,101.59,0,.28,0,.56.06.85q.36,4.42.36,9.08,0,4.48-.32,9.18s6.62-2.22,17.55-5.09l1-.26c19.77-5.13,52.81-12.1,86.23-12.1,19,0,38,2.24,54.88,8.33,1.84.67,3.67,1.38,5.47,2.15a89.51,89.51,0,0,1,16,8.75S796,625.85,796,568.61C796.07,547.41,798.23,526,804.1,507Z"/><path class="cls-3" d="M554.17,356.31c-10.61-41.48-17.87-95.64-.69-138.16,0,0-109.18-17.14-127.86-68.17a103.69,103.69,0,0,1-14.08,4.45c-25.27,6.46-84.14,15.29-173-8.13,0,0,1.68,6.72,3.65,17.9q.17,1,.34,2c4.8,28.08,10.83,81.18-1.1,128A167.06,167.06,0,0,1,236,311.62c5.67,1.73,11.54,3.44,17.52,5.19h0c50.44,14.77,108.75,32.6,124.13,92.7a122.39,122.39,0,0,1,3.2,18.56q.14,1.4.24,2.81a159.71,159.71,0,0,1,.31,18.26s38.28-25.26,86.29-37.45c26.73-6.79,56.47-9.53,84.31-1.59,2.34.67,4.67,1.41,7,2.23a108.53,108.53,0,0,1,16.64,7.51A434.89,434.89,0,0,1,554.17,356.31Z"/><path class="cls-4" d="M469,372.2a65.07,65.07,0,1,0,65.07-65.07A65.14,65.14,0,0,0,469,372.2Z"/><path class="cls-5" d="M532.27,396c-22.64,13.83-74.48,30.34-170.37-11,0,0-35.32,86.71-117.37,135.42a235.63,235.63,0,0,1-24.39,12.63s-1,77.36-45,138.16q-2.26,3.13-4.67,6.18a174.4,174.4,0,0,1-12,13.74s6.8-.85,18.19-1.68c2.46-.18,5.14-.36,8-.53,42.09-2.47,125.6-2.82,180.63,26.81l.17.09a129.58,129.58,0,0,1,15.45,9.75s54.7-125.22,108.6-168.89c0,0,8.38-80.92,56.93-172.19C546.45,384.5,542.13,390,532.27,396Z"/><path class="cls-4" d="M385.13,453.07a70.72,70.72,0,1,0,70.7-70.7A70.79,70.79,0,0,0,385.13,453.07Z"/><path class="cls-4" d="M546.45,460a61.75,61.75,0,1,0,61.79-61.71A61.84,61.84,0,0,0,546.45,460Z"/><path class="cls-6" d="M509.7,453.93a23.62,23.62,0,1,1-23.62-23.61A23.64,23.64,0,0,1,509.7,453.93Z"/><path class="cls-6" d="M604.56,460a20.69,20.69,0,1,1-20.69-20.69A20.7,20.7,0,0,1,604.56,460Z"/><path class="cls-6" d="M563.18,402.48a22.76,22.76,0,1,1-22.76-22.76A22.76,22.76,0,0,1,563.18,402.48Z"/><path class="cls-7" d="M195.23,349.68c-51.8,2.52-53.84,4.57-56.37,56.37-2.52-51.8-4.57-53.84-56.37-56.37,51.8-2.52,53.84-4.57,56.37-56.37C141.39,345.11,143.44,347.15,195.23,349.68Z"/><path class="cls-7" d="M532.26,671.45c-34.91,1.7-36.29,3.08-38,38-1.7-34.91-3.08-36.29-38-38,34.91-1.7,36.29-3.08,38-38C496,668.37,497.35,669.75,532.26,671.45Z"/><path class="cls-7" d="M435.79,814.36c-25.9,1.26-26.92,2.29-28.18,28.18-1.26-25.9-2.29-26.92-28.18-28.18,25.9-1.26,26.92-2.29,28.18-28.18C408.87,812.08,409.9,813.1,435.79,814.36Z"/><path class="cls-7" d="M820.1,311.73c-51.8,2.52-53.84,4.57-56.37,56.37-2.52-51.8-4.57-53.84-56.37-56.37,51.8-2.52,53.84-4.57,56.37-56.37C766.25,307.16,768.3,309.2,820.1,311.73Z"/><path class="cls-7" d="M676.84,166.49c-34.34,1.67-35.69,3-37.37,37.37-1.67-34.34-3-35.69-37.37-37.37,34.34-1.67,35.69-3,37.37-37.37C641.15,163.46,642.51,164.81,676.84,166.49Z"/><path class="cls-7" d="M494.24,63.87c-39.46,1.92-41,3.48-42.94,42.94-1.92-39.46-3.48-41-42.94-42.94,39.46-1.92,41-3.48,42.94-42.94C453.22,60.39,454.78,61.94,494.24,63.87Z"/><path class="cls-8" d="M563.85,725.57"/><path class="cls-8" d="M533.28,408.26"/><path class="cls-9" d="M781.49,533.8"/><path class="cls-9" d="M591.39,331.53"/><path class="cls-9" d="M248.79,546"/><path class="cls-9" d="M504.2,315.16"/></g></g></svg>