<svg xmlns="http://www.w3.org/2000/svg" viewBox="0 0 900 900"><defs><style>.cls-1{fill:#2f373a;}.cls-2{fill:none;stroke:#2b7f27;}.cls-2,.cls-3{stroke-width:10.39px;}.cls-3{fill:#84ab1c;stroke:#308a2c;}.cls-4{fill:#f2f0f2;}.cls-5{fill:#df4949;}.cls-6{fill:#f9ee9c;}</style></defs><title>19</title><g id="Layer_2" data-name="Layer 2"><g id="champagne"><circle class="cls-1" cx="450" cy="450" r="450"/><path class="cls-2" d="M563.85,725.57"/><path class="cls-2" d="M533.28,408.26"/><path class="cls-3" d="M781.49,533.8"/><path class="cls-3" d="M591.39,331.53"/><path class="cls-3" d="M248.79,546"/><path class="cls-3" d="M504.2,315.16"/><path class="cls-4" d="M382,294V67.82h6a5.28,5.28,0,0,0,5.27-5.27V53.26A5.28,5.28,0,0,0,388,48H316.34a5.28,5.28,0,0,0-5.27,5.27v9.29a5.28,5.28,0,0,0,5.27,5.27h6V294a85.27,85.27,0,0,0-55.12,79.5v405.4a36.77,36.77,0,0,0,36.66,36.66h96.61a36.77,36.77,0,0,0,36.66-36.66V373.48A85.27,85.27,0,0,0,382,294Z"/><rect class="cls-5" x="267.19" y="427.08" width="169.92" height="169.92"/><rect class="cls-5" x="322.31" y="69.6" width="59.68" height="63.97"/><path class="cls-4" d="M518.82,507.61H594.9a0,0,0,0,1,0,0V643.56a21.64,21.64,0,0,1-21.64,21.64h-32.8a21.64,21.64,0,0,1-21.64-21.64V507.61A0,0,0,0,1,518.82,507.61Z"/><path class="cls-5" d="M557.52,653.48c-15.67,0-28.42-10.12-28.42-22.55V567.78h56.84v63.16C585.94,643.37,573.19,653.48,557.52,653.48Z"/><rect class="cls-4" x="551.43" y="654.06" width="10.87" height="146.99"/><path class="cls-4" d="M615.82,804.31c0,2.63-117.92,2.63-117.92,0s26.4-4.77,59-4.77S615.82,801.68,615.82,804.31Z"/><polygon class="cls-6" points="664.45 266.93 678.63 295.65 710.33 300.25 687.39 322.61 692.8 354.18 664.45 339.27 636.1 354.18 641.52 322.61 618.58 300.25 650.28 295.65 664.45 266.93"/><polygon class="cls-6" points="147.66 344.53 126.04 345.57 114.64 363.97 106.97 343.73 85.96 338.58 102.83 325.03 101.24 303.45 119.34 315.31 139.37 307.13 133.68 328.01 147.66 344.53"/><polygon class="cls-6" points="563.85 147.66 558.78 139.72 549.37 139.4 555.35 132.13 552.75 123.08 561.52 126.52 569.32 121.25 568.76 130.65 576.18 136.44 567.07 138.81 563.85 147.66"/><polygon class="cls-6" points="781.49 555.47 767.62 555.27 759.6 566.59 755.5 553.34 742.26 549.2 753.59 541.21 753.43 527.34 764.54 535.65 777.68 531.21 773.21 544.34 781.49 555.47"/><polygon class="cls-6" points="161.72 625.78 143.66 623.48 131.52 637.05 128.13 619.16 111.47 611.8 127.44 603.05 129.28 584.94 142.54 597.42 160.34 593.58 152.56 610.04 161.72 625.78"/><polygon class="cls-6" points="504.2 266.93 488.82 261.69 475.79 271.4 476.01 255.16 462.75 245.76 478.27 240.95 483.11 225.44 492.48 238.71 508.73 238.52 499 251.53 504.2 266.93"/><polygon class="cls-6" points="773.44 203.91 768.76 199.71 762.65 201.18 765.2 195.43 761.91 190.07 768.16 190.72 772.24 185.94 773.56 192.09 779.37 194.49 773.93 197.64 773.44 203.91"/><polygon class="cls-6" points="710.33 734.77 700.2 732.96 692.96 740.28 691.55 730.09 682.36 725.47 691.62 720.98 693.16 710.81 700.29 718.22 710.45 716.55 705.6 725.63 710.33 734.77"/><polygon class="cls-6" points="248.79 133.56 241.95 136.94 240.85 144.48 235.53 139.02 228.02 140.31 231.56 133.56 228.02 126.81 235.53 128.1 240.85 122.64 241.95 130.19 248.79 133.56"/></g></g></svg>