<svg xmlns="http://www.w3.org/2000/svg" viewBox="0 0 899.5 899.9"><defs><style>.cls-1{fill:#2f373a;}.cls-2,.cls-3{fill:#ededed;}.cls-3{stroke:#1d1d1b;stroke-linecap:round;}.cls-11,.cls-3{stroke-miterlimit:10;}.cls-4{fill:#1f0c00;opacity:0.1;}.cls-5{fill:#a6633c;}.cls-6{fill:#f44647;}.cls-7{fill:#f2761e;}.cls-8{fill:#1d1d1b;}.cls-9{fill:#f2a007;}.cls-10{fill:#d7c16a;}.cls-11{fill:none;stroke:#f2a007;}.cls-12{fill:#d65b5a;}.cls-13{fill:#ef8500;}</style></defs><title>2</title><g id="Layer_2" data-name="Layer 2"><g id="Snowman"><path class="cls-1" d="M449.75,0C698.16,0,899.5,201.45,899.5,449.95S698.16,899.9,449.75,899.9,0,698.45,0,449.95,201.36,0,449.75,0Z"/><path class="cls-2" d="M812,716.54C727.4,830.31,596.75,899.9,449.76,899.9c-133.74,0-257.71-60.29-340.08-155.27,2.21-3.49,7-6.57,10.22-9.18a59.76,59.76,0,0,1,40-13.21c6.12.27,12.25,1.49,18.31.58,9.61-1.48,17.52-8.06,26.34-12.18s21-5,26.73,2.86l-.36-2.83c18.08-8.64,38-12.71,57.95-15,74.24-8.44,148.85,7.11,223.45,11.3,68.18,3.82,136.49-1.87,204.78-2.65,9.14-.11,18.85,0,26.59,4.91,4.44,2.83,8,7.07,12.7,9.34,6.87,3.31,14.93,1.91,22.47.79A263,263,0,0,1,812,716.54Z"/><ellipse class="cls-3" cx="449.76" cy="517.44" rx="189.4" ry="189.49"/><path class="cls-4" d="M272.23,583.62,282.3,606s160.49-17.49,228.65,1.65C510.95,607.67,337.57,519.32,272.23,583.62Z"/><path class="cls-5" d="M346.14,480,202.7,387.58,89.81,346.33l5-15.22s106.58,41.63,102.06,40.41-44.06-54.82-44.06-54.82l11.66-10.95,40,66.85,150.48,94.6Z"/><path class="cls-6" d="M358.95,339.25c-57.76,20.18-101.16,76.34-106.15,137.34-2.28,27.91,2.77,56.5-3.73,83.74-1.86,7.8-3.79,17.94,3,22.18,2.26,1.41,5,1.72,7.69,1.82,13.68.48,27-3.8,40.43-6.47,29.72-5.92,60.39-4,90.55-1.07,18.79,1.82,37.6,4,55.92,8.57,52.92,13.16,102.49,45.91,156.87,42,10-.72,21.47-3.84,25.45-13.07,1.9-4.39,1.69-9.36,2.09-14.14.8-9.51,4.13-18.6,6.4-27.87,5.75-23.52,4.64-48.1,3.49-72.28-.5-10.52-1-21.09-3.18-31.39-2.28-10.78-6.35-21.09-10.4-31.34C614.63,405,600.61,371,572.85,350.15c-20.23-15.2-45.61-21.66-70.49-26.25-23.77-4.38-48-7.38-72.1-5.73a189.12,189.12,0,0,0-75.2,21.41"/><path class="cls-4" d="M242.5,698.34c-5.9,11.9-25.08,11.32-31.56,22.91-6,10.71,3.79,24.47,15.51,28.13s24.31.86,36.56.18a105.75,105.75,0,0,1,65.57,18.5c12.28,8.51,25.73,20.34,40,16,8.46-2.55,14.19-10.19,21.2-15.57,21.8-16.72,53.67-10,77.67,3.4,16.32,9.09,34.61,21.29,52,14.57,9-3.46,15.37-11.34,23.28-16.8,13.79-9.52,31.54-11.26,48.25-10.09s33.22,4.92,50,5.16c4.29.06,8.73-.14,12.61-2,5-2.37,8.42-7.12,12.43-11,7.42-7.15,17.19-11.43,24.89-18.28s13.23-18.24,8.52-27.4c-5.07-9.85-18.33-11.35-29.41-11.2-46.67.63-93.37,7.89-139.87,3.78-32.64-2.89-64.9-11.37-97.66-10.28-25.47.84-50.37,7.45-75.67,10.42-37.57,4.41-75.63.76-113.39,3.06-4.77.29-11.14,2.55-10.34,7.27"/><path class="cls-4" d="M444.61,378.3s67,21,109.23-39.44L530,328Z"/><ellipse class="cls-2" cx="444.61" cy="280.74" rx="97.52" ry="97.56"/><path class="cls-7" d="M403.35,318.34s-143.6,55.45-132.68,60.49c8.77,4,93.88-20.62,127.07-30.49a13.84,13.84,0,0,0,9.34-17.13Z"/><path class="cls-8" d="M454.46,273l-10.37.37V259.51a3.36,3.36,0,1,0-6.72,0v14.08l-6.43.23a3.36,3.36,0,0,0,.12,6.72h.12l6.19-.22v15.33a3.36,3.36,0,1,0,6.72,0V280.07l10.61-.38a3.36,3.36,0,0,0-.24-6.72Z"/><path class="cls-8" d="M390.31,284.77l-13,1.73v-6.8a3.36,3.36,0,1,0-6.72,0v7.7l-5.48.73a3.36,3.36,0,0,0,.44,6.69,3.31,3.31,0,0,0,.45,0l4.59-.61v8.2a3.36,3.36,0,1,0,6.72,0v-9.1l13.88-1.85a3.36,3.36,0,0,0-.89-6.66Z"/><path class="cls-2" d="M332.4,655.85c-6.1-1.49-12.36-3-18.59-2.27s-12.55,4.14-15,9.94c-.82,2-1.19,4.22-2.51,5.93-5.48,7.09-20.32-1.42-24.6,6.45-1.35,2.49-.77,5.58-1.53,8.32-2.08,7.46-12,8.52-19.67,9.2s-17.51,5.8-15.26,13.21c.59,1.93,2,3.71,1.75,5.71-.43,3.37-4.8,4.24-7.61,6.16-7,4.79-2.76,16.94,5.09,20.17s16.71.79,25-.84a125.81,125.81,0,0,1,27.5-2.29c4,.11,8.07.43,11.65,2.16,5.59,2.69,9.18,8.39,14.53,11.54,9.23,5.43,20.88,2.06,31.2-.81a261.33,261.33,0,0,1,81.19-9.29c6.95.3,14,.9,20.55,3.13,9.51,3.23,17.87,9.79,27.78,11.43,11.68,1.94,23.19-3.24,34.37-7.17,13.45-4.73,27.73-7.77,41.93-6.53,13,1.14,25.45,5.81,38.42,7.05a73.88,73.88,0,0,0,41.86-8.49c5.79-3.13,11.29-7.09,17.7-8.6,6.09-1.43,12.59-.52,18.61-2.25,12.42-3.56,19.39-19.62,13.5-31.13-1.27-2.48-3-4.76-3.69-7.47-1.18-4.83,1.37-9.92.54-14.82-1.62-9.51-14.09-12.39-23.62-10.95s-19.9,4.88-28.32.16c-3.78-2.12-6.55-5.62-9.9-8.37-8.32-6.82-19.76-8.57-30.5-8s-21.26,3.32-32,4.32c-14.43,1.35-29-.4-43.31-2.53-11.08-1.65-22.72-3.48-33.2.46-7.46,2.8-13.64,8.31-21,11.27-27.26,10.9-58.17-15.86-86.2-7.12-4,1.23-7.7,3.15-11.73,4.12-9.55,2.29-19.46-1-28.74-4.18"/><path class="cls-5" d="M558.6,402.26s128.13-94,123.88-96.52S678.23,234,678.23,234h9.89l6.3,65,77.36-92,12.59,9.9s-75.56,86-72.86,82.13,66.56-22.67,66.56-22.67l6.3,14.7-76.46,14.7L671.49,328H733.1l-1.8,13.11-59.82-6.3L567.59,414.86Z"/><polygon class="cls-4" points="581.56 404.09 637.79 468.63 639.16 480.55 567.59 414.86 581.56 404.09"/><path class="cls-9" d="M731.05,386.37a31,31,0,0,1-2.3,11.81,31.47,31.47,0,0,1-60.66-11.81c0-.27,0-.56,0-.83a31.47,31.47,0,0,1,62.73-2.79A30,30,0,0,1,731.05,386.37Z"/><ellipse class="cls-10" cx="130.31" cy="422.65" rx="18.55" ry="18.56"/><path class="cls-11" d="M702.78,327a8,8,0,0,0-5.15-7.23,7.33,7.33,0,0,0-8.32,2.73,10.75,10.75,0,0,0-1.47,4.67,10.08,10.08,0,0,0,1,6.52c2.19,3.53,7,4,11.2,4.05l-1.56,18"/><path class="cls-12" d="M731.05,386.37a31,31,0,0,1-2.3,11.81q-4.8-2.89-9.61-5.8a4.21,4.21,0,0,0-2.21-.81,4.05,4.05,0,0,0-2,.83,62.62,62.62,0,0,0-8.47,6.61,87.79,87.79,0,0,0-10.87-7.87l-5.38,6.53a1.92,1.92,0,0,1-3.35.31c-3-2.52-6-5-9-7.54a50.38,50.38,0,0,1-7.59,7.33,31.5,31.5,0,0,1-2.12-11.39c0-.27,0-.56,0-.83,1.48-1.44,3-2.84,4.44-4.27L669.22,384a35.62,35.62,0,0,1,3.15-8.89,32.36,32.36,0,0,0,7.83,7.76A5.33,5.33,0,0,0,683,384a5.85,5.85,0,0,0,3.47-1.57q5-3.86,10.09-7.69c2.52,2.29,5,4.55,7.52,6.84a3.34,3.34,0,0,0,5.59,0l10.56-9.56a110.23,110.23,0,0,0,10.61,10.69A30,30,0,0,1,731.05,386.37Z"/><ellipse class="cls-13" cx="152.65" cy="443.35" rx="25.29" ry="25.3"/><path class="cls-11" d="M155.64,420.47a286.09,286.09,0,0,1,1.2-49.35A10.49,10.49,0,0,0,166.76,353c-2.5-1.95-5.73-2.66-8.86-3.1a5.06,5.06,0,0,0-3.74.49c-1,.77-1.09,2.76.15,3.12"/><path class="cls-11" d="M132.53,403.16q-.22-20.18,1.42-40.32a4.07,4.07,0,0,0,4.83-1.13,8.46,8.46,0,0,0,1.78-5,19.29,19.29,0,0,0-2.66-11.46c-1.09-1.81-2.66-3.55-4.75-3.91s-4.53,1.41-4.14,3.49"/><ellipse class="cls-2" cx="337.62" cy="85.79" rx="17.99" ry="18"/><circle class="cls-2" cx="574.26" cy="117.66" r="6.67"/><circle class="cls-2" cx="611" cy="226.6" r="7.62"/><circle class="cls-2" cx="197.99" cy="177.68" r="5.49"/><circle class="cls-2" cx="276.21" cy="295.02" r="3.98"/><circle class="cls-2" cx="141.83" cy="567.22" r="7.04"/><circle class="cls-2" cx="772.82" cy="567.22" r="7.04"/><circle class="cls-2" cx="825.82" cy="385.57" r="7.27"/><ellipse class="cls-2" cx="825.82" cy="486.38" rx="22.52" ry="22.53"/><circle class="cls-2" cx="754.63" cy="694.96" r="5.64"/><ellipse class="cls-2" cx="144.08" cy="656.38" rx="9.29" ry="9.3"/></g></g></svg>