<svg xmlns="http://www.w3.org/2000/svg" viewBox="0 0 900 900"><defs><style>.cls-1{fill:#d8b45e;}.cls-15,.cls-2{fill:#fff;}.cls-3{fill:#f2ffa5;}.cls-4{fill:#d65b5a;}.cls-5{fill:#f2bf80;}.cls-6{fill:#e27e79;}.cls-7{fill:#e57368;}.cls-8{fill:#4c4c4c;fill-opacity:0.38;}.cls-9{fill:#f2b705;}.cls-10{fill:#f2a71b;}.cls-11{fill:#d97904;}.cls-12{fill:#d96907;}.cls-13{fill:#df4949;}.cls-14,.cls-15{font-size:101.22px;font-family:MoonFlowerBold, Moon Flower Bold;}.cls-14{fill:#400d01;}</style></defs><title>22</title><g id="Layer_2" data-name="Layer 2"><g id="gifts"><circle class="cls-1" cx="450" cy="450" r="450"/><polygon class="cls-2" points="83.5 367.38 71.28 358.44 56.98 363.44 61.71 349.06 52.53 337.01 67.68 337.06 76.3 324.62 80.93 339.03 95.43 343.38 83.16 352.25 83.5 367.38"/><polygon class="cls-2" points="141.5 506.25 137 503.71 132.34 505.98 133.37 500.9 129.77 497.18 134.91 496.59 137.34 492.02 139.49 496.73 144.59 497.62 140.78 501.12 141.5 506.25"/><polygon class="cls-2" points="479.88 72.95 472.84 68.61 465.28 71.95 467.23 63.92 461.72 57.76 469.96 57.13 474.12 49.98 477.26 57.63 485.34 59.37 479.04 64.72 479.88 72.95"/><polygon class="cls-2" points="830.57 295.01 826.23 292.82 821.97 295.15 822.71 290.35 819.18 287.01 823.98 286.24 826.05 281.85 828.27 286.17 833.09 286.79 829.67 290.23 830.57 295.01"/><polygon class="cls-2" points="839.36 608.77 830.03 599.28 816.93 601.58 823.07 589.78 816.84 578.03 829.96 580.23 839.21 570.67 841.17 583.83 853.13 589.67 841.22 595.6 839.36 608.77"/><polygon class="cls-2" points="310.25 781.35 300.35 778.42 292.33 784.93 292.05 774.6 283.38 768.98 293.12 765.53 295.78 755.55 302.08 763.74 312.39 763.19 306.55 771.71 310.25 781.35"/><polygon class="cls-2" points="158.2 199.51 150.3 193.71 141.05 196.93 144.12 187.62 138.2 179.81 148 179.86 153.6 171.82 156.58 181.16 165.96 183.99 158 189.71 158.2 199.51"/><polygon class="cls-2" points="696.97 671.28 689.49 666.66 681.44 670.21 683.52 661.67 677.66 655.11 686.43 654.45 690.85 646.85 694.19 654.98 702.79 656.84 696.08 662.53 696.97 671.28"/><polygon class="cls-2" points="754.98 244.55 741.14 233.65 724.31 238.87 730.4 222.34 720.24 207.95 737.84 208.63 748.39 194.52 753.18 211.47 769.86 217.14 755.21 226.93 754.98 244.55"/><path class="cls-3" d="M440.81,154c5.84-3.16,54.61-14.61,54.61-14.61l135.77,23.4L579.36,179.4,440.81,154"/><polyline class="cls-4" points="485.87 163.69 529.9 145.33 549.1 148.64 526.64 169.73 485.87 163.69"/><polygon class="cls-3" points="571.64 392.85 579.36 179.4 440.81 153.99 430.79 355.09 571.64 392.85"/><polygon class="cls-5" points="579.36 179.4 631.19 162.78 630.38 345.91 571.64 392.85 579.36 179.4"/><polygon class="cls-4" points="526.64 169.73 518.09 378.5 483.84 370.91 488.74 162.78 526.64 169.73"/><path class="cls-4" d="M616.5,357l-.9-189.86-7,2.46-14.26,5s-5.9,204.83-1.26,201.13Z"/><polygon class="cls-4" points="482.65 142.38 615.6 167.14 590.68 175.57 446.65 150.83 482.65 142.38"/><path class="cls-6" d="M359.08,207.64c2.54.53,139.61,3.69,139.61,3.69l22.88,23.36-121-3.7Z"/><polygon class="cls-4" points="446.6 232.39 429.4 210.06 472.36 212.02 482.07 234.68 446.6 232.39"/><polygon class="cls-7" points="386.66 411.03 400.56 230.98 521.56 234.68 510.81 404.8 386.66 411.03"/><polygon class="cls-6" points="400.56 230.98 357.81 207.74 340.91 361.16 386.66 411.03 400.56 230.98"/><polygon class="cls-4" points="446.6 232.39 433.85 408.66 464.32 404.8 482.07 234.68 446.6 232.39"/><path class="cls-4" d="M351.72,372.94l19-158.75,5.77,3.32,11.72,6.75S373.58,396.78,370,392.84Z"/><polygon class="cls-4" points="504.69 217.46 370.73 214.19 391.24 225.74 516.87 230.98 504.69 217.46"/><ellipse class="cls-8" cx="462.65" cy="708.94" rx="321.18" ry="30.01"/><path class="cls-9" d="M170.86,216.39l92.52-57.54,114.69,221.7-85.36,53.08Z"/><path class="cls-10" d="M378.07,380.56l52.72,16.88-87.44,51.07s-53.62-13-50.63-14.87Z"/><polygon class="cls-10" points="263.98 158.49 326.02 201.02 430.79 397.44 378.07 380.56 263.98 158.49"/><polygon class="cls-11" points="241.43 342.22 227.07 316.77 316.75 262.66 332.82 291.16 241.43 342.22"/><polygon class="cls-12" points="330.48 291.38 316.75 262.66 376.03 294.09 390.31 321.55 330.48 291.38"/><polygon class="cls-12" points="314.42 441.1 401.2 387.14 415.28 392.48 332.49 445.81 314.42 441.1"/><polygon class="cls-12" points="401.2 387.14 289.82 176.2 304.89 186.54 415.28 392.48 401.2 387.14"/><path class="cls-13" d="M259.66,334.67c-83.74,74.78-120,194.32-97.13,315.89-27.07-2.2-37.72,29.49-19.53,50,17.87,20.14,51.63,25.12,72.1,14.83,4.2-2.11,8.12-4.79,13.13-5.49,4.52-.63,9.45.42,14.22,1.43,169.1,35.92,322.74,35,451.07,2.56,15.84-4,31.64-8.52,48-7.7,9,.45,18.42,2.5,26.67-.25,10.35-3.45,17.23-15.22,15.48-27.32s-12.47-23.39-23.84-24.29c7-36.38,14.13-73.76,10.91-113.28-2.26-27.7-9.56-55.89-17.37-84.23-10.1-36.66-21.3-74.42-39.52-110.55-18.71-37.09-45.77-73-80-95.63,14.5,20.71,7.25,46-4.2,61.57-27.4,37.13-72.91,53.72-119.45,65.87-41.73,10.9-85.73,19.2-130.81,27.71-18.63,3.52-40.55,6.34-59.93-7-23.54-16.25-34.7-51-61.13-60.94"/><path class="cls-8" d="M193.71,420.29s44.9,65.72,208.68,58.44,269.41-53.1,311.49-132.46l-13.94-24.79s-63.13,110.22-255,112.18-245-25-245-25Z"/><path class="cls-2" d="M686.92,301.63c-.73-21.77-22.05-64.31-46.35-76.47-42.14-21.1-22.28,18.73-32.36,44.45-24.64,62.86-67.2,70.64-131.56,84.28-33.3,7.05-88.42,32.32-127.93,22.38-35.74-9-54.93-46-87.93-55.77C154.38,289,157.26,399.44,193.71,420.29c123.84,70.86,374,55.32,468.15-30.68,14.19-13,100.08-89.21,25.06-88"/><text class="cls-14" transform="translate(226.05 603.95)">Merry Christmas!</text><text class="cls-15" transform="translate(226.05 597.63)">Merry Christmas!</text></g></g></svg>