<svg xmlns="http://www.w3.org/2000/svg" viewBox="0 0 900 900"><defs><style>.cls-1{fill:#2f373a;}.cls-2{fill:#fff;}.cls-3{fill:#fda;}.cls-4{fill:#ab9d00;}.cls-5{fill:#bf3636;}.cls-6,.cls-8{fill:#ffc484;}.cls-7{fill:#400106;}.cls-8{fill-opacity:0.23;}.cls-9{fill:#8c4f04;}.cls-10{fill:#8e2929;}</style></defs><title>23</title><g id="Layer_2" data-name="Layer 2"><g id="Elf"><circle class="cls-1" cx="450" cy="450" r="450"/><polygon class="cls-2" points="83.5 367.38 71.28 358.44 56.98 363.44 61.71 349.06 52.53 337.01 67.68 337.06 76.3 324.62 80.93 339.03 95.43 343.38 83.16 352.25 83.5 367.38"/><polygon class="cls-2" points="141.5 506.25 137 503.71 132.34 505.98 133.37 500.9 129.77 497.18 134.91 496.59 137.34 492.02 139.49 496.73 144.59 497.62 140.78 501.12 141.5 506.25"/><polygon class="cls-2" points="479.88 72.95 472.84 68.61 465.28 71.95 467.23 63.92 461.72 57.76 469.96 57.13 474.12 49.98 477.26 57.63 485.34 59.37 479.04 64.72 479.88 72.95"/><polygon class="cls-2" points="830.57 295.01 826.23 292.82 821.97 295.15 822.71 290.35 819.18 287.01 823.98 286.24 826.05 281.85 828.27 286.17 833.09 286.79 829.67 290.23 830.57 295.01"/><polygon class="cls-2" points="839.36 608.77 830.03 599.28 816.93 601.58 823.07 589.78 816.84 578.03 829.96 580.23 839.21 570.67 841.17 583.83 853.13 589.67 841.22 595.6 839.36 608.77"/><polygon class="cls-2" points="310.25 781.35 300.35 778.42 292.33 784.93 292.05 774.6 283.38 768.98 293.12 765.53 295.78 755.55 302.08 763.74 312.39 763.19 306.55 771.71 310.25 781.35"/><polygon class="cls-2" points="158.2 199.51 150.3 193.71 141.05 196.93 144.12 187.62 138.2 179.81 148 179.86 153.6 171.82 156.58 181.16 165.96 183.99 158 189.71 158.2 199.51"/><polygon class="cls-2" points="696.97 671.28 689.49 666.66 681.44 670.21 683.52 661.67 677.66 655.11 686.43 654.45 690.85 646.85 694.19 654.98 702.79 656.84 696.08 662.53 696.97 671.28"/><polygon class="cls-2" points="754.98 244.55 741.14 233.65 724.31 238.87 730.4 222.34 720.24 207.95 737.84 208.63 748.39 194.52 753.18 211.47 769.86 217.14 755.21 226.93 754.98 244.55"/><path class="cls-3" d="M618.89,319.35c-4.62,5.09-10.93,8.69-17.36,11.34a76,76,0,0,1-17.87,5,2.78,2.78,0,0,1-3.84-2.2,69.58,69.58,0,0,1-3.18-29.37c.13-1.18,13.43-13,19.12-16,7.67-4.06,18-4.53,24.39,1.28,6.7,6.06,6.92,17.12,2.4,24.95A28.81,28.81,0,0,1,618.89,319.35Z"/><polygon class="cls-4" points="493.56 620.56 492.06 662.97 491.39 682.38 490.83 697.97 490.15 717.36 489.6 733.05 488.93 752.44 488.36 768.75 487.67 788.18 487.52 792.49 514.07 795.12 514.36 786.92 515.05 767.74 515.65 751.17 516.34 732.04 516.91 716.1 517.6 696.95 518.17 681.11 518.17 681.1 518.86 661.96 520.47 616.99 493.56 620.56"/><polygon class="cls-5" points="492.06 662.97 491.39 682.38 518.17 681.11 518.17 681.1 518.86 661.96 492.06 662.97"/><polygon class="cls-5" points="490.83 697.97 490.15 717.36 516.91 716.1 517.6 696.95 490.83 697.97"/><polygon class="cls-5" points="489.6 733.05 488.93 752.44 515.65 751.17 516.34 732.04 489.6 733.05"/><polygon class="cls-5" points="488.36 768.75 487.67 788.18 514.36 786.92 515.05 767.74 488.36 768.75"/><path class="cls-5" d="M485.68,791.33s29.8,1.26,30.09-2.89c0,0,4.88,4.34,4.53,7.81a7.17,7.17,0,0,1-3.63,5.16s-7.94,21.38-2,25.63,46.22-2,45.87-9.22a9.77,9.77,0,0,0-6.7-9s12.19-1.86,12,6.41,10.81,30.24-10.79,34.37-25.6-5.37-35.41-.3-27.12,7.34-32.79.67-4-21.59-2.49-25.93c1.77-4.93,2.28-23.54,2.28-23.54S478.65,791.16,485.68,791.33Z"/><polygon class="cls-4" points="460.62 624.73 457.92 667.08 456.68 686.46 455.69 702.03 454.46 721.39 453.46 737.06 452.21 756.42 451.18 772.71 449.94 792.11 449.67 796.41 422.99 796.41 423.51 788.23 424.71 769.07 425.75 752.52 426.95 733.42 427.95 717.49 429.16 698.38 430.16 682.56 430.16 682.54 431.36 663.43 434.19 618.52 460.62 624.73"/><polygon class="cls-5" points="457.92 667.08 456.68 686.46 430.16 682.56 430.16 682.54 431.36 663.43 457.92 667.08"/><polygon class="cls-5" points="455.69 702.03 454.46 721.39 427.95 717.49 429.16 698.38 455.69 702.03"/><polygon class="cls-5" points="453.46 737.06 452.21 756.42 425.75 752.52 426.95 733.42 453.46 737.06"/><polygon class="cls-5" points="451.18 772.71 449.94 792.11 423.51 788.23 424.71 769.07 451.18 772.71"/><path class="cls-3" d="M292.53,318.2c4.1,5.52,10,9.73,16.16,13A76,76,0,0,0,326,337.95a2.78,2.78,0,0,0,4-1.81,69.58,69.58,0,0,0,6.06-28.91c0-1.19-12.09-14.25-17.44-17.81-7.23-4.8-17.42-6.28-24.4-1.13-7.27,5.37-8.57,16.35-4.85,24.59A28.81,28.81,0,0,0,292.53,318.2Z"/><path class="cls-3" d="M318.12,567l-2.77,30.81a6,6,0,0,1-.95,3.27c-.71.9-2.23,1.27-3,.42a3,3,0,0,1-.58-1.76q-.53-4.9-.8-9.82a115.75,115.75,0,0,1-22.6,22.88c-2.27,1.73-4.71,3.43-7.53,3.9-6.91,1.16-13-5.91-13.39-12.91s3.35-13.52,7.34-19.28a149.76,149.76,0,0,1,27.89-30.34,10.26,10.26,0,0,1,4.36-2.49c4.18-.81,7.61,3.5,8.78,7.59s1.31,8.69,4,12"/><path class="cls-3" d="M633.58,560.72l-.28,30.94a6,6,0,0,0,.62,3.35c.62,1,2.09,1.48,3,.72a3,3,0,0,0,.75-1.69q1-4.82,1.76-9.69a115.75,115.75,0,0,0,20.23,25c2.09,1.95,4.35,3.88,7.11,4.62,6.76,1.83,13.55-4.6,14.6-11.53s-2-13.78-5.4-19.91a149.76,149.76,0,0,0-24.76-32.94,10.26,10.26,0,0,0-4.1-2.9c-4.08-1.22-7.92,2.73-9.49,6.69s-2.16,8.52-5.13,11.58"/><path class="cls-5" d="M386.4,434.75c-1.36.37-93.08,123-93.21,124.38s25.67,15.42,25.67,15.42l65.84-87.73,19.11-28.47,4,122-14.39,80.4,38.06-25.36,30.6,25.83,20.28-30L524,656.64l10.56-25.14s38.66,20.39,37.64,20.3-50-76.06-50-76.06l5-114.28L631.34,573.11l19.26-22.67L533.89,441.11S439.26,420.38,386.4,434.75Z"/><polygon class="cls-4" points="398.37 409.58 328.53 454.06 402.47 444.48 394.61 501.27 468.16 448.93 541.71 491.01 530.42 443.11 615.26 445.51 525.63 393.51 398.37 409.58"/><ellipse class="cls-3" cx="455.27" cy="321.18" rx="141.4" ry="111.9"/><ellipse class="cls-6" cx="379.55" cy="360.85" rx="27.43" ry="15.23"/><ellipse class="cls-6" cx="535.23" cy="360.85" rx="27.43" ry="15.23"/><ellipse class="cls-7" cx="419.69" cy="311.29" rx="7.33" ry="14.37"/><ellipse class="cls-7" cx="493.15" cy="316.03" rx="7.33" ry="14.37"/><path class="cls-8" d="M332,267.79s19.14,44.69,82.43,26.36c0,0,5.07-7.38-2.08-6s-30.7-3.08-37.57-16.08-11.74-22.62-5.24-34.93c2.27-4.3,7.95-1.67,7.95-1.67s25.09,47.21,81,51.66,65.11-11.63,65.11-11.63,3.76-4.11-4.79-3.76-47.89-.34-52.68-11.29-3.42-28.3,1.71-27.37,12-3.08,13.34-3.08,39.41,35.59,64,47.21c25.32,12,44.46,8.93,44.46,8.93s-51.64-66.74-124.85-66.4S359.07,210.15,332,267.79Z"/><path class="cls-9" d="M479.38,232.78a26.29,26.29,0,0,1,9.34,3.73c32.57,19.75,63.61,44.71,103.39,50-8.31-16.69-17.79-33.32-32.24-46.8-18.11-16.91-43.33-28-69.86-33s-54.31-4.26-81,0c-30.9,5-62.57,15.83-79.27,38.44a13.57,13.57,0,0,0-.7,14.93c12.59,21.48,41.74,36,70.53,33.86,6.85-.52,14.74-2.68,16.78-8.16-20.79-2-39.47-14.95-45.57-31.63-2.11-5.77-2.28-13,3.41-16.77,18.7,15.89,39.77,30.43,64.52,38.8s53.69,10,77.87.54c3.16-1.23,6.73-4,4.91-6.5-17.72-2.52-34.29-10.35-46-21.73-4.27-4.16-7.63-11-2.55-14.52A8.91,8.91,0,0,1,479.38,232.78Z"/><path class="cls-8" d="M593.78,300.74c38.43,197.21-361,162.93-265.38-29C246.13,459.6,618.14,487.09,593.78,300.74Z"/><polygon class="cls-4" points="406.98 554.59 523.36 549.11 522.19 575.73 407.83 580.37 406.98 554.59"/><path class="cls-2" d="M552.26,70.58a37.24,37.24,0,0,1,29.28-14.73c3.71,0,8.7,2.81,6.86,6,4.86-1.92,10-3.87,15.15-3.35A17,17,0,0,1,618.36,74,17,17,0,0,1,605.46,91a19.93,19.93,0,0,1-6,36.57c6.42,3.91,5.54,14.38,0,19.43s-13.71,5.93-21.23,5.71a100.82,100.82,0,0,1-18.82-2.34c-5.3-1.18-10.75-2.91-14.58-6.76s-5.49-10.34-2.42-14.83c-5.71-.62-11.5-2-16.19-5.3s-8.06-8.93-7.44-14.64,6.07-10.84,11.74-10c1.16-15.77,15.88-29.33,31.69-29.19"/><path class="cls-5" d="M324.27,294.15s1.23-50.66,36.13-69.3c43.15-23.05,155.54-53.25,231.72,61.64,0,0,15.44,7.74,23.15-.08,7.4-7.51.37-14.35-2.38-18.45S622.66,166,579.34,131.11c-34.64-27.9-83.52-38.65-138.89-31.47-54.27,7,100.38,7.13,94.78,7.52,0,0,30.75-31,20.85-40.41-20.85-19.8-76-41.1-143.71,0s-32.81,48.62-32.81,48.62S317.19,124.27,306,226.9C306,226.9,256,289.37,324.27,294.15Z"/><path class="cls-10" d="M339.18,209.28a133.56,133.56,0,0,1,13.33-9.77c2.3-1.53,4.66-2.95,7-4.4s4.76-2.81,7.21-4.08a198.37,198.37,0,0,1,30.41-13.23,178.42,178.42,0,0,1,32.35-7.7,171.22,171.22,0,0,1,33.28-1.33c2.77.24,5.55.45,8.32.72l8.26,1.22c.69.11,1.38.19,2.06.32l2,.44,4.08.88,4.08.88c1.34.36,2.67.77,4,1.15a163.62,163.62,0,0,1,31,12.18l7.32,3.94c1.24.62,2.4,1.38,3.57,2.12l3.51,2.22,3.5,2.23,1.75,1.11c.57.39,1.12.81,1.68,1.21l6.69,4.9c1.1.84,2.24,1.61,3.3,2.5l3.16,2.67,6.32,5.34c4.11,3.67,8,7.59,12,11.41L573,220.9l-3.13-2.68c-1-.89-2.06-1.82-3.18-2.62l-6.56-5-3.28-2.48c-1.1-.82-2.27-1.53-3.4-2.3l-6.81-4.58c-.57-.38-1.13-.77-1.71-1.14l-1.77-1L539.65,197,536.11,195c-1.17-.7-2.34-1.41-3.58-2l-7.31-3.68c-2.4-1.3-5-2.24-7.46-3.33l-3.76-1.6-1.88-.8-1.93-.68-7.71-2.69c-1.27-.49-2.61-.78-3.91-1.16l-3.93-1.08a156.15,156.15,0,0,0-32.11-5.29,180.52,180.52,0,0,0-64.46,8,219.07,219.07,0,0,0-30.48,12c-2.49,1.14-4.9,2.44-7.35,3.67s-4.83,2.6-7.19,4q-1.79,1-3.54,2.1c-1.18.71-2.34,1.44-3.49,2.18C343.7,206.14,341.4,207.65,339.18,209.28Z"/><rect class="cls-2" x="450.71" y="549.11" width="35.11" height="35.11"/><path class="cls-5" d="M451.61,795.44s-29.78-1.68-29.66-5.84c0,0-5.29,3.84-5.28,7.33a7.17,7.17,0,0,0,3.1,5.49s5.79,22.06-.52,25.7-45.79-6.58-44.74-13.7a9.77,9.77,0,0,1,7.56-8.27s-12-3.05-12.53,5.2-13.74,29,7.35,35.27,26-2.82,35.27,3.19,26.26,10,32.57,3.9,6.16-21.08,5-25.56c-1.27-5.08.06-23.64.06-23.64S458.62,796,451.61,795.44Z"/></g></g></svg>