<svg xmlns="http://www.w3.org/2000/svg" viewBox="0 0 900 900"><defs><style>.cls-1{fill:#d8b45e;}.cls-2{fill:#fff;}.cls-3{fill:#d8d8d8;}.cls-4{fill:#eaeaea;}.cls-5{fill:#c14040;}.cls-6,.cls-7,.cls-8{fill:#df4949;}.cls-7{font-size:319.92px;}.cls-7,.cls-8{font-family:BadaBoomBB, BadaBoom BB;}.cls-8{font-size:126.56px;}</style></defs><title>24</title><g id="Layer_2" data-name="Layer 2"><g id="Calendar"><circle class="cls-1" cx="450" cy="450" r="450"/><polygon class="cls-2" points="83.5 367.38 71.28 358.44 56.98 363.44 61.71 349.06 52.53 337.01 67.68 337.06 76.3 324.62 80.93 339.03 95.43 343.38 83.16 352.25 83.5 367.38"/><polygon class="cls-2" points="141.5 506.25 137 503.71 132.34 505.98 133.37 500.9 129.77 497.18 134.91 496.59 137.34 492.02 139.49 496.73 144.59 497.62 140.78 501.12 141.5 506.25"/><polygon class="cls-2" points="479.88 72.95 472.84 68.61 465.28 71.95 467.23 63.92 461.72 57.76 469.96 57.13 474.12 49.98 477.26 57.63 485.34 59.37 479.04 64.72 479.88 72.95"/><polygon class="cls-2" points="830.57 295.01 826.23 292.82 821.97 295.15 822.71 290.35 819.18 287.01 823.98 286.24 826.05 281.85 828.27 286.17 833.09 286.79 829.67 290.23 830.57 295.01"/><polygon class="cls-2" points="839.36 608.77 830.03 599.28 816.93 601.58 823.07 589.78 816.84 578.03 829.96 580.23 839.21 570.67 841.17 583.83 853.13 589.67 841.22 595.6 839.36 608.77"/><polygon class="cls-2" points="310.25 781.35 300.35 778.42 292.33 784.93 292.05 774.6 283.38 768.98 293.12 765.53 295.78 755.55 302.08 763.74 312.39 763.19 306.55 771.71 310.25 781.35"/><polygon class="cls-2" points="158.2 199.51 150.3 193.71 141.05 196.93 144.12 187.62 138.2 179.81 148 179.86 153.6 171.82 156.58 181.16 165.96 183.99 158 189.71 158.2 199.51"/><polygon class="cls-2" points="696.97 671.28 689.49 666.66 681.44 670.21 683.52 661.67 677.66 655.11 686.43 654.45 690.85 646.85 694.19 654.98 702.79 656.84 696.08 662.53 696.97 671.28"/><path class="cls-3" d="M166,234.83l49.66,535.41S419.53,684.38,416,680.86,166,234.83,166,234.83Z"/><path class="cls-4" d="M165.42,263.11,269,790.75s194.18-106,190.32-109.19S165.42,263.11,165.42,263.11Z"/><polygon class="cls-2" points="754.98 244.55 741.14 233.65 724.31 238.87 730.4 222.34 720.24 207.95 737.84 208.63 748.39 194.52 753.18 211.47 769.86 217.14 755.21 226.93 754.98 244.55"/><path class="cls-2" d="M179.94,268C183.45,268,629,171.82,629,171.82L790.75,563.89,305.59,806.47Z"/><polygon class="cls-5" points="160.55 225 160.55 324.62 205.08 305.86 160.55 225"/><polygon class="cls-6" points="185.47 328.89 160.55 225 600 101.95 644.09 180.25 185.47 328.89"/><text class="cls-7" transform="translate(358.57 563.97) rotate(-17.88)">24</text><text class="cls-8" transform="matrix(0.92, -0.39, 0.39, 0.92, 358.4, 725.42)">DECEMBER</text></g></g></svg>