<svg xmlns="http://www.w3.org/2000/svg" viewBox="0 0 900 900"><defs><style>.cls-1{fill:#df4949;}.cls-2{fill:#0d0600;opacity:0.2;}.cls-3{fill:#ffe5b4;}.cls-4{fill:#f5e283;}.cls-5{fill:#d8b45e;}.cls-6{fill:#bf352f;}.cls-7,.cls-9{fill:#591212;}.cls-7{fill-opacity:0.6;}.cls-8{font-size:93.16px;fill:#fff;font-family:Bira-PERSONALUSEONLY, Bira PERSONAL USE ONLY;}</style></defs><title>3</title><g id="Layer_2" data-name="Layer 2"><g id="Gift"><path class="cls-1" d="M900,450c0,195-124,361-297.51,423.51a451.11,451.11,0,0,1-379.83-35.09C89.46,760.31,0,615.6,0,450,0,201.48,201.48,0,450,0S900,201.48,900,450Z"/><path class="cls-2" d="M711.39,716.92,602.49,873.51a451.11,451.11,0,0,1-379.83-35.09L137.11,771s132.42-48.43,139.45-45.46Z"/><polygon class="cls-3" points="290.55 450 276.56 725.54 599.45 801.96 645.13 508.03 290.55 450"/><polygon class="cls-4" points="648.96 482.83 739.65 421.18 711.39 716.93 599.45 801.96 648.96 482.83"/><polygon class="cls-5" points="290.55 450 462.76 371.43 739.65 421.18 645.13 508.03 290.55 450"/><polygon class="cls-4" points="462.76 371.43 414.33 156.17 793.19 188.46 739.65 421.48 462.76 371.43"/><polygon class="cls-6" points="425.19 472.04 382.24 750.55 468.65 771 505.69 485.21 425.19 472.04"/><polygon class="cls-6" points="677.35 478.43 651.75 762.23 690.97 732.43 708.28 450 677.35 478.43"/><polygon class="cls-6" points="285.63 546.89 627.45 621.52 620.98 670.65 283.72 584.58 285.63 546.89"/><polygon class="cls-6" points="627.45 621.52 725.9 565.12 720.51 621.52 620.98 670.65 627.45 621.52"/><polygon class="cls-7" points="489.84 463.58 443.96 356.94 72.66 463.58 87.89 273.73 747.66 146 799.95 294.22 515.1 347.56 489.84 463.58"/><text class="cls-8" transform="translate(112.68 404.94) rotate(-12.8)">Merry Christmas!</text><polygon class="cls-9" points="182.54 472.25 189.04 486.99 205.05 485.25 195.54 498.25 205.05 511.24 189.04 509.5 182.54 524.24 176.04 509.5 160.03 511.24 169.55 498.25 160.03 485.25 176.04 486.99 182.54 472.25"/><polygon class="cls-9" points="476.1 523.23 482.59 537.97 498.61 536.23 489.09 549.22 498.61 562.22 482.59 560.48 476.1 575.21 469.6 560.48 453.59 562.22 463.1 549.22 453.59 536.23 469.6 537.97 476.1 523.23"/><polygon class="cls-9" points="560.47 450 566.97 464.74 582.98 463 573.47 476 582.98 488.99 566.97 487.25 560.47 501.99 553.97 487.25 537.96 488.99 547.48 476 537.96 463 553.97 464.74 560.47 450"/><polygon class="cls-9" points="383.92 413.74 388.14 423.31 398.53 422.18 392.36 430.61 398.53 439.05 388.14 437.92 383.92 447.48 379.7 437.92 369.31 439.05 375.49 430.61 369.31 422.18 379.7 423.31 383.92 413.74"/><polygon class="cls-9" points="614.06 364.68 618.28 374.24 628.67 373.11 622.5 381.55 628.67 389.98 618.28 388.85 614.06 398.42 609.85 388.85 599.45 389.98 605.63 381.55 599.45 373.11 609.85 374.24 614.06 364.68"/><polygon class="cls-9" points="120.74 611.57 127.24 626.3 143.25 624.56 133.74 637.56 143.25 650.55 127.24 648.81 120.74 663.55 114.24 648.81 98.23 650.55 107.75 637.56 98.23 624.56 114.24 626.3 120.74 611.57"/><polygon class="cls-9" points="216.01 575.21 219.17 582.39 226.97 581.54 222.34 587.87 226.97 594.19 219.17 593.35 216.01 600.52 212.84 593.35 205.05 594.19 209.68 587.87 205.05 581.54 212.84 582.39 216.01 575.21"/><polygon class="cls-9" points="476.1 85.68 479.26 92.85 487.05 92.01 482.42 98.33 487.05 104.66 479.26 103.81 476.1 110.98 472.93 103.81 465.14 104.66 469.77 98.33 465.14 92.01 472.93 92.85 476.1 85.68"/><polygon class="cls-9" points="298.33 81.46 302.55 91.03 312.94 89.9 306.77 98.33 312.94 106.77 302.55 105.64 298.33 115.2 294.11 105.64 283.72 106.77 289.9 98.33 283.72 89.9 294.11 91.03 298.33 81.46"/><polygon class="cls-9" points="827.81 446.71 832.03 456.27 842.42 455.14 836.25 463.58 842.42 472.01 832.03 470.88 827.81 480.45 823.6 470.88 813.2 472.01 819.38 463.58 813.2 455.14 823.6 456.27 827.81 446.71"/><polygon class="cls-9" points="813.2 575.21 817.42 584.78 827.81 583.65 821.64 592.08 827.81 600.52 817.42 599.39 813.2 608.95 808.99 599.39 798.59 600.52 804.77 592.08 798.59 583.65 808.99 584.78 813.2 575.21"/></g></g></svg>