<svg xmlns="http://www.w3.org/2000/svg" viewBox="0 0 900 900"><defs><style>.cls-1{isolation:isolate;}.cls-2{fill:#2f373a;}.cls-3{fill:#591212;}.cls-4{fill:#efefef;}.cls-5{fill:#563e03;}.cls-6{fill:#f18a04;}.cls-7{mix-blend-mode:overlay;}.cls-8{fill:#fff;}.cls-9{fill:#fcf7eb;fill-opacity:0.24;}.cls-10{fill:#bf352f;}.cls-11{mix-blend-mode:color-burn;}.cls-12{mix-blend-mode:multiply;}</style></defs><title>5</title><g class="cls-1"><g id="Layer_2" data-name="Layer 2"><g id="Decoration"><path class="cls-2" d="M900,450c0,195-124,361-297.51,423.51a451.11,451.11,0,0,1-379.83-35.09C89.46,760.31,0,615.6,0,450,0,201.48,201.48,0,450,0S900,201.48,900,450Z"/><polygon class="cls-3" points="182.54 472.25 189.04 486.99 205.05 485.25 195.54 498.25 205.05 511.24 189.04 509.5 182.54 524.24 176.04 509.5 160.03 511.24 169.55 498.25 160.03 485.25 176.04 486.99 182.54 472.25"/><polygon class="cls-3" points="476.1 523.23 482.59 537.97 498.61 536.23 489.09 549.22 498.61 562.22 482.59 560.48 476.1 575.21 469.6 560.48 453.59 562.22 463.1 549.22 453.59 536.23 469.6 537.97 476.1 523.23"/><polygon class="cls-3" points="560.47 450 566.97 464.74 582.98 463 573.47 476 582.98 488.99 566.97 487.25 560.47 501.99 553.97 487.25 537.96 488.99 547.48 476 537.96 463 553.97 464.74 560.47 450"/><polygon class="cls-3" points="383.92 413.74 388.14 423.31 398.53 422.18 392.36 430.61 398.53 439.05 388.14 437.92 383.92 447.48 379.7 437.92 369.31 439.05 375.49 430.61 369.31 422.18 379.7 423.31 383.92 413.74"/><polygon class="cls-4" points="643.28 214.45 655.78 242.8 686.58 239.45 668.28 264.45 686.58 289.44 655.78 286.1 643.28 314.44 630.78 286.1 599.99 289.44 618.29 264.45 599.99 239.45 630.78 242.8 643.28 214.45"/><polygon class="cls-4" points="129.38 611.57 138.38 631.96 160.54 629.55 147.37 647.54 160.54 665.52 138.38 663.12 129.38 683.51 120.39 663.12 98.23 665.52 111.4 647.54 98.23 629.55 120.39 631.96 129.38 611.57"/><polygon class="cls-4" points="298.33 733.9 301.49 741.08 309.29 740.23 304.66 746.56 309.29 752.88 301.49 752.04 298.33 759.21 295.17 752.04 287.37 752.88 292 746.56 287.37 740.23 295.17 741.08 298.33 733.9"/><polygon class="cls-4" points="425.91 96.5 430.78 107.54 442.76 106.23 435.64 115.96 442.76 125.69 430.78 124.39 425.91 135.42 421.05 124.39 409.06 125.69 416.18 115.96 409.06 106.23 421.05 107.54 425.91 96.5"/><polygon class="cls-4" points="205.05 173.28 211.85 188.71 228.62 186.89 218.66 200.5 228.62 214.1 211.85 212.28 205.05 227.71 198.25 212.28 181.48 214.1 191.44 200.5 181.48 186.89 198.25 188.71 205.05 173.28"/><polygon class="cls-4" points="827.81 446.71 832.03 456.27 842.42 455.14 836.25 463.58 842.42 472.01 832.03 470.88 827.81 480.45 823.6 470.88 813.2 472.01 819.38 463.58 813.2 455.14 823.6 456.27 827.81 446.71"/><polygon class="cls-4" points="813.2 575.21 817.42 584.78 827.81 583.65 821.64 592.08 827.81 600.52 817.42 599.39 813.2 608.95 808.99 599.39 798.59 600.52 804.77 592.08 798.59 583.65 808.99 584.78 813.2 575.21"/><path class="cls-5" d="M309.67,49.12c0-2.86-5.08-5.18-11.34-5.18S287,46.26,287,49.12c0,2.28,3.24,4.22,7.73,4.9V297.57h8.4V53.81C307,53,309.67,51.2,309.67,49.12Z"/><circle class="cls-6" cx="298.33" cy="438.79" r="170.16"/><g class="cls-7"><path class="cls-8" d="M245,547.37l-4.6-4.27a155.27,155.27,0,0,0,31-50l1.32-3.46,70.9,41.48,34.19-57.39,2.81,2.23c10,7.94,39.52,30.44,49.09,37.72,4.85-9.73,16.54-32.43,22-36.65l3.82,5c-4,3.06-15.55,24.84-21.9,37.85L432,523.28,429,521c-.37-.28-35-26.59-49.41-37.88l-33.71,56.59-69.91-40.9A161.74,161.74,0,0,1,245,547.37Z"/></g><g class="cls-7"><path class="cls-8" d="M157.34,446.87l-6.16-5.71a208,208,0,0,0,41.57-67l1.76-4.64,95,55.56,45.79-76.87,3.76,3C352.4,361.85,392,392,404.78,401.74c6.5-13,22.15-43.44,29.5-49.09l5.12,6.66c-5.34,4.1-20.83,33.27-29.33,50.69l-2.24,4.6-4.07-3.09c-.5-.38-46.88-35.62-66.18-50.74l-45.15,75.79-93.64-54.78A216.63,216.63,0,0,1,157.34,446.87Z"/></g><path class="cls-9" d="M342,314.42s57,22.53,82.82,121.9c0,0,19.88-61-8-95.4C416.88,340.92,395.68,311.11,342,314.42Z"/><path class="cls-5" d="M573.82,51.34c0-4.08-5.08-7.4-11.34-7.4s-11.34,3.31-11.34,7.4c0,3.26,3.24,6,7.73,7v348h8.4V58C571.14,56.86,573.82,54.31,573.82,51.34Z"/><circle class="cls-10" cx="563.07" cy="590.24" r="211.92"/><path class="cls-9" d="M600,431s96.33,38.08,140,206.1c0,0,33.6-103.05-13.44-161.3C726.56,475.85,690.72,425.45,600,431Z"/><g class="cls-11"><g class="cls-12"><path class="cls-8" d="M451,629.81c-.56,0-1.12,0-1.68,0a39.44,39.44,0,0,1-33.42-22.12c-3.75-7.84-4.6-16.18-5.42-24.24-.26-2.55-.5-5-.84-7.35-1.06-7.63-3.83-17.57-11-21.62-5.71-3.21-14.07-2.12-20.33,2.66-5.68,4.33-10,11.33-12.91,20.79l-11.25-3.43c3.62-11.87,9.35-20.86,17-26.72,10-7.65,23.4-9.08,33.22-3.55,9,5.08,14.87,15.54,16.92,30.26.36,2.61.63,5.24.89,7.78.75,7.39,1.46,14.37,4.32,20.35a27.23,27.23,0,0,0,48,2.15c4-6.78,5.2-15.25,6.45-24.22,1.69-12.19,3.44-24.8,12.75-34.2C501,539,512,536.09,523.3,538.61s20,9.84,23.46,19.59c2.69,7.63,2.27,15.38,1.87,22.87-.37,6.87-.72,13.36,1.45,18.88a19.21,19.21,0,0,0,36.55-2.52c1.47-6.09,0-12.86-1.52-20-1.88-8.74-3.82-17.78-.88-27,4.31-13.58,19.4-22.92,34.32-21.27C632,530.6,644.36,540.28,650,553.77c2.54,6.09,3.64,12.45,4.7,18.6,1.27,7.38,2.48,14.35,6,19.95a24.09,24.09,0,0,0,21,10.89,23.47,23.47,0,0,0,19.53-13c3.4-7.21,3-16.26,2.6-25l0-.9c-.48-10.71-.44-22,5.46-31.67a27.27,27.27,0,0,1,17.61-12.24,19.73,19.73,0,0,1,15.79,3.34c4.18,3.14,6.49,7.49,8.53,11.33.4.75.8,1.5,1.21,2.24,2.05,3.67,4.24,5.84,6.17,6.1a2.16,2.16,0,0,0,1.4-1,1.46,1.46,0,0,0,.19,1.12l9.95-6.28a10.59,10.59,0,0,1-.29,11.62A13.49,13.49,0,0,1,757,555c-5.84-.79-10.83-4.84-14.85-12-.45-.81-.89-1.64-1.33-2.47-1.6-3-3.12-5.87-5.2-7.43a8.17,8.17,0,0,0-6.51-1.2,15.37,15.37,0,0,0-9.79,6.81c-4.18,6.87-4.15,16.13-3.75,25l0,.89c.44,9.72.93,20.73-3.71,30.57a35.06,35.06,0,0,1-29.55,19.77,35.72,35.72,0,0,1-31.53-16.33c-4.81-7.58-6.27-16.05-7.69-24.25-1-5.76-1.93-11.2-4-16.07-3.95-9.46-12.74-16.5-21.89-17.51-9.39-1-19.18,4.85-21.81,13.14-2,6.27-.45,13.42,1.17,21,1.75,8.14,3.55,16.56,1.46,25.25a31,31,0,0,1-58.93,4.07c-3.11-7.9-2.67-16-2.25-23.81.36-6.64.7-12.9-1.22-18.33-2-5.81-7.77-10.42-14.94-12s-14.31.12-18.64,4.49c-6.55,6.62-8,16.79-9.46,27.55-1.35,9.73-2.75,19.8-8,28.61A39.48,39.48,0,0,1,451,629.81Z"/></g></g><g class="cls-7"><path class="cls-8" d="M470.91,733.91c-8.81,0-17.48-5.86-22.56-13.1-4.17-5.95-6.69-12.74-9.12-19.31-1.18-3.18-2.39-6.47-3.77-9.56-2.84-6.38-9.17-17.38-19.73-19.39-5.73-1.09-12,1.59-16.3,7s-5.58,12.09-3.27,17.44l-4.63,2c-3.06-7.06-1.55-15.72,4-22.59s13.62-10.24,21.18-8.8c12.82,2.44,20.16,15,23.4,22.3,1.44,3.24,2.69,6.61,3.89,9.86,2.43,6.56,4.72,12.76,8.52,18.17,5.2,7.41,15.29,13.41,23.75,9.91s11.31-14.32,12.27-20.47c.35-2.26.62-4.63.87-6.91.78-7,1.59-14.2,5-20.68a29.85,29.85,0,0,1,55.33,6.47,56.8,56.8,0,0,1,1.36,11.1,74.25,74.25,0,0,0,.65,7.4c.37,2.39,2.07,10.38,8.09,12.64a9.28,9.28,0,0,0,7.44-.51c4.22-2,8.07-6.58,9.81-11.68a71.59,71.59,0,0,0,2.54-11.51c.85-5.16,1.74-10.5,4-15.47A28.59,28.59,0,0,1,602,663c6.82-1.8,13.41-.77,18.53,2.93,7.45,5.37,10.26,14.61,12.75,22.76.28.91.55,1.81.83,2.7,3.47,11.07,8.49,17.37,14.93,18.72,8.78,1.85,17.19-6.5,21-15.7a110.08,110.08,0,0,0,3.57-10.87c1.92-6.62,3.91-13.46,8-19.35a25.41,25.41,0,0,1,18.61-10.53,15,15,0,0,1,12.5,5.07c4.27,5,4.44,11.57,4.61,17.92.16,6,.31,11.61,3.94,15a8.78,8.78,0,0,0,8.16,2.1c5.65-1.12,11.66-6.17,14.3-12a80.25,80.25,0,0,0,4-12.35c1.77-6.68,3.59-13.58,7.93-19.35l4,3c-3.74,5-5.37,11.11-7.09,17.61a84,84,0,0,1-4.26,13.13c-3.3,7.33-10.67,13.45-17.91,14.88a13.73,13.73,0,0,1-12.6-3.37c-5.15-4.86-5.34-11.83-5.51-18.57-.15-5.72-.29-11.13-3.4-14.78a10.07,10.07,0,0,0-8.42-3.3,20.41,20.41,0,0,0-14.72,8.37c-3.62,5.21-5.41,11.37-7.3,17.88a113.91,113.91,0,0,1-3.75,11.37C670.23,707.14,660,717.61,648,715.08c-8.36-1.76-14.65-9.22-18.71-22.15q-.42-1.35-.84-2.73c-2.36-7.75-4.8-15.77-10.87-20.14-3.88-2.8-9-3.56-14.29-2.14a23.43,23.43,0,0,0-15.12,12.39c-2,4.36-2.79,9.14-3.62,14.2a76.47,76.47,0,0,1-2.75,12.31c-2.19,6.42-7,12-12.42,14.61a14.33,14.33,0,0,1-11.36.67c-5.79-2.17-10-8.37-11.3-16.58-.41-2.65-.56-5.32-.71-7.9a52.2,52.2,0,0,0-1.21-10.13,24.81,24.81,0,0,0-46-5.38c-3,5.63-3.68,12.07-4.44,18.89-.26,2.34-.53,4.76-.9,7.13-1.12,7.19-4.6,19.93-15.32,24.36A18.84,18.84,0,0,1,470.91,733.91Z"/></g></g></g></g></svg>