<svg xmlns="http://www.w3.org/2000/svg" viewBox="0 0 900 900"><defs><style>.cls-1{fill:#d8b45e;}.cls-2{fill:#f2f0f2;}.cls-3{fill:#df4949;}</style></defs><title>6</title><g id="Layer_2" data-name="Layer 2"><g id="Sock"><path class="cls-1" d="M900,450c0,195-124,361-297.51,423.51a451.11,451.11,0,0,1-379.83-35.09C89.46,760.31,0,615.6,0,450,0,201.48,201.48,0,450,0S900,201.48,900,450Z"/><path class="cls-2" d="M583,679.8l-264.9,71.65L306.35,696.2l-21.09-98.74L259.63,477.58l-13.08-61.24-21.23-99.4L555,247.85l12,81.23,9.25,62.56,11.29,76.41s118.81-81.63,198.3-8.74c10.9,10,21,22.85,30,39.23,1,1.83,2,3.66,2.81,5.45C882.4,635.78,583,679.8,583,679.8Z"/><polygon class="cls-3" points="194.74 335.57 176.81 209.12 587.13 148.56 583.76 256.76 194.74 335.57"/><path class="cls-3" d="M576.28,391.64l-19.21-5.19L526.46,486l-98.6-36-31.64,78.15-136.6-50.57-13.08-61.24C261.77,414.77,354,450,354,450l31.62-80.05,102.85,40,55.37-87L567,329.08Z"/><path class="cls-3" d="M818.72,504,754.8,591.43,652,559.79l-50.1,84.38L470.06,604.62,420,686.34,340.87,631,306.35,696.2l-21.09-98.74,10.79-32.4L406.78,588.8,450,538.7S582.91,580.89,581.85,573s49-87,49-87l100.18,42.19,54.79-68.84c10.9,10,21,22.85,30,39.23C816.91,500.38,817.86,502.21,818.72,504Z"/><polygon class="cls-2" points="110.96 507.28 124.18 534.06 153.74 538.36 132.35 559.21 137.4 588.65 110.96 574.75 84.52 588.65 89.57 559.21 68.18 538.36 97.74 534.06 110.96 507.28"/><polygon class="cls-2" points="738.99 247.62 751.7 273.37 780.11 277.5 759.55 297.54 764.41 325.84 738.99 312.48 713.58 325.84 718.43 297.54 697.87 277.5 726.28 273.37 738.99 247.62"/><polygon class="cls-2" points="526.46 32.77 534.12 48.3 551.25 50.78 538.86 62.87 541.78 79.93 526.46 71.87 511.14 79.93 514.07 62.87 501.67 50.78 518.8 48.3 526.46 32.77"/><polygon class="cls-2" points="587.13 727.38 594.2 741.71 610.02 744.01 598.58 755.17 601.28 770.92 587.13 763.48 572.98 770.92 575.68 755.17 564.24 744.01 580.06 741.71 587.13 727.38"/><polygon class="cls-2" points="68.18 295.69 77.04 313.64 96.85 316.52 82.52 330.5 85.9 350.23 68.18 340.91 50.46 350.23 53.84 330.5 39.51 316.52 59.32 313.64 68.18 295.69"/></g></g></svg>