<svg xmlns="http://www.w3.org/2000/svg" viewBox="0 0 900 900"><defs><style>.cls-1{fill:#df4949;}.cls-2,.cls-3{fill:#78c0f9;}.cls-2{opacity:0.34;}.cls-3{opacity:0.6;}.cls-4{fill:#fff;}.cls-5{fill:#f7f7f7;}.cls-6{fill:#bc3f3f;}.cls-7{fill:#5c7c2a;}.cls-8{fill:#699331;}.cls-9{fill:#a00;}</style></defs><title>7</title><g id="Layer_2" data-name="Layer 2"><g id="Dinner"><path class="cls-1" d="M900,450A450,450,0,1,1,79.1,195.12C160.24,77.27,296.1,0,450,0S739.76,77.27,820.9,195.12A447.93,447.93,0,0,1,900,450Z"/><path class="cls-2" d="M494.58,609.78a32.71,32.71,0,1,1,32.71-32.71A32.75,32.75,0,0,1,494.58,609.78Z"/><circle class="cls-3" cx="494.58" cy="577.07" r="27.84"/><circle class="cls-4" cx="430.14" cy="760.44" r="107.42"/><path class="cls-5" d="M430.14,826.39a66,66,0,1,1,66-66A66,66,0,0,1,430.14,826.39Z"/><path class="cls-1" d="M445.83,839.55H416.57A12.55,12.55,0,0,1,404,827s8.15-35.57,8.15-68.31c0-31.59-6.47-61.1-7.88-67.17a7.62,7.62,0,0,1-.19-2.6,12.55,12.55,0,0,1,12.46-11.08h29.26a12.55,12.55,0,0,1,12.55,12.55s-8.14,33.71-8.14,68.31c0,33.7,8.14,68.31,8.14,68.31A12.55,12.55,0,0,1,445.83,839.55Z"/><rect class="cls-6" x="411.02" y="750.92" width="39.89" height="16.6"/><polygon class="cls-6" points="423.38 755.97 445.13 726.08 459.06 734.57 429.84 758.69 423.38 755.97"/><path class="cls-6" d="M434.26,759.22c-1-.87-16-33.15-16-33.15s-8.49,8.83-7.47,10.19,18.69,27.18,18.69,27.18Z"/><path class="cls-4" d="M560.69,709.39h11.13a1.13,1.13,0,0,1,1.13,1.13V841.08a3.81,3.81,0,0,1-3.81,3.81h-5.77a3.81,3.81,0,0,1-3.81-3.81V710.52A1.13,1.13,0,0,1,560.69,709.39Z"/><rect class="cls-4" x="552.09" y="699.18" width="28.34" height="40.19" rx="7.99" ry="7.99"/><rect class="cls-4" x="552.09" y="676" width="7.73" height="43.79" rx="1.47" ry="1.47"/><rect class="cls-4" x="562.39" y="676" width="7.73" height="43.79" rx="1.47" ry="1.47"/><rect class="cls-4" x="572.7" y="676" width="7.73" height="43.79" rx="1.47" ry="1.47"/><path class="cls-4" d="M605.18,722.24h10.22a1,1,0,0,1,1,1V843.07a3.5,3.5,0,0,1-3.5,3.5h-5.3a3.5,3.5,0,0,1-3.5-3.5V723.28a1,1,0,0,1,1-1Z"/><path class="cls-4" d="M601.93,674.32h8.78A10.25,10.25,0,0,1,621,684.57v57.56a1.34,1.34,0,0,1-1.34,1.34h-17.7a1.34,1.34,0,0,1-1.34-1.34V675.65a1.34,1.34,0,0,1,1.34-1.34Z"/><path class="cls-4" d="M284.67,709.39h11.13a1.13,1.13,0,0,1,1.13,1.13V841.08a3.81,3.81,0,0,1-3.81,3.81h-5.77a3.81,3.81,0,0,1-3.81-3.81V710.52A1.13,1.13,0,0,1,284.67,709.39Z"/><path class="cls-4" d="M290.24,739.37h0c-7.79,0-18-24-18-33.26,0-18.46,10.17-30.11,18-30.11h0c7.79,0,18,10.84,18,29.7C308.2,715.07,298,739.37,290.24,739.37Z"/><circle class="cls-4" cx="755.22" cy="476.85" r="107.42" transform="translate(244.28 1209.43) rotate(-87.37)"/><path class="cls-5" d="M821.1,479.87A66,66,0,1,1,758.24,411,66,66,0,0,1,821.1,479.87Z"/><path class="cls-1" d="M835,464.8,833.62,494a12.55,12.55,0,0,1-13.11,12s-35.16-9.77-67.87-11.27c-31.55-1.45-61.33,3.66-67.46,4.8a7.62,7.62,0,0,1-2.61.07,12.55,12.55,0,0,1-10.5-13l1.34-29.23a12.55,12.55,0,0,1,13.11-12s33.3,9.68,67.87,11.26c33.66,1.54,68.61-5,68.61-5A12.55,12.55,0,0,1,835,464.8Z"/><rect class="cls-6" x="734.09" y="467.66" width="39.89" height="16.6" transform="translate(244.03 1207.41) rotate(-87.37)"/><polygon class="cls-6" points="750.44 483.39 721.57 460.3 730.7 446.78 753.46 477.07 750.44 483.39"/><path class="cls-6" d="M754.19,472.68c-.92,1-33.84,14.43-33.84,14.43s8.44,8.89,9.84,7.93,28-17.42,28-17.42Z"/><path class="cls-4" d="M772.57,273.89H783.7a1.13,1.13,0,0,1,1.13,1.13V405.58a3.81,3.81,0,0,1-3.81,3.81h-5.77a3.81,3.81,0,0,1-3.81-3.81V275a1.13,1.13,0,0,1,1.13-1.13Z" transform="matrix(0.05, -1, 1, 0.05, 401.21, 1103.31)"/><rect class="cls-4" x="706.16" y="318.9" width="28.34" height="40.19" rx="7.99" ry="7.99" transform="translate(348.7 1043.04) rotate(-87.37)"/><rect class="cls-4" x="694.63" y="326.41" width="7.73" height="43.79" rx="1.47" ry="1.47" transform="translate(318.56 1030.12) rotate(-87.37)"/><rect class="cls-4" x="695.11" y="316.12" width="7.73" height="43.79" rx="1.47" ry="1.47" transform="translate(329.29 1020.77) rotate(-87.37)"/><rect class="cls-4" x="695.58" y="305.82" width="7.73" height="43.79" rx="1.47" ry="1.47" transform="translate(340.03 1011.42) rotate(-87.37)"/><path class="cls-4" d="M782.3,235.83h10.22a1,1,0,0,1,1,1V356.66a3.5,3.5,0,0,1-3.5,3.5h-5.3a3.5,3.5,0,0,1-3.5-3.5V236.87A1,1,0,0,1,782.3,235.83Z" transform="translate(453.66 1070.93) rotate(-87.37)"/><path class="cls-4" d="M703.15,259.46h8.78a10.25,10.25,0,0,1,10.25,10.25v57.56a1.34,1.34,0,0,1-1.34,1.34h-17.7a1.34,1.34,0,0,1-1.34-1.34V260.8a1.34,1.34,0,0,1,1.34-1.34Z" transform="translate(385.65 991.82) rotate(-87.37)"/><path class="cls-4" d="M759.92,549.62h11.13a1.13,1.13,0,0,1,1.13,1.13V681.31a3.81,3.81,0,0,1-3.81,3.81H762.6a3.81,3.81,0,0,1-3.81-3.81V550.75a1.13,1.13,0,0,1,1.13-1.13Z" transform="translate(113.71 1353.78) rotate(-87.37)"/><path class="cls-4" d="M727.76,615.64h0c-.36,7.78-24.8,16.84-34,16.42-18.44-.85-29.62-11.53-29.26-19.32h0c.36-7.78,11.65-17.44,30.49-16.58C704.3,596.59,728.11,607.86,727.76,615.64Z"/><circle class="cls-4" cx="464.04" cy="139.46" r="107.42" transform="translate(317.52 601.32) rotate(-89.13)"/><path class="cls-5" d="M465,73.52a66,66,0,1,1-66.95,64.94A66,66,0,0,1,465,73.52Z"/><path class="cls-1" d="M449.56,60.13l29.26.45a12.55,12.55,0,0,1,12.36,12.74s-8.7,35.44-9.19,68.18c-.48,31.58,5.54,61.19,6.86,67.29a7.62,7.62,0,0,1,.15,2.6,12.55,12.55,0,0,1-12.63,10.89l-29.26-.45a12.55,12.55,0,0,1-12.36-12.74s8.65-33.58,9.18-68.18c.51-33.69-7.1-68.43-7.1-68.43A12.55,12.55,0,0,1,449.56,60.13Z"/><rect class="cls-6" x="443.25" y="132.37" width="39.89" height="16.6" transform="translate(924.19 288.39) rotate(-179.13)"/><polygon class="cls-6" points="470.73 144.04 448.53 173.6 434.73 164.9 464.31 141.22 470.73 144.04"/><path class="cls-6" d="M459.91,140.62c1,.89,15.46,33.39,15.46,33.39s8.63-8.7,7.63-10.08-18.27-27.46-18.27-27.46Z"/><path class="cls-4" d="M322.63,52.95h11.13a1.13,1.13,0,0,1,1.13,1.13V184.63a3.81,3.81,0,0,1-3.81,3.81h-5.77a3.81,3.81,0,0,1-3.81-3.81V54.08a1.13,1.13,0,0,1,1.13-1.13Z" transform="translate(654.51 246.38) rotate(-179.13)"/><rect class="cls-4" x="313.15" y="158.46" width="28.34" height="40.19" rx="7.99" ry="7.99" transform="translate(651.87 362.08) rotate(-179.13)"/><rect class="cls-4" x="333.43" y="178.19" width="7.73" height="43.79" rx="1.47" ry="1.47" transform="translate(671.49 405.3) rotate(-179.13)"/><rect class="cls-4" x="323.12" y="178.04" width="7.73" height="43.79" rx="1.47" ry="1.47" transform="translate(650.89 404.83) rotate(-179.13)"/><rect class="cls-4" x="312.82" y="177.88" width="7.73" height="43.79" rx="1.47" ry="1.47" transform="translate(630.29 404.35) rotate(-179.13)"/><path class="cls-4" d="M279.17,50.59h10.22a1,1,0,0,1,1,1V171.43a3.5,3.5,0,0,1-3.5,3.5h-5.3a3.5,3.5,0,0,1-3.5-3.5V51.63a1,1,0,0,1,1-1Z" transform="translate(566.81 229.84) rotate(-179.13)"/><path class="cls-4" d="M273.79,153.68h8.78a10.25,10.25,0,0,1,10.25,10.25v57.56a1.34,1.34,0,0,1-1.34,1.34h-17.7a1.34,1.34,0,0,1-1.34-1.34V155a1.34,1.34,0,0,1,1.34-1.34Z" transform="translate(562.37 380.8) rotate(-179.13)"/><path class="cls-4" d="M598.61,57.15h11.13a1.13,1.13,0,0,1,1.13,1.13V188.84a3.81,3.81,0,0,1-3.81,3.81h-5.77a3.81,3.81,0,0,1-3.81-3.81V58.28a1.13,1.13,0,0,1,1.13-1.13Z" transform="translate(1206.39 259) rotate(-179.13)"/><path class="cls-4" d="M603.6,162.67h0c7.79.12,17.59,24.28,17.45,33.53-.28,18.45-10.62,30-18.41,29.84h0c-7.79-.12-17.79-11.11-17.5-30C585.28,186.69,595.81,162.55,603.6,162.67Z"/><circle class="cls-4" cx="134.42" cy="441.6" r="107.42" transform="translate(-6 1.87) rotate(-0.78)"/><path class="cls-5" d="M68.47,442.5a66,66,0,1,1,66.84,65A66,66,0,0,1,68.47,442.5Z"/><path class="cls-1" d="M55.53,458.36l-.4-29.26a12.55,12.55,0,0,1,12.38-12.72s35.67,7.67,68.42,7.22c31.58-.43,61-7.3,67.06-8.8a7.62,7.62,0,0,1,2.6-.22,12.55,12.55,0,0,1,11.25,12.31l.4,29.26a12.55,12.55,0,0,1-12.38,12.72s-33.82-7.68-68.42-7.21c-33.69.46-68.19,9.07-68.19,9.07A12.55,12.55,0,0,1,55.53,458.36Z"/><rect class="cls-6" x="115.71" y="434.11" width="39.89" height="16.6" transform="matrix(0.01, 1, -1, 0.01, 576.18, 300.75)"/><polygon class="cls-6" points="138.8 434.78 168.99 456.12 160.69 470.16 136.17 441.27 138.8 434.78"/><path class="cls-6" d="M135.7,445.7c.86-1,32.93-16.42,32.93-16.42s-8.95-8.37-10.29-7.33S131.41,441,131.41,441Z"/><path class="cls-4" d="M114,510.18h11.13a1.13,1.13,0,0,1,1.13,1.13V641.87a3.81,3.81,0,0,1-3.81,3.81h-5.77a3.81,3.81,0,0,1-3.81-3.81V511.31a1.13,1.13,0,0,1,1.13-1.13Z" transform="translate(695.82 450.5) rotate(89.22)"/><rect class="cls-4" x="163.27" y="557.05" width="28.34" height="40.19" rx="7.99" ry="7.99" transform="translate(752.11 391.86) rotate(89.22)"/><rect class="cls-4" x="194.81" y="544.65" width="7.73" height="43.79" rx="1.47" ry="1.47" transform="translate(762.47 360.18) rotate(89.22)"/><rect class="cls-4" x="194.95" y="554.95" width="7.73" height="43.79" rx="1.47" ry="1.47" transform="translate(772.91 370.2) rotate(89.22)"/><rect class="cls-4" x="195.09" y="565.26" width="7.73" height="43.79" rx="1.47" ry="1.47" transform="matrix(0.01, 1, -1, 0.01, 783.35, 380.22)"/><path class="cls-4" d="M107.8,559.89H118a1,1,0,0,1,1,1V680.72a3.5,3.5,0,0,1-3.5,3.5h-5.3a3.5,3.5,0,0,1-3.5-3.5V560.93a1,1,0,0,1,1-1Z" transform="translate(733.37 500.69) rotate(89.22)"/><path class="cls-4" d="M179.58,586.94h8.78a10.25,10.25,0,0,1,10.25,10.25v57.56a1.34,1.34,0,0,1-1.34,1.34h-17.7a1.34,1.34,0,0,1-1.34-1.34V588.28A1.34,1.34,0,0,1,179.58,586.94Z" transform="translate(807.32 424.65) rotate(89.22)"/><path class="cls-4" d="M110.25,234.19h11.13a1.13,1.13,0,0,1,1.13,1.13V365.88a3.81,3.81,0,0,1-3.81,3.81h-5.77a3.81,3.81,0,0,1-3.81-3.81V235.32a1.13,1.13,0,0,1,1.13-1.13Z" transform="translate(416.15 182.02) rotate(89.22)"/><path class="cls-4" d="M153.59,301.42h0c-.11-7.79,23.76-18.28,33-18.41,18.45-.25,30.25,9.75,30.35,17.55h0c.11,7.79-10.59,18.1-29.46,18.36C178.13,319,153.7,309.22,153.59,301.42Z"/><path class="cls-2" d="M290.5,527.84a32.71,32.71,0,1,1,32.71-32.71A32.75,32.75,0,0,1,290.5,527.84Z"/><circle class="cls-3" cx="290.5" cy="495.12" r="27.84"/><path class="cls-2" d="M378.31,315.72A32.71,32.71,0,1,1,411,283,32.75,32.75,0,0,1,378.31,315.72Z"/><circle class="cls-3" cx="378.31" cy="283.01" r="27.84"/><path class="cls-2" d="M616.43,393.15a32.71,32.71,0,1,1,32.71-32.71A32.75,32.75,0,0,1,616.43,393.15Z"/><circle class="cls-3" cx="616.43" cy="360.43" r="27.84"/><path class="cls-7" d="M457.95,422.81c-16.81-1.63-31.68-15.43-34.56-32.07l4.72,1.72a78.74,78.74,0,0,1,.27-51.26l4,8a105.9,105.9,0,0,1,15-26.59l1.91,5a97.75,97.75,0,0,1,15-16c.8-.68,1.81-1.39,2.81-1.08a3.08,3.08,0,0,1,1.45,1.27,34.47,34.47,0,0,1,6.18,15,12,12,0,0,0,5.46-3,75.2,75.2,0,0,1,9.17,27q3.54-1.94,6.92-4.16a38.23,38.23,0,0,1-3.81,38.16,36.68,36.68,0,0,0,10.06-4.87,50.41,50.41,0,0,1-16.25,28.35,64,64,0,0,1-29.56,14.49"/><path class="cls-7" d="M449.65,425.68c-.6-18.75,12.5-37.11,30.42-42.65l-1.23,5.45a87.51,87.51,0,0,1,56.54-7l-8.2,5.52a117.68,117.68,0,0,1,31.43,12.72l-5.27,2.82a108.62,108.62,0,0,1,19.72,14.24c.86.78,1.79,1.79,1.59,2.94a3.43,3.43,0,0,1-1.19,1.78,38.31,38.31,0,0,1-15.66,8.95,13.37,13.37,0,0,0,4.07,5.59A83.56,83.56,0,0,1,533.48,450q2.64,3.62,5.56,7a42.48,42.48,0,0,1-42.6,1.23,40.76,40.76,0,0,0,6.8,10.4c-12.32-.58-24.24-5.81-33.56-13.88a71.15,71.15,0,0,1-20.17-30.51"/><path class="cls-7" d="M446.39,421.22c17.39,2.43,32.24,17.42,34.51,34.84l-4.83-2a81.9,81.9,0,0,1-2.53,53.26l-3.79-8.44a110.14,110.14,0,0,1-16.72,27l-1.76-5.31A101.66,101.66,0,0,1,435,536.47c-.86.67-1.94,1.37-3,1a3.21,3.21,0,0,1-1.45-1.38,35.85,35.85,0,0,1-5.77-15.86,12.51,12.51,0,0,0-5.8,2.86,78.21,78.21,0,0,1-8.35-28.42q-3.76,1.86-7.37,4a39.76,39.76,0,0,1,5.63-39.48,38.15,38.15,0,0,0-10.67,4.62,52.43,52.43,0,0,1,18.13-28.75,66.59,66.59,0,0,1,31.35-13.76"/><path class="cls-7" d="M450.65,418.9c-3.45,18.44-20.19,33.55-38.89,35.11l2.37-5.05a87.51,87.51,0,0,1-56.72-5.34l9.2-3.63a117.68,117.68,0,0,1-28-19.19l5.75-1.62A108.62,108.62,0,0,1,328.2,401c-.67-1-1.36-2.14-.92-3.22a3.43,3.43,0,0,1,1.55-1.48A38.31,38.31,0,0,1,346,391a13.37,13.37,0,0,0-2.77-6.33,83.56,83.56,0,0,1,30.75-7.5q-1.8-4.11-3.92-8.06A42.48,42.48,0,0,1,412,377a40.76,40.76,0,0,0-4.41-11.62c11.91,3.22,22.42,10.89,29.79,20.78a71.15,71.15,0,0,1,13.13,34.14"/><path class="cls-8" d="M453,419.73c-12.95,10.44-32.93,11-46.42,1.26l4.51-2A77.57,77.57,0,0,1,376,382.69l8.29,2.85a104.32,104.32,0,0,1-7.79-29l4.81,2.22a96.28,96.28,0,0,1-.47-21.56c.09-1,.31-2.23,1.23-2.7a3,3,0,0,1,1.9-.11,34,34,0,0,1,14.69,6.3,11.85,11.85,0,0,0,1.78-5.86,74.07,74.07,0,0,1,25,12.65q1.15-3.8,2-7.69a37.66,37.66,0,0,1,23.62,29.47,36.13,36.13,0,0,0,3.72-10.37A49.66,49.66,0,0,1,462.89,390a63.07,63.07,0,0,1-10.81,30.57"/><path class="cls-8" d="M448,425.16c-8-14-5.39-33.11,6-44.48l1.25,4.62a75,75,0,0,1,40-27.93l-4,7.46a100.81,100.81,0,0,1,28.9-2.95l-2.86,4.24A93,93,0,0,1,537.92,369c1,.25,2.08.64,2.39,1.59a2.94,2.94,0,0,1-.19,1.82,32.82,32.82,0,0,1-8.28,13,11.45,11.45,0,0,0,5.32,2.61A71.58,71.58,0,0,1,521.21,410q3.45,1.69,7,3.1a36.39,36.39,0,0,1-31.77,18,34.92,34.92,0,0,0,9.31,5.15,48,48,0,0,1-31,2.92,61,61,0,0,1-27.49-15"/><path class="cls-8" d="M450.49,419.64c9.53-12.82,28-18.13,42.88-12.33l-3.7,3a74.52,74.52,0,0,1,41.41,25.28l-8.39-.66A100.23,100.23,0,0,1,536.91,460l-5-.91a92.51,92.51,0,0,1,5.62,19.94c.16,1,.25,2.15-.5,2.81a2.92,2.92,0,0,1-1.74.56,32.63,32.63,0,0,1-15.18-2.33,11.38,11.38,0,0,0-.25,5.88,71.17,71.17,0,0,1-26.34-5.75q-.16,3.82,0,7.64a36.18,36.18,0,0,1-29.06-21.74,34.71,34.71,0,0,0-1,10.54,47.71,47.71,0,0,1-15-27,60.6,60.6,0,0,1,2.71-31"/><path class="cls-8" d="M447.27,419.38c11.11,12.94,12.31,33.39,2.78,47.53l-2.24-4.55a79.53,79.53,0,0,1-36,37.18l2.66-8.58a107,107,0,0,1-29.5,8.91l2.12-5A98.72,98.72,0,0,1,365,496c-1.06-.06-2.29-.25-2.81-1.18a3.12,3.12,0,0,1-.17-1.94,34.82,34.82,0,0,1,6-15.26,12.15,12.15,0,0,0-6.07-1.64A75.94,75.94,0,0,1,374.08,450q-3.93-1.06-7.95-1.8A38.61,38.61,0,0,1,395.58,423a37,37,0,0,0-10.74-3.48,50.91,50.91,0,0,1,31.67-9.31,64.67,64.67,0,0,1,31.67,10.1"/><circle class="cls-9" cx="444.05" cy="409.71" r="10.41"/><circle class="cls-9" cx="441.22" cy="438.25" r="10.41"/><circle class="cls-9" cx="444.12" cy="422.22" r="10.41"/><circle class="cls-9" cx="463.84" cy="407.29" r="10.41" transform="translate(-120.8 605.34) rotate(-60)"/><circle class="cls-9" cx="461.06" cy="424.11" r="10.41"/><circle class="cls-9" cx="464.04" cy="437.94" r="10.41"/><circle class="cls-9" cx="431.2" cy="421.41" r="10.41"/></g></g></svg>