<svg xmlns="http://www.w3.org/2000/svg" viewBox="0 0 900 900"><defs><style>.cls-1{fill:#2f373a;}.cls-2{fill:#d8b45e;}.cls-3{fill:#2eb1e5;}.cls-4{fill:#fff;}.cls-5{fill:#f08477;}.cls-6{fill:#a78031;}.cls-7{fill:none;stroke:#ff8e6c;stroke-miterlimit:10;stroke-width:4.32px;}</style></defs><title>8</title><g id="Layer_2" data-name="Layer 2"><g id="Zenzero"><path class="cls-1" d="M900,450A450,450,0,1,1,79.1,195.12C160.24,77.27,296.1,0,450,0S739.76,77.27,820.9,195.12A447.93,447.93,0,0,1,900,450Z"/><circle class="cls-2" cx="452.23" cy="206.69" r="142.24"/><rect class="cls-2" x="289.79" y="286.35" width="323.93" height="542.22" rx="84.5" ry="84.5"/><circle class="cls-2" cx="324.22" cy="436.39" r="102.72"/><circle class="cls-2" cx="349.51" cy="745.13" r="102.72"/><circle class="cls-2" cx="554.94" cy="745.13" r="102.72"/><circle class="cls-2" cx="573.91" cy="436.39" r="102.72"/><circle class="cls-3" cx="412.4" cy="182.04" r="14.54"/><circle class="cls-3" cx="493.95" cy="182.04" r="14.54"/><path class="cls-4" d="M457.46,286.8l-1.54,0c-31.23-.76-53-24.38-53.92-25.39l5.62-5.1c.2.22,20.6,22.26,48.56,22.91,17.26.43,33.95-7.35,49.63-23l5.36,5.36C494.4,278.31,476.33,286.8,457.46,286.8Z"/><circle class="cls-5" cx="400.07" cy="255.05" r="12.33"/><circle class="cls-5" cx="508.49" cy="255.05" r="12.33"/><circle class="cls-4" cx="451.75" cy="419.1" r="24.65"/><circle class="cls-3" cx="451.75" cy="532.8" r="24.65"/><circle class="cls-6" cx="451.75" cy="656.13" r="24.65"/><path class="cls-4" d="M286.58,520.34l-7.44-1.49c1.48-7.38,8.39-9.61,13.94-11.4,5.1-1.64,8.25-2.8,8.83-5.67s-1.89-5.16-6-8.64c-4.43-3.79-9.94-8.52-8.46-15.9s8.39-9.61,13.94-11.4c5.1-1.64,8.25-2.8,8.83-5.67s-1.89-5.15-6-8.64c-4.43-3.79-9.94-8.51-8.46-15.89s8.39-9.61,13.94-11.4c5.1-1.64,8.25-2.8,8.83-5.67s-1.89-5.15-6-8.63c-4.43-3.79-9.94-8.51-8.46-15.89s8.39-9.6,13.94-11.39c5.1-1.64,8.25-2.79,8.83-5.66s-1.89-5.15-6-8.64c-4.43-3.79-9.94-8.51-8.46-15.89s8.39-9.61,13.94-11.39c5.1-1.64,8.25-2.8,8.83-5.67l7.44,1.49c-1.48,7.38-8.39,9.61-13.94,11.39-5.1,1.64-8.25,2.8-8.83,5.67s1.89,5.15,6,8.64c4.43,3.79,9.94,8.51,8.46,15.89s-8.39,9.6-13.94,11.39c-5.1,1.64-8.25,2.79-8.83,5.67s1.89,5.15,6,8.63c4.43,3.79,9.94,8.51,8.46,15.89s-8.39,9.61-13.94,11.39c-5.1,1.64-8.25,2.8-8.83,5.67s1.89,5.16,6,8.64c4.43,3.79,9.94,8.51,8.46,15.89s-8.39,9.61-13.94,11.4c-5.1,1.64-8.25,2.8-8.83,5.67s1.89,5.16,6,8.65c4.43,3.79,9.94,8.52,8.46,15.9s-8.39,9.61-13.94,11.4C290.31,516.31,287.16,517.46,286.58,520.34Z"/><path class="cls-4" d="M591.5,526.69c-1.48-7.38,4-12.11,8.46-15.9,4.07-3.49,6.53-5.77,6-8.64s-3.73-4-8.83-5.67c-5.55-1.79-12.46-4-13.94-11.41s4-12.1,8.46-15.89c4.07-3.48,6.53-5.76,6-8.64s-3.73-4-8.83-5.67c-5.55-1.79-12.46-4-13.94-11.4s4-12.1,8.46-15.89c4.07-3.48,6.53-5.76,6-8.64s-3.73-4-8.83-5.66c-5.55-1.79-12.46-4-13.94-11.39s4-12.1,8.46-15.89c4.07-3.48,6.53-5.76,6-8.63s-3.73-4-8.83-5.67c-5.55-1.79-12.46-4-13.94-11.4s4-12.1,8.46-15.89c4.07-3.48,6.53-5.76,6-8.63l7.44-1.49c1.48,7.38-4,12.1-8.46,15.89-4.07,3.48-6.53,5.76-6,8.64s3.73,4,8.83,5.67c5.55,1.79,12.46,4,13.94,11.39s-4,12.1-8.46,15.89c-4.07,3.48-6.53,5.76-6,8.63s3.73,4,8.83,5.67c5.55,1.79,12.46,4,13.94,11.39s-4,12.1-8.46,15.89c-4.07,3.48-6.53,5.76-6,8.64s3.73,4,8.83,5.67c5.55,1.79,12.46,4,13.94,11.4s-4,12.1-8.46,15.89c-4.07,3.48-6.53,5.76-6,8.64s3.73,4,8.83,5.68c5.55,1.79,12.46,4,13.94,11.4s-4,12.11-8.46,15.9c-4.07,3.49-6.54,5.77-6,8.65Z"/><path class="cls-7" d="M287.61,692.68c1.38,7.39-13.53,10.18-12.15,17.57s16.3,4.6,17.68,12S279.6,732.42,281,739.81s16.3,4.6,17.68,12S285.14,762,286.52,769.39s11.76,2.82,16.29,8.83c4.34,5.77-2.81,14.51,3.71,17.62s13-10.59,19.56-7.49,0,16.8,6.5,19.9,13-10.59,19.56-7.49,0,16.81,6.52,19.91,13-10.59,19.57-7.48"/><path class="cls-7" d="M624.45,703.79c-1.38,7.39-16.3,4.6-17.68,12s13.53,10.18,12.15,17.57-16.3,4.6-17.68,12,13.53,10.18,12.15,17.57-16.3,4.61-17.68,12,15.28,14.73,10.75,20.75c-4.34,5.77-15.84-8.31-22.36-5.2s0,16.8-6.51,19.91-13-10.6-19.55-7.49,0,16.8-6.52,19.91-13-10.59-19.57-7.48,0,16.81-6.52,19.91"/><path class="cls-4" d="M383.47,809.15a8.32,8.32,0,0,1-3.62-.84c-5.42-2.58-5.42-8.82-5.42-13.38,0-2.68,0-6-1.1-6.53s-3.68,1.58-5.76,3.26c-3.54,2.87-8.38,6.81-13.8,4.22s-5.42-8.82-5.41-13.38c0-2.67,0-6-1.09-6.52s-3.68,1.58-5.76,3.26c-3.54,2.87-8.38,6.81-13.8,4.23-6-2.86-5.22-8.66-4.7-12.5.41-3,.59-4.94-.41-6.26s-3-1.84-6.11-2.31c-3.84-.59-9.63-1.49-10.87-8.1-1.12-6,3.87-9.77,7.52-12.52,2.29-1.72,4.89-3.68,4.63-5.06s-3.38-2.27-6.14-3c-4.39-1.24-10.41-2.94-11.54-8.95s3.87-9.77,7.52-12.52c2.29-1.72,4.88-3.68,4.63-5.06s-3.38-2.27-6.14-3c-4.39-1.24-10.41-2.94-11.54-8.95s3.87-9.77,7.52-12.51c2.29-1.72,4.88-3.67,4.63-5.05l7.46-1.4c1.12,6-3.87,9.77-7.52,12.51-2.29,1.72-4.88,3.67-4.63,5.05s3.38,2.27,6.14,3c4.39,1.24,10.41,2.94,11.54,8.95s-3.87,9.77-7.52,12.52c-2.29,1.72-4.88,3.68-4.63,5.06s3.38,2.27,6.14,3c4.39,1.24,10.41,2.94,11.54,8.95s-3.87,9.77-7.52,12.52c-2.29,1.72-4.89,3.68-4.63,5.06.19,1,.45,1.37,4.57,2,3.37.52,8,1.24,11,5.25s2.32,8.5,1.87,11.84c-.56,4.15-.25,4.3.44,4.63,1.09.53,3.68-1.58,5.76-3.27,3.54-2.87,8.38-6.81,13.8-4.22s5.42,8.82,5.42,13.38c0,2.67,0,6,1.09,6.52s3.68-1.58,5.76-3.26c3.54-2.87,8.38-6.81,13.8-4.22s5.42,8.83,5.42,13.38c0,2.68,0,6,1.1,6.53s3.69-1.58,5.77-3.26c3.54-2.87,8.38-6.81,13.81-4.22l-3.26,6.85c-1.1-.52-3.69,1.58-5.76,3.26C390.93,806.3,387.42,809.15,383.47,809.15Z"/><path class="cls-4" d="M515.88,814.15l-3.26-6.85c1.1-.52,1.1-3.86,1.1-6.53,0-4.56,0-10.8,5.42-13.38s10.27,1.35,13.81,4.22c2.08,1.69,4.67,3.79,5.76,3.26s1.1-3.85,1.1-6.53c0-4.56,0-10.8,5.42-13.38s10.26,1.35,13.8,4.23c2.07,1.69,4.65,3.79,5.75,3.27s1.09-3.85,1.09-6.53c0-4.56,0-10.8,5.42-13.38,4.9-2.33,10.21.71,14.9,3.39,1.81,1,4.74,2.71,6,2.85-.24-1.13-2.88-3.83-4.32-5.3-3.8-3.88-8.11-8.28-7.09-13.75,1.12-6,7.14-7.71,11.54-9,2.76-.78,5.88-1.66,6.14-3s-2.34-3.33-4.63-5.05c-3.65-2.75-8.65-6.5-7.52-12.51s7.14-7.71,11.54-9c2.76-.78,5.88-1.66,6.14-3s-2.34-3.33-4.63-5.06c-3.65-2.74-8.65-6.5-7.52-12.51s7.14-7.71,11.54-8.95c2.76-.78,5.88-1.66,6.14-3L617,680c-1.12,6-7.14,7.71-11.54,8.95-2.76.78-5.88,1.66-6.14,3s2.34,3.33,4.63,5.06c3.65,2.74,8.65,6.5,7.52,12.51s-7.14,7.71-11.54,9c-2.76.78-5.88,1.66-6.14,3s2.34,3.33,4.63,5.05c3.65,2.75,8.65,6.5,7.52,12.51s-7.14,7.71-11.54,9c-2.76.78-5.88,1.66-6.14,3-.3,1.58,2.92,4.87,5.05,7,3.94,4,9.33,9.53,5,15.28s-11,1.87-15.88-.93c-2.46-1.4-6.55-3.74-7.88-3.13-1.1.52-1.09,3.85-1.09,6.53,0,4.56,0,10.8-5.42,13.38s-10.26-1.35-13.8-4.23c-2.08-1.69-4.67-3.8-5.75-3.27s-1.1,3.85-1.1,6.53c0,4.56,0,10.8-5.42,13.38s-10.27-1.35-13.81-4.22c-2.08-1.69-4.66-3.78-5.76-3.26s-1.1,3.85-1.1,6.53C521.3,805.32,521.3,811.57,515.88,814.15Z"/></g></g></svg>