<svg xmlns="http://www.w3.org/2000/svg" viewBox="0 0 900 900"><defs><style>.cls-1{fill:#df4949;}.cls-2{fill:#c91413;}.cls-3{fill:#af1211;}.cls-4{fill:#f9ee9c;}.cls-5{fill:#d8b45e;}.cls-6{fill:#af9664;}</style></defs><title>9</title><g id="Layer_2" data-name="Layer 2"><g id="Candles"><path class="cls-1" d="M900,450c0,159.71-83.2,300-208.6,379.85a447.31,447.31,0,0,1-207.21,68.87c-5.34.4-10.71.72-16.1.91q-9,.37-18.09.37a447.74,447.74,0,0,1-227.34-61.58q-7.12-4.17-14.06-8.61C83.2,750,0,609.7,0,450,0,201.48,201.48,0,450,0S900,201.48,900,450Z"/><path class="cls-2" d="M484.19,286.91V898.72c-5.34.4-10.71.72-16.1.91q-9,.37-18.09.37a447.74,447.74,0,0,1-227.34-61.58q-7.12-4.17-14.06-8.61V286.91a63,63,0,0,1,63-63H421.21A63,63,0,0,1,484.19,286.91Z"/><path class="cls-3" d="M434.75,246.6c0,3.21-26.49,5.94-62.88,6.84-8.06.18-16.62.29-25.48.29-7,0-13.72-.08-20.22-.21C287.11,252.8,258,250,258,246.6s28.27-6.12,66.52-6.9c7-.16,14.31-.23,21.84-.23,9.45,0,18.56.13,27.08.34C409,240.74,434.75,243.41,434.75,246.6Z"/><path class="cls-4" d="M375.32,199.94c0,14.08-.65,27.53-1.85,39.87-.44,4.72-1,9.28-1.6,13.64-8.06.18-16.62.29-25.48.29-7,0-13.72-.08-20.22-.21-.61-4.41-1.16-9-1.62-13.82-1.18-12.31-1.83-25.72-1.83-39.77,0-59.79,26.3-108.24,26.3-108.24S375.32,140.15,375.32,199.94Z"/><path class="cls-5" d="M691.4,439.08V829.85a447.31,447.31,0,0,1-207.21,68.87c-5.34.4-10.71.72-16.1.91V439.08c0-19.63,6.1-37.48,16.1-50.85,8.24-11.06,19.14-19.05,31.46-22.46,9.4-14.43,23.75-22.89,39-22.61l12.29.23,28.37.54,13.69.26c14.64.28,28.21,8.6,37.27,22.31C672.26,375.1,691.4,404.33,691.4,439.08Z"/><ellipse class="cls-6" cx="580.97" cy="351.33" rx="21.4" ry="2.1"/><path class="cls-4" d="M596.56,307.53c0,12-.38,23.49-1.09,34-.26,4-.57,7.92-.94,11.63-4.73.15-9.75.24-14.94.24-4.08,0-8-.07-11.86-.18-.36-3.76-.68-7.72-1-11.79-.69-10.51-1.07-21.94-1.07-33.93,0-51,15.42-92.34,15.42-92.34S596.56,256.53,596.56,307.53Z"/><path class="cls-4" d="M163.44,332.32c-45.75,1.25-46.76,2.26-48,48-1.25-45.75-2.26-46.76-48-48,45.75-1.25,46.76-2.26,48-48C116.68,330.06,117.69,331.07,163.44,332.32Z"/><path class="cls-4" d="M726.68,171.24c-45.75,1.25-46.76,2.26-48,48-1.25-45.75-2.26-46.76-48-48,45.75-1.25,46.76-2.26,48-48C679.92,169,680.93,170,726.68,171.24Z"/><path class="cls-4" d="M850.34,555.7c-45.75,1.25-46.76,2.26-48,48-1.25-45.75-2.26-46.76-48-48,45.75-1.25,46.76-2.26,48-48C803.58,553.44,804.59,554.45,850.34,555.7Z"/><path class="cls-4" d="M256.61,647.07c-45.75,1.25-46.76,2.26-48,48-1.25-45.75-2.26-46.76-48-48,45.75-1.25,46.76-2.26,48-48C209.84,644.81,210.86,645.82,256.61,647.07Z"/><path class="cls-4" d="M421.81,245.13c-27.3.75-27.9,1.35-28.65,28.65-.75-27.3-1.35-27.9-28.65-28.65,27.3-.75,27.9-1.35,28.65-28.65C393.91,243.78,394.51,244.39,421.81,245.13Z"/><path class="cls-4" d="M539.67,91.27c-24.14.66-24.67,1.19-25.33,25.33-.66-24.14-1.19-24.67-25.33-25.33,24.14-.66,24.67-1.19,25.33-25.33C515,90.08,515.53,90.61,539.67,91.27Z"/><path class="cls-4" d="M850.8,412.95c-24.14.66-24.67,1.19-25.33,25.33-.66-24.14-1.19-24.67-25.33-25.33,24.14-.66,24.67-1.19,25.33-25.33C826.13,411.76,826.66,412.29,850.8,412.95Z"/><path class="cls-4" d="M767.34,311.67c-18.27.5-18.68.9-19.18,19.18-.5-18.27-.9-18.68-19.18-19.18,18.27-.5,18.68-.9,19.18-19.18C748.66,310.77,749.06,311.17,767.34,311.67Z"/><path class="cls-4" d="M188.77,522.07c-24.14.66-24.67,1.19-25.33,25.33-.66-24.14-1.19-24.67-25.33-25.33,24.14-.66,24.67-1.19,25.33-25.33C164.1,520.88,164.63,521.41,188.77,522.07Z"/></g></g></svg>